{
.appVersion = "922";
classes = (
{
automatic = 1;

glyphs = (
{
glyphname = A;
lastChange = "2016-09-21 12:21:56 +0000";
layers = (
{
anchors = (
{
name = bottom;
position = "{343, 0}";
},
{
name = ogonek;
position = "{671, 10}";
},
{
name = top;
position = "{399, 712}";
}
);
background = {
anchors = (
{
name = bottom;
position = "{363, 0}";
},
{
name = ogonek;
position = "{690, 10}";
},
{
name = top;
position = "{418, 712}";
}
);
paths = (
{
closed = 1;
nodes = (
"376 676 LINE",
"349 676 LINE",
"639 0 LINE",
"696 0 LINE",
"388 712 LINE",
"337 712 LINE",
"29 0 LINE",
"86 0 LINE"
);
},
{
closed = 1;
nodes = (
"572 193 LINE",
"554 241 LINE",
"173 241 LINE",
"157 193 LINE"
);
}
);
};
layerId = "9E718F8A-2CEA-4931-B05D-987794BD97DA";
paths = (
{
closed = 1;
nodes = (
"410 676 LINE",
"383 676 LINE",
"620 0 LINE",
"677 0 LINE",
"424 712 LINE",
"374 712 LINE",
"10 0 LINE",
"69 0 LINE"
);
},
{
closed = 1;
nodes = (
"568 193 LINE",
"554 241 LINE",
"173 241 LINE",
"153 193 LINE"
);
}
);
width = 725;
},
{
anchors = (
{
name = bottom;
position = "{362, 0}";
},
{
name = ogonek;
position = "{695, 10}";
},
{
name = top;
position = "{416, 712}";
}
);
background = {
paths = (
{
closed = 1;
nodes = (
"401 583 LINE",
"363 583 LINE",
"613 0 LINE",
"774 0 LINE",
"445 712 LINE",
"315 712 LINE",
"-13 0 LINE",
"150 0 LINE"
);
},
{
closed = 1;
nodes = (
"615 156 LINE",
"553 279 LINE",
"198 279 LINE",
"136 156 LINE"
);
}
);
};
layerId = "E1B555A7-F4E1-459C-9C1A-AE952106EEF9";
paths = (
{
closed = 1;
nodes = (
"429 583 LINE",
"391 583 LINE",
"597 0 LINE",
"754 0 LINE",
"482 712 LINE",
"351 712 LINE",
"-32 0 LINE",
"134 0 LINE"
);
},
{
closed = 1;
nodes = (
"608 156 LINE",
"557 279 LINE",
"201 279 LINE",
"129 156 LINE"
);
}
);
width = 761;
}
);
leftKerningGroup = A;
rightKerningGroup = A;
unicode = 0041;
userData = {
anchors = (
);
b = {
};
com.typemytype.robofont.layerData = {
b = {
anchors = (
);
components = (
);
contours = (
{
points = (
{
segmentType = line;
smooth = 0;
x = 403;
y = 502;
},
{
segmentType = line;
smooth = 0;
x = 703;
y = 1275;
},
{
segmentType = line;
smooth = 0;
x = 705;
y = 1275;
},
{
segmentType = line;
smooth = 0;
x = 1004;
y = 502;
}
);
},
{
points = (
{
segmentType = curve;
smooth = 1;
x = 150;
y = 0;
},
{
smooth = 0;
x = 181;
y = 0;
},
{
smooth = 0;
x = 214;
y = 15;
},
{
segmentType = curve;
smooth = 1;
x = 229;
y = 53;
},
{
segmentType = line;
smooth = 0;
x = 356;
y = 373;
},
{
segmentType = line;
smooth = 0;
x = 1051;
y = 373;
},
{
segmentType = line;
smooth = 1;
x = 1179;
y = 53;
},
{
smooth = 0;
x = 1193;
y = 17;
},
{
smooth = 0;
x = 1228;
y = 0;
},
{
segmentType = curve;
smooth = 1;
x = 1260;
y = 0;
},
{
smooth = 0;
x = 1306;
y = 0;
},
{
smooth = 0;
x = 1354;
y = 31;
},
{
segmentType = curve;
smooth = 1;
x = 1354;
y = 80;
},
{
smooth = 0;
x = 1354;
y = 87;
},
{
smooth = 0;
x = 1352;
y = 97;
},
{
segmentType = curve;
smooth = 0;
x = 1349;
y = 108;
},
{
segmentType = line;
smooth = 1;
x = 871;
y = 1288;
},
{
smooth = 0;
x = 817;
y = 1420;
},
{
smooth = 0;
x = 777;
y = 1430;
},
{
segmentType = curve;
smooth = 1;
x = 710;
y = 1430;
},
{
smooth = 0;
x = 644;
y = 1430;
},
{
smooth = 0;
x = 596;
y = 1413;
},
{
segmentType = curve;
smooth = 1;
x = 542;
y = 1280;
},
{
segmentType = line;
smooth = 1;
x = 66;
y = 108;
},
{
smooth = 0;
x = 62;
y = 97;
},
{
smooth = 0;
x = 60;
y = 87;
},
{
segmentType = curve;
smooth = 1;
x = 60;
y = 78;
},
{
smooth = 0;
x = 60;
y = 32;
},
{
smooth = 0;
x = 106;
y = 0;
}
);
}
);
lib = {
};
name = A;
unicodes = (
);
width = 1414;
};
};
components = (
);
contours = {
};
lib = {
};
name = A;
points = {
};
segmentType = line;
unicodes = (
);
width = 1445;
x = 718;
y = 1232;
};
},
{
glyphname = Aogonek;
lastChange = "2016-09-21 12:21:56 +0000";
layers = (
{
background = {
paths = (
{
closed = 1;
nodes = (
"572 193 LINE",
"554 241 LINE",
"173 241 LINE",
"157 193 LINE"
);
},
{
closed = 1;
nodes = (
"703 -143 OFFCURVE",
"681 -149 OFFCURVE",
"665 -149 CURVE SMOOTH",
"624 -149 OFFCURVE",
"596 -126 OFFCURVE",
"596 -83 CURVE SMOOTH",
"596 -38 OFFCURVE",
"624 0 OFFCURVE",
"689 0 CURVE SMOOTH",
"696 0 LINE",
"388 712 LINE",
"337 712 LINE",
"29 0 LINE",
"86 0 LINE",
"376 676 LINE",
"349 676 LINE",
"639 0 LINE",
"663 38 LINE",
"586 21 OFFCURVE",
"545 -28 OFFCURVE",
"545 -89 CURVE SMOOTH",
"545 -149 OFFCURVE",
"591 -193 OFFCURVE",
"660 -193 CURVE SMOOTH",
"693 -193 OFFCURVE",
"721 -183 OFFCURVE",
"740 -170 CURVE",
"724 -131 LINE"
);
}
);
};
layerId = "9E718F8A-2CEA-4931-B05D-987794BD97DA";
paths = (
{
closed = 1;
nodes = (
"568 193 LINE",
"554 241 LINE",
"173 241 LINE",
"153 193 LINE"
);
},
{
closed = 1;
nodes = (
"673 -143 OFFCURVE",
"649 -149 OFFCURVE",
"632 -149 CURVE SMOOTH",
"594 -149 OFFCURVE",
"571 -128 OFFCURVE",
"571 -87 CURVE SMOOTH",
"571 -46 OFFCURVE",
"596 0 OFFCURVE",
"670 0 CURVE SMOOTH",
"677 0 LINE",
"424 712 LINE",
"374 712 LINE",
"10 0 LINE",
"69 0 LINE",
"410 676 LINE",
"383 676 LINE",
"620 0 LINE",
"647 38 LINE",
"559 23 OFFCURVE",
"519 -30 OFFCURVE",
"519 -93 CURVE SMOOTH",
"519 -154 OFFCURVE",
"561 -193 OFFCURVE",
"627 -193 CURVE SMOOTH",
"659 -193 OFFCURVE",
"690 -182 OFFCURVE",
"708 -170 CURVE",
"695 -130 LINE"
);
}
);
width = 725;
},
{
background = {
paths = (
{
closed = 1;
nodes = (
"615 156 LINE",
"553 279 LINE",
"198 279 LINE",
"136 156 LINE"
);
},
{
closed = 1;
nodes = (
"740 -114 OFFCURVE",
"722 -118 OFFCURVE",
"705 -118 CURVE SMOOTH",
"667 -118 OFFCURVE",
"645 -100 OFFCURVE",
"645 -65 CURVE SMOOTH",
"645 -27 OFFCURVE",
"675 0 OFFCURVE",
"720 0 CURVE SMOOTH",
"774 0 LINE",
"445 712 LINE",
"315 712 LINE",
"-13 0 LINE",
"150 0 LINE",
"401 583 LINE",
"363 583 LINE",
"613 0 LINE",
"634 33 LINE",
"577 11 OFFCURVE",
"545 -35 OFFCURVE",
"545 -88 CURVE SMOOTH",
"545 -156 OFFCURVE",
"602 -199 OFFCURVE",
"675 -199 CURVE SMOOTH",
"711 -199 OFFCURVE",
"746 -192 OFFCURVE",
"777 -179 CURVE",
"760 -106 LINE"
);
}
);
};
layerId = "E1B555A7-F4E1-459C-9C1A-AE952106EEF9";
paths = (
{
closed = 1;
nodes = (
"608 156 LINE",
"557 279 LINE",
"201 279 LINE",
"129 156 LINE"
);
},
{
closed = 1;
nodes = (
"710 -114 OFFCURVE",
"692 -118 OFFCURVE",
"675 -118 CURVE SMOOTH",
"642 -118 OFFCURVE",
"621 -100 OFFCURVE",
"621 -68 CURVE SMOOTH",
"621 -30 OFFCURVE",
"655 0 OFFCURVE",
"701 0 CURVE SMOOTH",
"754 0 LINE",
"482 712 LINE",
"351 712 LINE",
"-32 0 LINE",
"134 0 LINE",
"429 583 LINE",
"391 583 LINE",
"597 0 LINE",
"618 33 LINE",
"559 11 OFFCURVE",
"519 -29 OFFCURVE",
"519 -92 CURVE SMOOTH",
"519 -155 OFFCURVE",
"569 -199 OFFCURVE",
"647 -199 CURVE SMOOTH",
"680 -199 OFFCURVE",
"712 -192 OFFCURVE",
"743 -179 CURVE",
"732 -106 LINE"
);
}
);
width = 761;
}
);
leftKerningGroup = A;
leftMetricsKey = A;
widthMetricsKey = A;
rightKerningGroup = A;
unicode = 0104;
},
{
glyphname = Aring;
lastChange = "2016-09-21 12:21:56 +0000";
layers = (
{
background = {
paths = (
{
closed = 1;
nodes = (
"417 682 OFFCURVE",
"462 724 OFFCURVE",
"462 779 CURVE SMOOTH",
"462 833 OFFCURVE",
"417 876 OFFCURVE",
"363 876 CURVE SMOOTH",
"308 876 OFFCURVE",
"264 833 OFFCURVE",
"264 779 CURVE SMOOTH",
"264 724 OFFCURVE",
"308 682 OFFCURVE",
"363 682 CURVE SMOOTH"
);
},
{
closed = 1;
nodes = (
"333 726 OFFCURVE",
"312 749 OFFCURVE",
"312 779 CURVE SMOOTH",
"312 808 OFFCURVE",
"333 831 OFFCURVE",
"363 831 CURVE SMOOTH",
"392 831 OFFCURVE",
"413 808 OFFCURVE",
"413 779 CURVE SMOOTH",
"413 749 OFFCURVE",
"392 726 OFFCURVE",
"363 726 CURVE SMOOTH"
);
},
{
closed = 1;
nodes = (
"376 676 LINE",
"349 676 LINE",
"639 0 LINE",
"696 0 LINE",
"388 712 LINE",
"337 712 LINE",
"29 0 LINE",
"86 0 LINE"
);
},
{
closed = 1;
nodes = (
"572 193 LINE",
"554 241 LINE",
"173 241 LINE",
"157 193 LINE"
);
}
);
};
layerId = "9E718F8A-2CEA-4931-B05D-987794BD97DA";
paths = (
{
closed = 1;
nodes = (
"69 0 LINE",
"410 676 LINE",
"383 676 LINE",
"620 0 LINE",
"677 0 LINE",
"424 712 LINE",
"374 712 LINE",
"10 0 LINE"
);
},
{
closed = 1;
nodes = (
"568 193 LINE",
"554 241 LINE",
"173 241 LINE",
"153 193 LINE"
);
},
{
closed = 1;
nodes = (
"457 682 OFFCURVE",
"501 724 OFFCURVE",
"501 779 CURVE SMOOTH",
"501 833 OFFCURVE",
"457 876 OFFCURVE",
"402 876 CURVE SMOOTH",
"347 876 OFFCURVE",
"303 833 OFFCURVE",
"303 779 CURVE SMOOTH",
"303 724 OFFCURVE",
"347 682 OFFCURVE",
"402 682 CURVE SMOOTH"
);
},
{
closed = 1;
nodes = (
"373 726 OFFCURVE",
"351 749 OFFCURVE",
"351 779 CURVE SMOOTH",
"351 808 OFFCURVE",
"373 831 OFFCURVE",
"402 831 CURVE SMOOTH",
"431 831 OFFCURVE",
"452 808 OFFCURVE",
"452 779 CURVE SMOOTH",
"452 749 OFFCURVE",
"431 726 OFFCURVE",
"402 726 CURVE SMOOTH"
);
}
);
width = 725;
},
{
background = {
paths = (
{
closed = 1;
nodes = (
"442 677 OFFCURVE",
"492 724 OFFCURVE",
"492 786 CURVE SMOOTH",
"492 847 OFFCURVE",
"442 895 OFFCURVE",
"381 895 CURVE SMOOTH",
"319 895 OFFCURVE",
"270 847 OFFCURVE",
"270 786 CURVE SMOOTH",
"270 724 OFFCURVE",
"319 677 OFFCURVE",
"381 677 CURVE SMOOTH"
);
},
{
closed = 1;
nodes = (
"356 740 OFFCURVE",
"337 761 OFFCURVE",
"337 786 CURVE SMOOTH",
"337 811 OFFCURVE",
"356 831 OFFCURVE",
"381 831 CURVE SMOOTH",
"406 831 OFFCURVE",
"424 811 OFFCURVE",
"424 786 CURVE SMOOTH",
"424 761 OFFCURVE",
"406 740 OFFCURVE",
"381 740 CURVE SMOOTH"
);
},
{
closed = 1;
nodes = (
"401 583 LINE",
"363 583 LINE",
"613 0 LINE",
"774 0 LINE",
"445 712 LINE",
"315 712 LINE",
"-13 0 LINE",
"150 0 LINE"
);
},
{
closed = 1;
nodes = (
"615 156 LINE",
"553 279 LINE",
"198 279 LINE",
"136 156 LINE"
);
}
);
};
layerId = "E1B555A7-F4E1-459C-9C1A-AE952106EEF9";
paths = (
{
closed = 1;
nodes = (
"429 583 LINE",
"391 583 LINE",
"597 0 LINE",
"754 0 LINE",
"482 712 LINE",
"351 712 LINE",
"-32 0 LINE",
"134 0 LINE"
);
},
{
closed = 1;
nodes = (
"608 156 LINE",
"557 279 LINE",
"201 279 LINE",
"129 156 LINE"
);
},
{
closed = 1;
nodes = (
"485 677 OFFCURVE",
"534 724 OFFCURVE",
"534 786 CURVE SMOOTH",
"534 847 OFFCURVE",
"485 895 OFFCURVE",
"423 895 CURVE SMOOTH",
"362 895 OFFCURVE",
"312 847 OFFCURVE",
"312 786 CURVE SMOOTH",
"312 724 OFFCURVE",
"362 677 OFFCURVE",
"423 677 CURVE SMOOTH"
);
},
{
closed = 1;
nodes = (
"398 740 OFFCURVE",
"380 761 OFFCURVE",
"380 786 CURVE SMOOTH",
"380 811 OFFCURVE",
"398 831 OFFCURVE",
"423 831 CURVE SMOOTH",
"448 831 OFFCURVE",
"467 811 OFFCURVE",
"467 786 CURVE SMOOTH",
"467 761 OFFCURVE",
"448 740 OFFCURVE",
"423 740 CURVE SMOOTH"
);
}
);
width = 761;
}
);
leftKerningGroup = A;
leftMetricsKey = A;
widthMetricsKey = A;
rightKerningGroup = A;
unicode = 00C5;
},
{
glyphname = Aringacute;
lastChange = "2016-09-21 12:21:56 +0000";
layers = (
{
background = {
paths = (
{
closed = 1;
nodes = (
"86 0 LINE",
"376 676 LINE",
"349 676 LINE",
"639 0 LINE",
"696 0 LINE",
"388 712 LINE",
"337 712 LINE",
"29 0 LINE"
);
},
{
closed = 1;
nodes = (
"572 193 LINE",
"554 241 LINE",
"173 241 LINE",
"157 193 LINE"
);
},
{
closed = 1;
nodes = (
"417 682 OFFCURVE",
"462 724 OFFCURVE",
"462 779 CURVE SMOOTH",
"462 833 OFFCURVE",
"417 876 OFFCURVE",
"363 876 CURVE SMOOTH",
"308 876 OFFCURVE",
"264 833 OFFCURVE",
"264 779 CURVE SMOOTH",
"264 724 OFFCURVE",
"308 682 OFFCURVE",
"363 682 CURVE SMOOTH"
);
},
{
closed = 1;
nodes = (
"333 726 OFFCURVE",
"312 749 OFFCURVE",
"312 779 CURVE SMOOTH",
"312 808 OFFCURVE",
"333 831 OFFCURVE",
"363 831 CURVE SMOOTH",
"392 831 OFFCURVE",
"413 808 OFFCURVE",
"413 779 CURVE SMOOTH",
"413 749 OFFCURVE",
"392 726 OFFCURVE",
"363 726 CURVE SMOOTH"
);
},
{
closed = 1;
nodes = (
"578 948 LINE",
"504 948 LINE",
"402 843 LINE",
"435 826 LINE"
);
}
);
};
layerId = "9E718F8A-2CEA-4931-B05D-987794BD97DA";
paths = (
{
closed = 1;
nodes = (
"69 0 LINE",
"410 676 LINE",
"383 676 LINE",
"620 0 LINE",
"677 0 LINE",
"424 712 LINE",
"374 712 LINE",
"10 0 LINE"
);
},
{
closed = 1;
nodes = (
"568 193 LINE",
"554 241 LINE",
"173 241 LINE",
"153 193 LINE"
);
},
{
closed = 1;
nodes = (
"457 682 OFFCURVE",
"501 724 OFFCURVE",
"501 779 CURVE SMOOTH",
"501 833 OFFCURVE",
"457 876 OFFCURVE",
"402 876 CURVE SMOOTH",
"347 876 OFFCURVE",
"303 833 OFFCURVE",
"303 779 CURVE SMOOTH",
"303 724 OFFCURVE",
"347 682 OFFCURVE",
"402 682 CURVE SMOOTH"
);
},
{
closed = 1;
nodes = (
"373 726 OFFCURVE",
"351 749 OFFCURVE",
"351 779 CURVE SMOOTH",
"351 808 OFFCURVE",
"373 831 OFFCURVE",
"402 831 CURVE SMOOTH",
"431 831 OFFCURVE",
"452 808 OFFCURVE",
"452 779 CURVE SMOOTH",
"452 749 OFFCURVE",
"431 726 OFFCURVE",
"402 726 CURVE SMOOTH"
);
},
{
closed = 1;
nodes = (
"635 948 LINE",
"558 948 LINE",
"449 843 LINE",
"481 826 LINE"
);
}
);
width = 725;
},
{
background = {
paths = (
{
closed = 1;
nodes = (
"150 0 LINE",
"401 583 LINE",
"363 583 LINE",
"613 0 LINE",
"774 0 LINE",
"445 712 LINE",
"315 712 LINE",
"-13 0 LINE"
);
},
{
closed = 1;
nodes = (
"615 156 LINE",
"553 279 LINE",
"198 279 LINE",
"136 156 LINE"
);
},
{
closed = 1;
nodes = (
"442 677 OFFCURVE",
"492 724 OFFCURVE",
"492 786 CURVE SMOOTH",
"492 847 OFFCURVE",
"442 895 OFFCURVE",
"381 895 CURVE SMOOTH",
"319 895 OFFCURVE",
"270 847 OFFCURVE",
"270 786 CURVE SMOOTH",
"270 724 OFFCURVE",
"319 677 OFFCURVE",
"381 677 CURVE SMOOTH"
);
},
{
closed = 1;
nodes = (
"356 740 OFFCURVE",
"337 761 OFFCURVE",
"337 786 CURVE SMOOTH",
"337 811 OFFCURVE",
"356 831 OFFCURVE",
"381 831 CURVE SMOOTH",
"406 831 OFFCURVE",
"424 811 OFFCURVE",
"424 786 CURVE SMOOTH",
"424 761 OFFCURVE",
"406 740 OFFCURVE",
"381 740 CURVE SMOOTH"
);
},
{
closed = 1;
nodes = (
"635 955 LINE",
"491 955 LINE",
"411 868 LINE",
"475 822 LINE"
);
}
);
};
layerId = "E1B555A7-F4E1-459C-9C1A-AE952106EEF9";
paths = (
{
closed = 1;
nodes = (
"134 0 LINE",
"429 583 LINE",
"391 583 LINE",
"597 0 LINE",
"754 0 LINE",
"482 712 LINE",
"351 712 LINE",
"-32 0 LINE"
);
},
{
closed = 1;
nodes = (
"608 156 LINE",
"557 279 LINE",
"201 279 LINE",
"129 156 LINE"
);
},
{
closed = 1;
nodes = (
"485 677 OFFCURVE",
"534 724 OFFCURVE",
"534 786 CURVE SMOOTH",
"534 847 OFFCURVE",
"485 895 OFFCURVE",
"423 895 CURVE SMOOTH",
"362 895 OFFCURVE",
"312 847 OFFCURVE",
"312 786 CURVE SMOOTH",
"312 724 OFFCURVE",
"362 677 OFFCURVE",
"423 677 CURVE SMOOTH"
);
},
{
closed = 1;
nodes = (
"398 740 OFFCURVE",
"380 761 OFFCURVE",
"380 786 CURVE SMOOTH",
"380 811 OFFCURVE",
"398 831 OFFCURVE",
"423 831 CURVE SMOOTH",
"448 831 OFFCURVE",
"467 811 OFFCURVE",
"467 786 CURVE SMOOTH",
"467 761 OFFCURVE",
"448 740 OFFCURVE",
"423 740 CURVE SMOOTH"
);
},
{
closed = 1;
nodes = (
"695 955 LINE",
"542 955 LINE",
"461 868 LINE",
"520 822 LINE"
);
}
);
width = 761;
}
);
leftKerningGroup = A;
leftMetricsKey = A;
widthMetricsKey = A;
rightKerningGroup = A;
unicode = 01FA;
},
{
glyphname = AE;
lastChange = "2016-09-21 12:21:56 +0000";
layers = (
{
anchors = (
{
name = bottom;
position = "{502, 0}";
},
{
name = top;
position = "{612, 712}";
}
);
background = {
anchors = (
{
name = bottom;
position = "{483, 0}";
},
{
name = top;
position = "{537, 712}";
}
);
paths = (
{
closed = 1;
nodes = (
"924 0 LINE",
"928 49 LINE",
"608 49 LINE",
"522 689 LINE",
"513 663 LINE",
"977 663 LINE",
"980 712 LINE",
"473 712 LINE",
"-10 0 LINE",
"53 0 LINE",
"503 672 LINE",
"475 672 LINE",
"564 0 LINE"
);
},
{
closed = 1;
nodes = (
"561 193 LINE",
"545 241 LINE",
"174 241 LINE",
"154 193 LINE"
);
},
{
closed = 1;
nodes = (
"930 337 LINE",
"934 386 LINE",
"554 386 LINE",
"550 337 LINE"
);
}
);
};
layerId = "9E718F8A-2CEA-4931-B05D-987794BD97DA";
paths = (
{
closed = 1;
nodes = (
"53 0 LINE",
"503 672 LINE",
"475 663 LINE",
"977 663 LINE",
"980 712 LINE",
"473 712 LINE",
"-10 0 LINE"
);
},
{
closed = 1;
nodes = (
"571 193 LINE",
"566 241 LINE",
"164 241 LINE",
"143 193 LINE"
);
},
{
closed = 1;
nodes = (
"924 0 LINE",
"928 49 LINE",
"592 49 LINE",
"582 688 LINE",
"533 688 LINE",
"543 0 LINE"
);
},
{
closed = 1;
nodes = (
"930 337 LINE",
"934 386 LINE",
"575 386 LINE",
"571 337 LINE"
);
}
);
width = 998;
},
{
anchors = (
{
name = bottom;
position = "{491, 0}";
},
{
name = top;
position = "{546, 712}";
}
);
background = {
anchors = (
{
name = top;
position = "{546, 712}";
}
);
paths = (
{
closed = 1;
nodes = (
"955 0 LINE",
"966 126 LINE",
"680 126 LINE",
"608 623 LINE",
"570 586 LINE",
"1001 586 LINE",
"1011 712 LINE",
"452 712 LINE",
"-53 0 LINE",
"127 0 LINE",
"513 577 LINE",
"469 577 LINE",
"551 0 LINE"
);
},
{
closed = 1;
nodes = (
"585 156 LINE",
"559 279 LINE",
"203 279 LINE",
"130 156 LINE"
);
},
{
closed = 1;
nodes = (
"958 299 LINE",
"969 425 LINE",
"587 425 LINE",
"577 299 LINE"
);
}
);
};
layerId = "E1B555A7-F4E1-459C-9C1A-AE952106EEF9";
paths = (
{
closed = 1;
nodes = (
"127 0 LINE",
"533 607 LINE",
"499 586 LINE",
"1002 586 LINE",
"1011 712 LINE",
"452 712 LINE",
"-53 0 LINE"
);
},
{
closed = 1;
nodes = (
"585 156 LINE",
"559 279 LINE",
"203 279 LINE",
"130 156 LINE"
);
},
{
closed = 1;
nodes = (
"955 0 LINE",
"966 126 LINE",
"679 126 LINE",
"683 639 LINE",
"536 639 LINE",
"527 0 LINE"
);
},
{
closed = 1;
nodes = (
"958 299 LINE",
"969 425 LINE",
"587 425 LINE",
"577 299 LINE"
);
}
);
width = 1012;
}
);
leftKerningGroup = A;
rightKerningGroup = E;
rightMetricsKey = E;
unicode = 00C6;
userData = {
com.typemytype.robofont.layerData = {
b = {
anchors = (
);
components = (
);
contours = (
);
lib = {
};
name = AE;
unicodes = (
);
width = 1976;
};
};
};
},
{
glyphname = B;
lastChange = "2016-09-21 12:21:56 +0000";
layers = (
{
anchors = (
{
name = bottom;
position = "{322, 0}";
},
{
name = top;
position = "{377, 712}";
}
);
background = {
anchors = (
{
name = bottom;
position = "{341, 0}";
},
{
name = top;
position = "{396, 712}";
}
);
paths = (
{
closed = 1;
nodes = (
"375 0 LINE SMOOTH",
"523 0 OFFCURVE",
"607 67 OFFCURVE",
"607 193 CURVE SMOOTH",
"607 288 OFFCURVE",
"553 351 OFFCURVE",
"464 368 CURVE",
"464 360 LINE",
"542 384 OFFCURVE",
"591 442 OFFCURVE",
"591 525 CURVE SMOOTH",
"591 646 OFFCURVE",
"508 712 OFFCURVE",
"364 712 CURVE SMOOTH",
"94 712 LINE",
"94 0 LINE"
);
},
{
closed = 1;
nodes = (
"148 337 LINE",
"372 337 LINE SMOOTH",
"492 337 OFFCURVE",
"551 287 OFFCURVE",
"551 190 CURVE SMOOTH",
"551 94 OFFCURVE",
"494 48 OFFCURVE",
"372 48 CURVE SMOOTH",
"148 48 LINE"
);
},
{
closed = 1;
nodes = (
"148 664 LINE",
"357 664 LINE SMOOTH",
"477 664 OFFCURVE",
"535 618 OFFCURVE",
"535 528 CURVE SMOOTH",
"535 436 OFFCURVE",
"474 386 OFFCURVE",
"357 386 CURVE SMOOTH",
"148 386 LINE"
);
}
);
};
layerId = "9E718F8A-2CEA-4931-B05D-987794BD97DA";
paths = (
{
closed = 1;
nodes = (
"366 0 LINE SMOOTH",
"517 0 OFFCURVE",
"604 76 OFFCURVE",
"604 206 CURVE SMOOTH",
"604 293 OFFCURVE",
"557 351 OFFCURVE",
"464 367 CURVE",
"475 360 LINE",
"568 387 OFFCURVE",
"614 452 OFFCURVE",
"614 538 CURVE SMOOTH",
"614 650 OFFCURVE",
"538 712 OFFCURVE",
"390 712 CURVE SMOOTH",
"130 712 LINE",
"75 0 LINE"
);
},
{
closed = 1;
nodes = (
"182 664 LINE",
"390 664 LINE SMOOTH",
"502 664 OFFCURVE",
"559 621 OFFCURVE",
"559 538 CURVE SMOOTH",
"559 439 OFFCURVE",
"491 386 OFFCURVE",
"378 386 CURVE SMOOTH",
"147 386 LINE",
"143 337 LINE",
"379 337 LINE SMOOTH",
"494 337 OFFCURVE",
"548 290 OFFCURVE",
"548 200 CURVE SMOOTH",
"548 99 OFFCURVE",
"484 48 OFFCURVE",
"367 48 CURVE SMOOTH",
"133 48 LINE"
);
}
);
width = 675;
},
{
anchors = (
{
name = bottom;
position = "{334, 0}";
},
{
name = top;
position = "{390, 712}";
}
);
background = {
paths = (
{
closed = 1;
nodes = (
"412 0 LINE SMOOTH",
"567 0 OFFCURVE",
"662 75 OFFCURVE",
"662 195 CURVE SMOOTH",
"662 287 OFFCURVE",
"610 351 OFFCURVE",
"518 372 CURVE",
"518 364 LINE",
"597 387 OFFCURVE",
"643 448 OFFCURVE",
"643 527 CURVE SMOOTH",
"643 641 OFFCURVE",
"550 712 OFFCURVE",
"402 712 CURVE SMOOTH",
"71 712 LINE",
"71 0 LINE"
);
},
{
closed = 1;
nodes = (
"229 300 LINE",
"393 300 LINE SMOOTH",
"475 300 OFFCURVE",
"509 273 OFFCURVE",
"509 211 CURVE SMOOTH",
"509 150 OFFCURVE",
"475 124 OFFCURVE",
"393 124 CURVE SMOOTH",
"229 124 LINE"
);
},
{
closed = 1;
nodes = (
"229 588 LINE",
"375 588 LINE SMOOTH",
"453 588 OFFCURVE",
"490 562 OFFCURVE",
"490 505 CURVE SMOOTH",
"490 450 OFFCURVE",
"453 424 OFFCURVE",
"375 424 CURVE SMOOTH",
"229 424 LINE"
);
}
);
};
layerId = "E1B555A7-F4E1-459C-9C1A-AE952106EEF9";
paths = (
{
closed = 1;
nodes = (
"397 0 LINE SMOOTH",
"554 0 OFFCURVE",
"659 72 OFFCURVE",
"659 203 CURVE SMOOTH",
"659 285 OFFCURVE",
"612 352 OFFCURVE",
"528 370 CURVE",
"527 362 LINE",
"621 392 OFFCURVE",
"667 449 OFFCURVE",
"667 533 CURVE SMOOTH",
"667 637 OFFCURVE",
"588 712 OFFCURVE",
"428 712 CURVE SMOOTH",
"107 712 LINE",
"52 0 LINE"
);
},
{
closed = 1;
nodes = (
"257 588 LINE",
"401 588 LINE SMOOTH",
"478 588 OFFCURVE",
"510 560 OFFCURVE",
"510 509 CURVE SMOOTH",
"510 448 OFFCURVE",
"473 424 OFFCURVE",
"389 424 CURVE SMOOTH",
"227 424 LINE",
"217 300 LINE",
"396 300 LINE SMOOTH",
"474 300 OFFCURVE",
"507 271 OFFCURVE",
"507 214 CURVE SMOOTH",
"507 148 OFFCURVE",
"469 124 OFFCURVE",
"384 124 CURVE SMOOTH",
"220 124 LINE"
);
}
);
width = 698;
}
);
leftKerningGroup = H;
leftMetricsKey = H;
rightKerningGroup = B;
unicode = 0042;
userData = {
anchors = (
);
b = {
};
com.typemytype.robofont.layerData = {
b = {
anchors = (
);
components = (
);
contours = (
{
points = (
{
segmentType = curve;
smooth = 1;
x = 266;
y = 0;
},
{
segmentType = line;
smooth = 1;
x = 1035;
y = 0;
},
{
smooth = 0;
x = 1084;
y = 0;
},
{
smooth = 0;
x = 1108;
y = 36;
},
{
segmentType = curve;
smooth = 1;
x = 1108;
y = 73;
},
{
smooth = 0;
x = 1108;
y = 109;
},
{
smooth = 0;
x = 1084;
y = 145;
},
{
segmentType = curve;
smooth = 1;
x = 1035;
y = 145;
},
{
segmentType = line;
smooth = 0;
x = 353;
y = 145;
},
{
segmentType = line;
smooth = 0;
x = 353;
y = 662;
},
{
segmentType = line;
smooth = 1;
x = 975;
y = 662;
},
{
smooth = 0;
x = 1024;
y = 662;
},
{
smooth = 0;
x = 1049;
y = 698;
},
{
segmentType = curve;
smooth = 1;
x = 1049;
y = 734;
},
{
smooth = 0;
x = 1049;
y = 770;
},
{
smooth = 0;
x = 1026;
y = 806;
},
{
segmentType = curve;
smooth = 1;
x = 975;
y = 806;
},
{
segmentType = line;
smooth = 0;
x = 353;
y = 806;
},
{
segmentType = line;
smooth = 0;
x = 353;
y = 1281;
},
{
segmentType = line;
smooth = 1;
x = 1007;
y = 1281;
},
{
smooth = 0;
x = 1056;
y = 1281;
},
{
smooth = 0;
x = 1080;
y = 1317;
},
{
segmentType = curve;
smooth = 1;
x = 1080;
y = 1354;
},
{
smooth = 0;
x = 1080;
y = 1390;
},
{
smooth = 0;
x = 1056;
y = 1426;
},
{
segmentType = curve;
smooth = 1;
x = 1007;
y = 1426;
},
{
segmentType = line;
smooth = 1;
x = 261;
y = 1426;
},
{
smooth = 0;
x = 213;
y = 1426;
},
{
smooth = 0;
x = 178;
y = 1383;
},
{
segmentType = curve;
smooth = 1;
x = 178;
y = 1340;
},
{
segmentType = line;
smooth = 1;
x = 178;
y = 86;
},
{
smooth = 0;
x = 178;
y = 41;
},
{
smooth = 0;
x = 222;
y = 0;
}
);
}
);
lib = {
};
name = B;
unicodes = (
);
width = 1292;
};
};
components = (
);
contours = {
};
lib = {
};
name = B;
points = {
};
segmentType = curve;
unicodes = (
);
width = 1395;
x = 676;
y = 1260;
};
},
{
glyphname = C;
lastChange = "2016-09-21 12:21:56 +0000";
layers = (
{
anchors = (
{
name = bottom;
position = "{367, 0}";
},
{
name = top;
position = "{423, 712}";
}
);
background = {
anchors = (
{
name = bottom;
position = "{992, 0}";
},
{
name = top;
position = "{1048, 712}";
}
);
paths = (
{
closed = 1;
nodes = (
"485 -8 OFFCURVE",
"568 23 OFFCURVE",
"629 86 CURVE",
"605 130 LINE",
"535 67 OFFCURVE",
"471 42 OFFCURVE",
"387 42 CURVE SMOOTH",
"219 42 OFFCURVE",
"123 157 OFFCURVE",
"123 357 CURVE SMOOTH",
"123 556 OFFCURVE",
"220 670 OFFCURVE",
"387 670 CURVE SMOOTH",
"471 670 OFFCURVE",
"535 645 OFFCURVE",
"605 582 CURVE",
"629 626 LINE",
"568 689 OFFCURVE",
"485 720 OFFCURVE",
"387 720 CURVE SMOOTH",
"189 720 OFFCURVE",
"66 584 OFFCURVE",
"66 357 CURVE SMOOTH",
"66 129 OFFCURVE",
"189 -8 OFFCURVE",
"387 -8 CURVE SMOOTH"
);
}
);
};
layerId = "9E718F8A-2CEA-4931-B05D-987794BD97DA";
paths = (
{
closed = 1;
nodes = (
"469 -8 OFFCURVE",
"551 24 OFFCURVE",
"617 86 CURVE",
"596 130 LINE",
"528 67 OFFCURVE",
"453 42 OFFCURVE",
"380 42 CURVE SMOOTH",
"221 42 OFFCURVE",
"131 143 OFFCURVE",
"131 323 CURVE SMOOTH",
"131 539 OFFCURVE",
"232 670 OFFCURVE",
"405 670 CURVE SMOOTH",
"503 670 OFFCURVE",
"567 644 OFFCURVE",
"631 583 CURVE",
"660 626 LINE",
"600 689 OFFCURVE",
"512 720 OFFCURVE",
"407 720 CURVE SMOOTH",
"201 720 OFFCURVE",
"74 566 OFFCURVE",
"74 324 CURVE SMOOTH",
"74 117 OFFCURVE",
"190 -8 OFFCURVE",
"367 -8 CURVE SMOOTH"
);
}
);
width = 684;
},
{
anchors = (
{
name = bottom;
position = "{380, 0}";
},
{
name = top;
position = "{435, 712}";
}
);
background = {
paths = (
{
closed = 1;
nodes = (
"500 -9 OFFCURVE",
"592 21 OFFCURVE",
"647 72 CURVE",
"596 188 LINE",
"533 141 OFFCURVE",
"474 121 OFFCURVE",
"409 121 CURVE SMOOTH",
"285 121 OFFCURVE",
"215 202 OFFCURVE",
"215 357 CURVE SMOOTH",
"215 511 OFFCURVE",
"285 591 OFFCURVE",
"409 591 CURVE SMOOTH",
"474 591 OFFCURVE",
"533 571 OFFCURVE",
"596 524 CURVE",
"647 640 LINE",
"592 691 OFFCURVE",
"500 721 OFFCURVE",
"406 721 CURVE SMOOTH",
"186 721 OFFCURVE",
"49 577 OFFCURVE",
"49 357 CURVE SMOOTH",
"49 136 OFFCURVE",
"186 -9 OFFCURVE",
"406 -9 CURVE SMOOTH"
);
}
);
};
layerId = "E1B555A7-F4E1-459C-9C1A-AE952106EEF9";
paths = (
{
closed = 1;
nodes = (
"490 -9 OFFCURVE",
"583 22 OFFCURVE",
"634 72 CURVE",
"592 188 LINE",
"522 142 OFFCURVE",
"461 121 OFFCURVE",
"402 121 CURVE SMOOTH",
"286 121 OFFCURVE",
"223 195 OFFCURVE",
"223 332 CURVE SMOOTH",
"223 492 OFFCURVE",
"300 591 OFFCURVE",
"438 591 CURVE SMOOTH",
"504 591 OFFCURVE",
"559 571 OFFCURVE",
"618 524 CURVE",
"679 640 LINE",
"615 693 OFFCURVE",
"528 721 OFFCURVE",
"431 721 CURVE SMOOTH",
"205 721 OFFCURVE",
"58 569 OFFCURVE",
"58 332 CURVE SMOOTH",
"58 122 OFFCURVE",
"187 -9 OFFCURVE",
"396 -9 CURVE SMOOTH"
);
}
);
width = 685;
}
);
leftKerningGroup = O;
leftMetricsKey = O;
rightKerningGroup = C;
unicode = 0043;
userData = {
anchors = (
);
b = {
};
com.typemytype.robofont.layerData = {
b = {
anchors = (
);
components = (
);
contours = (
);
lib = {
};
name = C;
unicodes = (
);
width = 1353.8900;
};
};
components = (
);
contours = (
);
lib = {
};
name = C;
unicodes = (
);
width = 1354;
};
},
{
glyphname = D;
lastChange = "2016-09-21 12:21:56 +0000";
layers = (
{
anchors = (
{
name = bottom;
position = "{349, 0}";
},
{
name = center;
position = "{378, 357}";
},
{
name = top;
position = "{404, 712}";
}
);
background = {
paths = (
{
closed = 1;
nodes = (
"319 0 LINE SMOOTH",
"543 0 OFFCURVE",
"671 128 OFFCURVE",
"671 357 CURVE SMOOTH",
"671 585 OFFCURVE",
"544 712 OFFCURVE",
"319 712 CURVE SMOOTH",
"94 712 LINE",
"94 0 LINE"
);
},
{
closed = 1;
nodes = (
"148 664 LINE",
"317 664 LINE SMOOTH",
"514 664 OFFCURVE",
"613 561 OFFCURVE",
"613 357 CURVE SMOOTH",
"613 153 OFFCURVE",
"513 48 OFFCURVE",
"317 48 CURVE SMOOTH",
"148 48 LINE"
);
}
);
};
guideLines = (
{
angle = 88.6493;
position = "{365, 357}";
}
);
layerId = "9E718F8A-2CEA-4931-B05D-987794BD97DA";
paths = (
{
closed = 1;
nodes = (
"326 0 LINE SMOOTH",
"553 0 OFFCURVE",
"680 146 OFFCURVE",
"680 387 CURVE SMOOTH",
"680 595 OFFCURVE",
"565 712 OFFCURVE",
"350 712 CURVE SMOOTH",
"130 712 LINE",
"75 0 LINE"
);
},
{
closed = 1;
nodes = (
"182 664 LINE",
"349 664 LINE SMOOTH",
"533 664 OFFCURVE",
"622 569 OFFCURVE",
"622 388 CURVE SMOOTH",
"622 173 OFFCURVE",
"522 48 OFFCURVE",
"325 48 CURVE SMOOTH",
"133 48 LINE"
);
}
);
width = 737;
},
{
anchors = (
{
name = bottom;
position = "{368, 0}";
},
{
name = center;
position = "{396, 357}";
},
{
name = top;
position = "{423, 712}";
}
);
background = {
paths = (
{
closed = 1;
nodes = (
"349 0 LINE SMOOTH",
"586 0 OFFCURVE",
"724 132 OFFCURVE",
"724 357 CURVE SMOOTH",
"724 580 OFFCURVE",
"585 712 OFFCURVE",
"349 712 CURVE SMOOTH",
"71 712 LINE",
"71 0 LINE"
);
},
{
closed = 1;
nodes = (
"233 581 LINE",
"338 581 LINE SMOOTH",
"488 581 OFFCURVE",
"562 507 OFFCURVE",
"562 357 CURVE SMOOTH",
"562 206 OFFCURVE",
"488 131 OFFCURVE",
"338 131 CURVE SMOOTH",
"233 131 LINE"
);
}
);
};
layerId = "E1B555A7-F4E1-459C-9C1A-AE952106EEF9";
paths = (
{
closed = 1;
nodes = (
"342 0 LINE SMOOTH",
"589 0 OFFCURVE",
"733 139 OFFCURVE",
"733 380 CURVE SMOOTH",
"733 585 OFFCURVE",
"600 712 OFFCURVE",
"385 712 CURVE SMOOTH",
"107 712 LINE",
"52 0 LINE"
);
},
{
closed = 1;
nodes = (
"260 581 LINE",
"364 581 LINE SMOOTH",
"499 581 OFFCURVE",
"571 511 OFFCURVE",
"571 381 CURVE SMOOTH",
"571 211 OFFCURVE",
"492 131 OFFCURVE",
"328 131 CURVE SMOOTH",
"224 131 LINE"
);
}
);
width = 774;
}
);
leftKerningGroup = H;
leftMetricsKey = I;
rightKerningGroup = O;
rightMetricsKey = O;
unicode = 0044;
userData = {
anchors = (
);
b = {
};
com.typemytype.robofont.layerData = {
b = {
anchors = (
);
components = (
);
contours = (
{
points = (
{
segmentType = curve;
smooth = 1;
x = 266;
y = 0;
},
{
segmentType = line;
smooth = 1;
x = 1035;
y = 0;
},
{
smooth = 0;
x = 1084;
y = 0;
},
{
smooth = 0;
x = 1108;
y = 34;
},
{
segmentType = curve;
smooth = 1;
x = 1108;
y = 71;
},
{
smooth = 0;
x = 1108;
y = 107;
},
{
smooth = 0;
x = 1084;
y = 141;
},
{
segmentType = curve;
smooth = 1;
x = 1035;
y = 141;
},
{
segmentType = line;
smooth = 0;
x = 356;
y = 141;
},
{
segmentType = line;
smooth = 0;
x = 356;
y = 665;
},
{
segmentType = line;
smooth = 1;
x = 975;
y = 665;
},
{
smooth = 0;
x = 1024;
y = 665;
},
{
smooth = 0;
x = 1049;
y = 698;
},
{
segmentType = curve;
smooth = 1;
x = 1049;
y = 734;
},
{
smooth = 0;
x = 1049;
y = 770;
},
{
smooth = 0;
x = 1026;
y = 803;
},
{
segmentType = curve;
smooth = 1;
x = 975;
y = 803;
},
{
segmentType = line;
smooth = 0;
x = 356;
y = 803;
},
{
segmentType = line;
smooth = 0;
x = 356;
y = 1285;
},
{
segmentType = line;
smooth = 1;
x = 1007;
y = 1285;
},
{
smooth = 0;
x = 1056;
y = 1285;
},
{
smooth = 0;
x = 1080;
y = 1319;
},
{
segmentType = curve;
smooth = 1;
x = 1080;
y = 1356;
},
{
smooth = 0;
x = 1080;
y = 1392;
},
{
smooth = 0;
x = 1056;
y = 1426;
},
{
segmentType = curve;
smooth = 1;
x = 1007;
y = 1426;
},
{
segmentType = line;
smooth = 1;
x = 261;
y = 1426;
},
{
smooth = 0;
x = 213;
y = 1426;
},
{
smooth = 0;
x = 178;
y = 1383;
},
{
segmentType = curve;
smooth = 1;
x = 178;
y = 1340;
},
{
segmentType = line;
smooth = 1;
x = 178;
y = 86;
},
{
smooth = 0;
x = 178;
y = 41;
},
{
smooth = 0;
x = 222;
y = 0;
}
);
}
);
lib = {
};
name = D;
unicodes = (
);
width = 1499;
};
};
components = (
);
contours = (
);
lib = {
};
name = D;
unicodes = (
);
width = 1535;
};
},
{
glyphname = Eth;
lastChange = "2016-09-21 12:21:56 +0000";
layers = (
{
background = {
paths = (
{
closed = 1;
nodes = (
"352 338 LINE",
"352 385 LINE",
"5 385 LINE",
"5 338 LINE"
);
},
{
closed = 1;
nodes = (
"326 0 LINE SMOOTH",
"550 0 OFFCURVE",
"678 128 OFFCURVE",
"678 357 CURVE SMOOTH",
"678 585 OFFCURVE",
"551 712 OFFCURVE",
"326 712 CURVE SMOOTH",
"101 712 LINE",
"101 0 LINE"
);
},
{
closed = 1;
nodes = (
"156 664 LINE",
"324 664 LINE SMOOTH",
"521 664 OFFCURVE",
"620 561 OFFCURVE",
"620 357 CURVE SMOOTH",
"620 153 OFFCURVE",
"520 48 OFFCURVE",
"324 48 CURVE SMOOTH",
"156 48 LINE"
);
}
);
};
layerId = "9E718F8A-2CEA-4931-B05D-987794BD97DA";
paths = (
{
closed = 1;
nodes = (
"360 338 LINE",
"364 385 LINE",
"16 385 LINE",
"12 338 LINE"
);
},
{
closed = 1;
nodes = (
"333 0 LINE SMOOTH",
"561 0 OFFCURVE",
"687 146 OFFCURVE",
"687 387 CURVE SMOOTH",
"687 595 OFFCURVE",
"572 712 OFFCURVE",
"358 712 CURVE SMOOTH",
"137 712 LINE",
"82 0 LINE"
);
},
{
closed = 1;
nodes = (
"189 664 LINE",
"357 664 LINE SMOOTH",
"540 664 OFFCURVE",
"629 569 OFFCURVE",
"629 388 CURVE SMOOTH",
"629 173 OFFCURVE",
"529 48 OFFCURVE",
"332 48 CURVE SMOOTH",
"140 48 LINE"
);
}
);
width = 744;
},
{
background = {
paths = (
{
closed = 1;
nodes = (
"450 298 LINE",
"450 421 LINE",
"15 421 LINE",
"15 298 LINE"
);
},
{
closed = 1;
nodes = (
"380 0 LINE SMOOTH",
"616 0 OFFCURVE",
"754 132 OFFCURVE",
"754 357 CURVE SMOOTH",
"754 580 OFFCURVE",
"615 712 OFFCURVE",
"380 712 CURVE SMOOTH",
"101 712 LINE",
"101 0 LINE"
);
},
{
closed = 1;
nodes = (
"264 581 LINE",
"369 581 LINE SMOOTH",
"518 581 OFFCURVE",
"592 507 OFFCURVE",
"592 357 CURVE SMOOTH",
"592 206 OFFCURVE",
"518 131 OFFCURVE",
"369 131 CURVE SMOOTH",
"264 131 LINE"
);
}
);
};
layerId = "E1B555A7-F4E1-459C-9C1A-AE952106EEF9";
paths = (
{
closed = 1;
nodes = (
"455 298 LINE",
"465 421 LINE",
"29 421 LINE",
"19 298 LINE"
);
},
{
closed = 1;
nodes = (
"373 0 LINE SMOOTH",
"619 0 OFFCURVE",
"764 139 OFFCURVE",
"764 380 CURVE SMOOTH",
"764 585 OFFCURVE",
"630 712 OFFCURVE",
"415 712 CURVE SMOOTH",
"137 712 LINE",
"82 0 LINE"
);
},
{
closed = 1;
nodes = (
"290 581 LINE",
"394 581 LINE SMOOTH",
"529 581 OFFCURVE",
"601 511 OFFCURVE",
"601 381 CURVE SMOOTH",
"601 211 OFFCURVE",
"522 131 OFFCURVE",
"359 131 CURVE SMOOTH",
"255 131 LINE"
);
}
);
width = 805;
}
);
leftKerningGroup = H;
rightKerningGroup = O;
rightMetricsKey = O;
unicode = 00D0;
},
{
glyphname = E;
lastChange = "2016-09-21 12:21:56 +0000";
layers = (
{
anchors = (
{
name = bottom;
position = "{305, 0}";
},
{
name = ogonek;
position = "{492, 10}";
},
{
name = top;
position = "{361, 712}";
},
{
name = topleft;
position = "{63, 712}";
}
);
background = {
anchors = (
{
name = bottom;
position = "{324, 0}";
},
{
name = ogonek;
position = "{511, 10}";
},
{
name = top;
position = "{380, 712}";
},
{
name = topleft;
position = "{82, 712}";
}
);
paths = (
{
closed = 1;
nodes = (
"529 0 LINE",
"529 48 LINE",
"148 48 LINE",
"148 337 LINE",
"509 337 LINE",
"509 386 LINE",
"148 386 LINE",
"148 664 LINE",
"529 664 LINE",
"529 712 LINE",
"94 712 LINE",
"94 0 LINE"
);
}
);
};
guideLines = (
{
angle = 90;
position = "{478, 249}";
}
);
layerId = "9E718F8A-2CEA-4931-B05D-987794BD97DA";
paths = (
{
closed = 1;
nodes = (
"510 0 LINE",
"514 48 LINE",
"133 48 LINE",
"182 664 LINE",
"563 664 LINE",
"566 712 LINE",
"130 712 LINE",
"75 0 LINE"
);
},
{
closed = 1;
nodes = (
"516 337 LINE",
"520 386 LINE",
"147 386 LINE",
"143 337 LINE"
);
}
);
width = 584;
},
{
anchors = (
{
name = bottom;
position = "{315, 0}";
},
{
name = ogonek;
position = "{523, 10}";
},
{
name = top;
position = "{371, 712}";
},
{
name = topleft;
position = "{58, 712}";
}
);
background = {
anchors = (
{
name = bottom;
position = "{334, 0}";
},
{
name = ogonek;
position = "{542, 10}";
},
{
name = top;
position = "{390, 712}";
},
{
name = topleft;
position = "{77, 712}";
}
);
paths = (
{
closed = 1;
nodes = (
"564 0 LINE",
"564 126 LINE",
"228 126 LINE",
"228 299 LINE",
"543 299 LINE",
"543 425 LINE",
"228 425 LINE",
"228 586 LINE",
"564 586 LINE",
"564 712 LINE",
"70 712 LINE",
"70 0 LINE"
);
}
);
};
guideLines = (
{
angle = 90;
position = "{707, 613}";
}
);
layerId = "E1B555A7-F4E1-459C-9C1A-AE952106EEF9";
paths = (
{
closed = 1;
nodes = (
"544 0 LINE",
"554 126 LINE",
"219 126 LINE",
"256 586 LINE",
"591 586 LINE",
"601 712 LINE",
"107 712 LINE",
"51 0 LINE"
);
},
{
closed = 1;
nodes = (
"547 299 LINE",
"558 425 LINE",
"226 425 LINE",
"216 299 LINE"
);
}
);
width = 600;
}
);
leftKerningGroup = H;
leftMetricsKey = H;
rightKerningGroup = E;
unicode = 0045;
userData = {
anchors = (
);
b = {
};
com.typemytype.robofont.layerData = {
b = {
anchors = (
);
components = (
);
contours = (
);
lib = {
};
name = E;
unicodes = (
);
width = 1234;
};
};
components = (
);
contours = (
);
lib = {
};
name = E;
unicodes = (
);
width = 1258;
};
},
{
glyphname = Eogonek;
lastChange = "2016-09-21 12:21:56 +0000";
layers = (
{
anchors = (
{
name = top;
position = "{361, 712}";
}
);
background = {
anchors = (
{
name = top;
position = "{380, 712}";
}
);
paths = (
{
closed = 1;
nodes = (
"524 -143 OFFCURVE",
"502 -149 OFFCURVE",
"486 -149 CURVE SMOOTH",
"445 -149 OFFCURVE",
"417 -126 OFFCURVE",
"417 -83 CURVE SMOOTH",
"417 -36 OFFCURVE",
"449 0 OFFCURVE",
"516 0 CURVE SMOOTH",
"529 0 LINE",
"529 48 LINE",
"148 48 LINE",
"148 337 LINE",
"509 337 LINE",
"509 386 LINE",
"148 386 LINE",
"148 664 LINE",
"529 664 LINE",
"529 712 LINE",
"94 712 LINE",
"94 0 LINE",
"452 0 LINE",
"436 19 LINE",
"391 -5 OFFCURVE",
"367 -42 OFFCURVE",
"367 -89 CURVE SMOOTH",
"367 -149 OFFCURVE",
"412 -193 OFFCURVE",
"481 -193 CURVE SMOOTH",
"514 -193 OFFCURVE",
"542 -183 OFFCURVE",
"562 -170 CURVE",
"545 -131 LINE"
);
}
);
};
layerId = "9E718F8A-2CEA-4931-B05D-987794BD97DA";
paths = (
{
closed = 1;
nodes = (
"143 337 LINE",
"516 337 LINE",
"520 386 LINE",
"147 386 LINE"
);
},
{
closed = 1;
nodes = (
"182 664 LINE",
"563 664 LINE",
"566 712 LINE",
"130 712 LINE",
"75 0 LINE",
"433 0 LINE",
"414 19 LINE",
"368 -5 OFFCURVE",
"340 -44 OFFCURVE",
"340 -96 CURVE SMOOTH",
"340 -154 OFFCURVE",
"382 -193 OFFCURVE",
"448 -193 CURVE SMOOTH",
"480 -193 OFFCURVE",
"511 -182 OFFCURVE",
"529 -170 CURVE",
"516 -130 LINE",
"494 -143 OFFCURVE",
"471 -149 OFFCURVE",
"455 -149 CURVE SMOOTH",
"415 -149 OFFCURVE",
"392 -128 OFFCURVE",
"392 -86 CURVE SMOOTH",
"392 -40 OFFCURVE",
"421 0 OFFCURVE",
"497 0 CURVE SMOOTH",
"510 0 LINE",
"514 48 LINE",
"133 48 LINE"
);
}
);
width = 584;
},
{
anchors = (
{
name = top;
position = "{371, 712}";
}
);
background = {
anchors = (
{
name = top;
position = "{390, 712}";
}
);
paths = (
{
closed = 1;
nodes = (
"567 -114 OFFCURVE",
"548 -118 OFFCURVE",
"531 -118 CURVE SMOOTH",
"493 -118 OFFCURVE",
"472 -100 OFFCURVE",
"472 -65 CURVE SMOOTH",
"472 -25 OFFCURVE",
"499 0 OFFCURVE",
"541 0 CURVE SMOOTH",
"564 0 LINE",
"564 126 LINE",
"228 126 LINE",
"228 299 LINE",
"543 299 LINE",
"543 425 LINE",
"228 425 LINE",
"228 586 LINE",
"564 586 LINE",
"564 712 LINE",
"70 712 LINE",
"70 0 LINE",
"457 0 LINE",
"438 20 LINE",
"394 -5 OFFCURVE",
"372 -42 OFFCURVE",
"372 -88 CURVE SMOOTH",
"372 -153 OFFCURVE",
"425 -199 OFFCURVE",
"501 -199 CURVE SMOOTH",
"537 -199 OFFCURVE",
"573 -192 OFFCURVE",
"603 -179 CURVE",
"586 -106 LINE"
);
}
);
};
layerId = "E1B555A7-F4E1-459C-9C1A-AE952106EEF9";
paths = (
{
closed = 1;
nodes = (
"216 299 LINE",
"547 299 LINE",
"558 425 LINE",
"226 425 LINE"
);
},
{
closed = 1;
nodes = (
"256 586 LINE",
"590 586 LINE",
"600 712 LINE",
"107 712 LINE",
"51 0 LINE",
"437 0 LINE",
"421 20 LINE",
"370 -5 OFFCURVE",
"345 -46 OFFCURVE",
"345 -92 CURVE SMOOTH",
"345 -155 OFFCURVE",
"395 -199 OFFCURVE",
"474 -199 CURVE SMOOTH",
"506 -199 OFFCURVE",
"538 -192 OFFCURVE",
"570 -179 CURVE",
"559 -106 LINE",
"536 -114 OFFCURVE",
"518 -118 OFFCURVE",
"501 -118 CURVE SMOOTH",
"469 -118 OFFCURVE",
"447 -100 OFFCURVE",
"447 -68 CURVE SMOOTH",
"447 -28 OFFCURVE",
"480 0 OFFCURVE",
"522 0 CURVE SMOOTH",
"544 0 LINE",
"554 126 LINE",
"219 126 LINE"
);
}
);
width = 600;
}
);
leftKerningGroup = H;
leftMetricsKey = E;
widthMetricsKey = E;
rightKerningGroup = E;
unicode = 0118;
userData = {
com.typemytype.robofont.layerData = {
b = {
anchors = (
);
components = (
);
contours = (
);
lib = {
};
name = Eogonek;
unicodes = (
);
width = 1234;
};
};
};
},
{
glyphname = F;
lastChange = "2016-09-21 12:21:56 +0000";
layers = (
{
anchors = (
{
name = bottom;
position = "{290, 0}";
},
{
name = top;
position = "{324, 712}";
}
);
background = {
anchors = (
{
name = bottom;
position = "{309, 0}";
},
{
name = top;
position = "{343, 712}";
}
);
paths = (
{
closed = 1;
nodes = (
"148 0 LINE",
"148 337 LINE",
"499 337 LINE",
"499 386 LINE",
"148 386 LINE",
"148 664 LINE",
"519 664 LINE",
"519 712 LINE",
"94 712 LINE",
"94 0 LINE"
);
}
);
};
layerId = "9E718F8A-2CEA-4931-B05D-987794BD97DA";
paths = (
{
closed = 1;
nodes = (
"143 337 LINE",
"506 337 LINE",
"510 386 LINE",
"147 386 LINE"
);
},
{
closed = 1;
nodes = (
"182 664 LINE",
"552 664 LINE",
"556 712 LINE",
"130 712 LINE",
"75 0 LINE",
"129 0 LINE"
);
}
);
width = 557;
},
{
anchors = (
{
name = bottom;
position = "{300, 0}";
},
{
name = top;
position = "{327, 712}";
}
);
background = {
anchors = (
{
name = bottom;
position = "{319, 0}";
},
{
name = top;
position = "{346, 712}";
}
);
paths = (
{
closed = 1;
nodes = (
"230 0 LINE",
"230 298 LINE",
"533 298 LINE",
"533 426 LINE",
"230 426 LINE",
"230 584 LINE",
"553 584 LINE",
"553 712 LINE",
"70 712 LINE",
"70 0 LINE"
);
}
);
};
layerId = "E1B555A7-F4E1-459C-9C1A-AE952106EEF9";
paths = (
{
closed = 1;
nodes = (
"218 298 LINE",
"537 298 LINE",
"547 426 LINE",
"228 426 LINE"
);
},
{
closed = 1;
nodes = (
"258 584 LINE",
"580 584 LINE",
"590 712 LINE",
"107 712 LINE",
"51 0 LINE",
"211 0 LINE"
);
}
);
width = 579;
}
);
leftKerningGroup = H;
leftMetricsKey = H;
rightKerningGroup = F;
unicode = 0046;
userData = {
anchors = (
);
b = {
};
com.typemytype.robofont.layerData = {
b = {
anchors = (
);
components = (
);
contours = (
{
points = (
{
segmentType = curve;
smooth = 1;
x = 266;
y = 0;
},
{
segmentType = line;
smooth = 1;
x = 1035;
y = 0;
},
{
smooth = 0;
x = 1084;
y = 0;
},
{
smooth = 0;
x = 1108;
y = 34;
},
{
segmentType = curve;
smooth = 1;
x = 1108;
y = 71;
},
{
smooth = 0;
x = 1108;
y = 107;
},
{
smooth = 0;
x = 1084;
y = 141;
},
{
segmentType = curve;
smooth = 1;
x = 1035;
y = 141;
},
{
segmentType = line;
smooth = 0;
x = 353;
y = 141;
},
{
segmentType = line;
smooth = 0;
x = 353;
y = 665;
},
{
segmentType = line;
smooth = 1;
x = 975;
y = 665;
},
{
smooth = 0;
x = 1024;
y = 665;
},
{
smooth = 0;
x = 1049;
y = 698;
},
{
segmentType = curve;
smooth = 1;
x = 1049;
y = 734;
},
{
smooth = 0;
x = 1049;
y = 770;
},
{
smooth = 0;
x = 1026;
y = 803;
},
{
segmentType = curve;
smooth = 1;
x = 975;
y = 803;
},
{
segmentType = line;
smooth = 0;
x = 353;
y = 803;
},
{
segmentType = line;
smooth = 0;
x = 353;
y = 1285;
},
{
segmentType = line;
smooth = 1;
x = 1007;
y = 1285;
},
{
smooth = 0;
x = 1056;
y = 1285;
},
{
smooth = 0;
x = 1080;
y = 1319;
},
{
segmentType = curve;
smooth = 1;
x = 1080;
y = 1356;
},
{
smooth = 0;
x = 1080;
y = 1392;
},
{
smooth = 0;
x = 1056;
y = 1426;
},
{
segmentType = curve;
smooth = 1;
x = 1007;
y = 1426;
},
{
segmentType = line;
smooth = 1;
x = 261;
y = 1426;
},
{
smooth = 0;
x = 213;
y = 1426;
},
{
smooth = 0;
x = 178;
y = 1383;
},
{
segmentType = curve;
smooth = 1;
x = 178;
y = 1340;
},
{
segmentType = line;
smooth = 1;
x = 178;
y = 86;
},
{
smooth = 0;
x = 178;
y = 41;
},
{
smooth = 0;
x = 222;
y = 0;
}
);
}
);
lib = {
};
name = F;
unicodes = (
);
width = 1142;
};
};
components = (
);
contours = (
);
lib = {
};
name = F;
unicodes = (
);
width = 1175;
};
},
{
glyphname = G;
lastChange = "2016-09-21 12:39:39 +0000";
layers = (
{
anchors = (
{
name = bottom;
position = "{379, 0}";
},
{
name = top;
position = "{427, 712}";
}
);
background = {
anchors = (
{
name = bottom;
position = "{398, 0}";
},
{
name = top;
position = "{446, 712}";
}
);
paths = (
{
closed = 1;
nodes = (
"490 -8 OFFCURVE",
"589 12 OFFCURVE",
"640 40 CURVE",
"640 363 LINE",
"399 363 LINE",
"399 314 LINE",
"590 314 LINE",
"590 41 LINE",
"604 81 LINE",
"550 57 OFFCURVE",
"475 41 OFFCURVE",
"398 41 CURVE SMOOTH",
"221 41 OFFCURVE",
"124 153 OFFCURVE",
"124 357 CURVE SMOOTH",
"124 557 OFFCURVE",
"221 670 OFFCURVE",
"391 670 CURVE SMOOTH",
"476 670 OFFCURVE",
"540 645 OFFCURVE",
"610 582 CURVE",
"634 626 LINE",
"573 689 OFFCURVE",
"490 720 OFFCURVE",
"393 720 CURVE SMOOTH",
"191 720 OFFCURVE",
"67 586 OFFCURVE",
"67 357 CURVE SMOOTH",
"67 127 OFFCURVE",
"190 -8 OFFCURVE",
"398 -8 CURVE SMOOTH"
);
}
);
};
layerId = "9E718F8A-2CEA-4931-B05D-987794BD97DA";
paths = (
{
closed = 1;
nodes = (
"470 -8 OFFCURVE",
"567 12 OFFCURVE",
"624 40 CURVE",
"649 363 LINE",
"408 363 LINE",
"404 314 LINE",
"595 314 LINE",
"574 41 LINE",
"591 81 LINE",
"535 57 OFFCURVE",
"459 41 OFFCURVE",
"392 41 CURVE SMOOTH",
"217 41 OFFCURVE",
"131 143 OFFCURVE",
"131 318 CURVE SMOOTH",
"131 538 OFFCURVE",
"239 670 OFFCURVE",
"421 670 CURVE SMOOTH",
"504 670 OFFCURVE",
"567 644 OFFCURVE",
"636 582 CURVE",
"665 626 LINE",
"601 689 OFFCURVE",
"519 719 OFFCURVE",
"421 719 CURVE SMOOTH",
"208 719 OFFCURVE",
"74 563 OFFCURVE",
"74 314 CURVE SMOOTH",
"74 113 OFFCURVE",
"184 -8 OFFCURVE",
"393 -8 CURVE SMOOTH"
);
}
);
width = 725;
},
{
anchors = (
{
name = bottom;
position = "{400, 0}";
},
{
name = top;
position = "{448, 712}";
}
);
background = {
paths = (
{
closed = 1;
nodes = (
"516 -9 OFFCURVE",
"614 10 OFFCURVE",
"685 44 CURVE",
"685 395 LINE",
"402 395 LINE",
"402 282 LINE",
"539 282 LINE",
"539 89 LINE",
"575 140 LINE",
"526 124 OFFCURVE",
"475 116 OFFCURVE",
"426 116 CURVE SMOOTH",
"284 116 OFFCURVE",
"214 195 OFFCURVE",
"214 357 CURVE SMOOTH",
"214 514 OFFCURVE",
"282 592 OFFCURVE",
"417 592 CURVE SMOOTH",
"489 592 OFFCURVE",
"547 573 OFFCURVE",
"614 526 CURVE",
"666 642 LINE",
"608 692 OFFCURVE",
"514 721 OFFCURVE",
"412 721 CURVE SMOOTH",
"191 721 OFFCURVE",
"49 581 OFFCURVE",
"49 357 CURVE SMOOTH",
"49 128 OFFCURVE",
"190 -9 OFFCURVE",
"419 -9 CURVE SMOOTH"
);
}
);
};
layerId = "E1B555A7-F4E1-459C-9C1A-AE952106EEF9";
paths = (
{
closed = 1;
nodes = (
"504 -9 OFFCURVE",
"602 11 OFFCURVE",
"670 46 CURVE",
"697 395 LINE",
"414 395 LINE",
"405 282 LINE",
"542 282 LINE",
"527 89 LINE",
"567 143 LINE",
"517 125 OFFCURVE",
"469 116 OFFCURVE",
"423 116 CURVE SMOOTH",
"286 116 OFFCURVE",
"222 195 OFFCURVE",
"222 332 CURVE SMOOTH",
"222 492 OFFCURVE",
"300 589 OFFCURVE",
"439 592 CURVE SMOOTH",
"521 594 OFFCURVE",
"576 571 OFFCURVE",
"635 524 CURVE",
"696 640 LINE",
"632 693 OFFCURVE",
"545 721 OFFCURVE",
"437 721 CURVE SMOOTH",
"205 721 OFFCURVE",
"58 569 OFFCURVE",
"58 332 CURVE SMOOTH",
"58 122 OFFCURVE",
"187 -9 OFFCURVE",
"401 -9 CURVE SMOOTH"
);
}
);
width = 746;
}
);
leftKerningGroup = O;
leftMetricsKey = O;
rightKerningGroup = G;
unicode = 0047;
userData = {
anchors = (
);
b = {
};
com.typemytype.robofont.layerData = {
b = {
anchors = (
);
components = (
);
contours = (
{
points = (
{
segmentType = curve;
smooth = 1;
x = 783;
y = "-22";
},
{
smooth = 0;
x = 965;
y = "-22";
},
{
smooth = 0;
x = 1086;
y = 34;
},
{
segmentType = curve;
smooth = 1;
x = 1166;
y = 86;
},
{
smooth = 0;
x = 1270;
y = 154;
},
{
smooth = 0;
x = 1186;
y = 258;
},
{
segmentType = curve;
smooth = 1;
x = 1112;
y = 214;
},
{
smooth = 0;
x = 1024;
y = 162;
},
{
smooth = 0;
x = 939;
y = 120;
},
{
segmentType = curve;
smooth = 1;
x = 806;
y = 120;
},
{
smooth = 0;
x = 446;
y = 120;
},
{
smooth = 0;
x = 316;
y = 406;
},
{
segmentType = curve;
smooth = 1;
x = 316;
y = 706;
},
{
smooth = 0;
x = 316;
y = 1005;
},
{
smooth = 0;
x = 450;
y = 1296;
},
{
segmentType = curve;
smooth = 1;
x = 801;
y = 1296;
},
{
smooth = 0;
x = 980;
y = 1296;
},
{
smooth = 0;
x = 1053;
y = 1246;
},
{
segmentType = curve;
smooth = 1;
x = 1094;
y = 1225;
},
{
smooth = 0;
x = 1174;
y = 1184;
},
{
smooth = 0;
x = 1231;
y = 1300;
},
{
segmentType = curve;
smooth = 1;
x = 1156;
y = 1343;
},
{
smooth = 0;
x = 1106;
y = 1372;
},
{
smooth = 0;
x = 995;
y = 1438;
},
{
segmentType = curve;
smooth = 1;
x = 797;
y = 1438;
},
{
smooth = 0;
x = 359;
y = 1438;
},
{
smooth = 0;
x = 128;
y = 1093;
},
{
segmentType = curve;
smooth = 1;
x = 128;
y = 704;
},
{
smooth = 0;
x = 128;
y = 307;
},
{
smooth = 0;
x = 350;
y = "-22";
}
);
}
);
lib = {
};
name = G;
unicodes = (
);
width = 1448;
};
};
components = (
);
contours = (
);
lib = {
};
name = G;
unicodes = (
);
width = 1538;
};
},
{
glyphname = H;
lastChange = "2016-09-21 12:39:49 +0000";
layers = (
{
anchors = (
{
name = bottom;
position = "{363, 0}";
},
{
name = center;
position = "{391, 362}";
},
{
name = top;
position = "{417, 712}";
},
{
name = topleft;
position = "{64, 712}";
}
);
background = {
anchors = (
{
name = bottom;
position = "{382, 0}";
},
{
name = center;
position = "{410, 362}";
},
{
name = top;
position = "{436, 712}";
},
{
name = topleft;
position = "{83, 712}";
}
);
paths = (
{
closed = 1;
nodes = (
"668 0 LINE",
"668 712 LINE",
"613 712 LINE",
"613 0 LINE"
);
},
{
closed = 1;
nodes = (
"149 0 LINE",
"149 712 LINE",
"95 712 LINE",
"95 0 LINE"
);
},
{
closed = 1;
nodes = (
"622 337 LINE",
"622 386 LINE",
"129 386 LINE",
"129 337 LINE"
);
}
);
};
layerId = "9E718F8A-2CEA-4931-B05D-987794BD97DA";
paths = (
{
closed = 1;
nodes = (
"648 0 LINE",
"704 712 LINE",
"649 712 LINE",
"594 0 LINE"
);
},
{
closed = 1;
nodes = (
"130 0 LINE",
"186 712 LINE",
"131 712 LINE",
"76 0 LINE"
);
},
{
closed = 1;
nodes = (
"629 337 LINE",
"633 386 LINE",
"140 386 LINE",
"136 337 LINE"
);
}
);
width = 761;
},
{
anchors = (
{
name = bottom;
position = "{371, 0}";
},
{
name = center;
position = "{399, 362}";
},
{
name = top;
position = "{426, 712}";
},
{
name = topleft;
position = "{58, 712}";
}
);
background = {
anchors = (
{
name = bottom;
position = "{390, 0}";
},
{
name = center;
position = "{418, 362}";
},
{
name = top;
position = "{445, 712}";
},
{
name = topleft;
position = "{77, 712}";
}
);
paths = (
{
closed = 1;
nodes = (
"710 0 LINE",
"710 712 LINE",
"550 712 LINE",
"550 0 LINE"
);
},
{
closed = 1;
nodes = (
"229 0 LINE",
"229 712 LINE",
"70 712 LINE",
"70 0 LINE"
);
},
{
closed = 1;
nodes = (
"646 297 LINE",
"646 426 LINE",
"121 426 LINE",
"121 297 LINE"
);
}
);
};
layerId = "E1B555A7-F4E1-459C-9C1A-AE952106EEF9";
paths = (
{
closed = 1;
nodes = (
"690 0 LINE",
"746 712 LINE",
"587 712 LINE",
"530 0 LINE"
);
},
{
closed = 1;
nodes = (
"210 0 LINE",
"267 712 LINE",
"107 712 LINE",
"51 0 LINE"
);
},
{
closed = 1;
nodes = (
"650 297 LINE",
"661 426 LINE",
"135 426 LINE",
"125 297 LINE"
);
}
);
width = 780;
}
);
leftKerningGroup = H;
rightKerningGroup = H;
unicode = 0048;
userData = {
anchors = (
);
b = {
};
com.typemytype.robofont.layerData = {
b = {
anchors = (
);
components = (
);
contours = (
);
lib = {
};
name = H;
unicodes = (
);
width = 1464;
};
};
components = (
);
contours = (
);
lib = {
};
name = H;
unicodes = (
);
width = 1524;
};
},
{
glyphname = Hbar;
lastChange = "2016-09-21 12:39:57 +0000";
layers = (
{
background = {
paths = (
{
closed = 1;
nodes = (
"770 530 LINE",
"770 577 LINE",
"5 577 LINE",
"5 530 LINE"
);
},
{
closed = 1;
nodes = (
"674 0 LINE",
"674 712 LINE",
"619 712 LINE",
"619 0 LINE"
);
},
{
closed = 1;
nodes = (
"156 0 LINE",
"156 712 LINE",
"101 712 LINE",
"101 0 LINE"
);
},
{
closed = 1;
nodes = (
"629 337 LINE",
"629 386 LINE",
"136 386 LINE",
"136 337 LINE"
);
}
);
};
layerId = "9E718F8A-2CEA-4931-B05D-987794BD97DA";
paths = (
{
closed = 1;
nodes = (
"792 530 LINE",
"796 577 LINE",
"31 577 LINE",
"27 530 LINE"
);
},
{
closed = 1;
nodes = (
"654 0 LINE",
"710 712 LINE",
"655 712 LINE",
"600 0 LINE"
);
},
{
closed = 1;
nodes = (
"136 0 LINE",
"192 712 LINE",
"137 712 LINE",
"82 0 LINE"
);
},
{
closed = 1;
nodes = (
"636 337 LINE",
"640 386 LINE",
"147 386 LINE",
"143 337 LINE"
);
}
);
width = 775;
},
{
background = {
paths = (
{
closed = 1;
nodes = (
"827 512 LINE",
"827 631 LINE",
"15 631 LINE",
"15 512 LINE"
);
},
{
closed = 1;
nodes = (
"741 0 LINE",
"741 712 LINE",
"582 712 LINE",
"582 0 LINE"
);
},
{
closed = 1;
nodes = (
"261 0 LINE",
"261 712 LINE",
"101 712 LINE",
"101 0 LINE"
);
},
{
closed = 1;
nodes = (
"678 297 LINE",
"678 426 LINE",
"153 426 LINE",
"153 297 LINE"
);
}
);
};
layerId = "E1B555A7-F4E1-459C-9C1A-AE952106EEF9";
paths = (
{
closed = 1;
nodes = (
"848 512 LINE",
"857 631 LINE",
"45 631 LINE",
"36 512 LINE"
);
},
{
closed = 1;
nodes = (
"740 0 LINE",
"797 712 LINE",
"637 712 LINE",
"581 0 LINE"
);
},
{
closed = 1;
nodes = (
"261 0 LINE",
"317 712 LINE",
"158 712 LINE",
"101 0 LINE"
);
},
{
closed = 1;
nodes = (
"701 297 LINE",
"711 426 LINE",
"186 426 LINE",
"176 297 LINE"
);
}
);
width = 842;
}
);
leftKerningGroup = H;
rightKerningGroup = H;
unicode = 0126;
userData = {
com.typemytype.robofont.layerData = {
b = {
anchors = (
);
components = (
);
contours = (
);
lib = {
};
name = Hbar;
unicodes = (
);
width = 1464;
};
};
};
},
{
glyphname = I;
lastChange = "2016-09-21 12:40:38 +0000";
layers = (
{
anchors = (
{
name = bottom;
position = "{103, 0}";
},
{
name = ogonek;
position = "{128, 10}";
},
{
name = top;
position = "{159, 712}";
},
{
name = topleft;
position = "{64, 712}";
}
);
background = {
anchors = (
{
name = bottom;
position = "{122, 0}";
},
{
name = ogonek;
position = "{147, 10}";
},
{
name = top;
position = "{178, 712}";
},
{
name = topleft;
position = "{83, 712}";
}
);
paths = (
{
closed = 1;
nodes = (
"149 0 LINE",
"149 712 LINE",
"95 712 LINE",
"95 0 LINE"
);
}
);
};
layerId = "9E718F8A-2CEA-4931-B05D-987794BD97DA";
paths = (
{
closed = 1;
nodes = (
"130 0 LINE",
"186 712 LINE",
"131 712 LINE",
"76 0 LINE"
);
}
);
width = 242;
},
{
anchors = (
{
name = bottom;
position = "{133, 0}";
},
{
name = ogonek;
position = "{185, 10}";
},
{
name = top;
position = "{189, 712}";
},
{
name = topleft;
position = "{59, 712}";
}
);
background = {
anchors = (
{
name = bottom;
position = "{151, 0}";
},
{
name = ogonek;
position = "{204, 10}";
},
{
name = top;
position = "{207, 712}";
},
{
name = topleft;
position = "{78, 712}";
}
);
paths = (
{
closed = 1;
nodes = (
"233 0 LINE",
"233 712 LINE",
"71 712 LINE",
"71 0 LINE"
);
}
);
};
layerId = "E1B555A7-F4E1-459C-9C1A-AE952106EEF9";
paths = (
{
closed = 1;
nodes = (
"214 0 LINE",
"270 712 LINE",
"107 712 LINE",
"52 0 LINE"
);
}
);
width = 304;
}
);
leftKerningGroup = H;
leftMetricsKey = H;
rightKerningGroup = H;
unicode = 0049;
userData = {
anchors = (
);
b = {
};
com.typemytype.robofont.layerData = {
b = {
anchors = (
);
components = (
);
contours = (
);
lib = {
};
name = I;
unicodes = (
);
width = 592;
};
};
components = (
);
contours = (
);
lib = {
};
name = I;
unicodes = (
);
width = 637;
};
},
{
glyphname = Iogonek;
lastChange = "2016-09-21 12:21:56 +0000";
layers = (
{
background = {
paths = (
{
closed = 1;
nodes = (
"148 -193 OFFCURVE",
"177 -183 OFFCURVE",
"196 -170 CURVE",
"180 -131 LINE",
"159 -143 OFFCURVE",
"136 -149 OFFCURVE",
"120 -149 CURVE SMOOTH",
"80 -149 OFFCURVE",
"52 -126 OFFCURVE",
"52 -83 CURVE SMOOTH",
"52 -38 OFFCURVE",
"85 0 OFFCURVE",
"144 0 CURVE SMOOTH",
"148 0 LINE",
"148 712 LINE",
"94 712 LINE",
"94 0 LINE",
"111 0 LINE",
"131 38 LINE",
"46 24 OFFCURVE",
"1 -27 OFFCURVE",
"1 -89 CURVE SMOOTH",
"1 -149 OFFCURVE",
"46 -193 OFFCURVE",
"115 -193 CURVE SMOOTH"
);
}
);
};
layerId = "9E718F8A-2CEA-4931-B05D-987794BD97DA";
paths = (
{
closed = 1;
nodes = (
"114 -193 OFFCURVE",
"145 -182 OFFCURVE",
"164 -170 CURVE",
"150 -130 LINE",
"128 -143 OFFCURVE",
"105 -149 OFFCURVE",
"89 -149 CURVE SMOOTH",
"49 -149 OFFCURVE",
"26 -128 OFFCURVE",
"26 -85 CURVE SMOOTH",
"26 -41 OFFCURVE",
"53 0 OFFCURVE",
"125 0 CURVE SMOOTH",
"129 0 LINE",
"185 712 LINE",
"130 712 LINE",
"75 0 LINE",
"92 0 LINE",
"116 41 LINE",
"21 30 OFFCURVE",
"-25 -24 OFFCURVE",
"-25 -93 CURVE SMOOTH",
"-25 -154 OFFCURVE",
"16 -193 OFFCURVE",
"83 -193 CURVE SMOOTH"
);
}
);
width = 242;
},
{
background = {
paths = (
{
closed = 1;
nodes = (
"199 -199 OFFCURVE",
"234 -192 OFFCURVE",
"265 -179 CURVE",
"247 -106 LINE",
"228 -114 OFFCURVE",
"210 -118 OFFCURVE",
"193 -118 CURVE SMOOTH",
"155 -118 OFFCURVE",
"133 -100 OFFCURVE",
"133 -65 CURVE SMOOTH",
"133 -27 OFFCURVE",
"166 0 OFFCURVE",
"217 0 CURVE SMOOTH",
"232 0 LINE",
"232 712 LINE",
"70 712 LINE",
"70 0 LINE",
"115 0 LINE",
"128 37 LINE",
"64 11 OFFCURVE",
"33 -35 OFFCURVE",
"33 -86 CURVE SMOOTH",
"33 -156 OFFCURVE",
"90 -199 OFFCURVE",
"163 -199 CURVE SMOOTH"
);
}
);
};
layerId = "E1B555A7-F4E1-459C-9C1A-AE952106EEF9";
paths = (
{
closed = 1;
nodes = (
"168 -199 OFFCURVE",
"200 -192 OFFCURVE",
"231 -179 CURVE",
"220 -106 LINE",
"198 -114 OFFCURVE",
"180 -118 OFFCURVE",
"163 -118 CURVE SMOOTH",
"130 -118 OFFCURVE",
"109 -100 OFFCURVE",
"109 -68 CURVE SMOOTH",
"109 -30 OFFCURVE",
"136 0 OFFCURVE",
"198 0 CURVE SMOOTH",
"213 0 LINE",
"269 712 LINE",
"106 712 LINE",
"51 0 LINE",
"96 0 LINE",
"112 37 LINE",
"45 11 OFFCURVE",
"7 -26 OFFCURVE",
"7 -90 CURVE SMOOTH",
"7 -155 OFFCURVE",
"57 -199 OFFCURVE",
"135 -199 CURVE SMOOTH"
);
}
);
width = 302;
}
);
leftKerningGroup = H;
rightKerningGroup = H;
unicode = 012E;
},
{
glyphname = J;
lastChange = "2016-09-21 12:40:49 +0000";
layers = (
{
anchors = (
{
name = bottom;
position = "{168, 0}";
},
{
name = top;
position = "{223, 712}";
}
);
background = {
anchors = (
{
name = bottom;
position = "{168, 0}";
},
{
name = top;
position = "{279, 712}";
}
);
paths = (
{
closed = 1;
nodes = (
"114 -206 OFFCURVE",
"182 -162 OFFCURVE",
"194 -2 CURVE SMOOTH",
"249 712 LINE",
"195 712 LINE",
"139 0 LINE SMOOTH",
"129 -128 OFFCURVE",
"84 -153 OFFCURVE",
"-38 -128 CURVE",
"-42 -178 LINE"
);
},
{
closed = 1;
nodes = (
"30 -2 LINE SMOOTH",
"138 6 OFFCURVE",
"200 66 OFFCURVE",
"209 182 CURVE SMOOTH",
"250 712 LINE",
"196 712 LINE",
"155 184 LINE SMOOTH",
"147 98 OFFCURVE",
"104 52 OFFCURVE",
"28 45 CURVE SMOOTH",
"-26 41 LINE",
"-25 -6 LINE"
);
}
);
};
layerId = "9E718F8A-2CEA-4931-B05D-987794BD97DA";
paths = (
{
closed = 1;
nodes = (
"105 -206 OFFCURVE",
"182 -162 OFFCURVE",
"195 -2 CURVE SMOOTH",
"252 712 LINE",
"197 712 LINE",
"140 0 LINE SMOOTH",
"130 -128 OFFCURVE",
"75 -153 OFFCURVE",
"-37 -128 CURVE",
"-41 -178 LINE"
);
}
);
width = 309;
},
{
anchors = (
{
name = bottom;
position = "{214, 0}";
},
{
name = top;
position = "{270, 712}";
}
);
background = {
paths = (
{
closed = 1;
nodes = (
"72 -5 LINE SMOOTH",
"224 4 OFFCURVE",
"302 75 OFFCURVE",
"313 219 CURVE SMOOTH",
"351 712 LINE",
"188 712 LINE",
"149 217 LINE SMOOTH",
"144 154 OFFCURVE",
"118 128 OFFCURVE",
"55 124 CURVE SMOOTH",
"-17 120 LINE",
"-9 -10 LINE"
);
}
);
};
layerId = "E1B555A7-F4E1-459C-9C1A-AE952106EEF9";
paths = (
{
closed = 1;
nodes = (
"194 -214 OFFCURVE",
"284 -141 OFFCURVE",
"299 45 CURVE SMOOTH",
"351 712 LINE",
"188 712 LINE",
"135 43 LINE SMOOTH",
"128 -52 OFFCURVE",
"92 -64 OFFCURVE",
"-23 -48 CURVE",
"-33 -179 LINE"
);
}
);
width = 385;
}
);
leftKerningGroup = J;
rightKerningGroup = J;
rightMetricsKey = H;
unicode = 004A;
userData = {
anchors = (
);
b = {
};
com.typemytype.robofont.layerData = {
b = {
anchors = (
);
components = (
);
contours = (
);
lib = {
};
name = J;
unicodes = (
);
width = 1003;
};
};
components = (
);
contours = (
);
lib = {
};
name = J;
unicodes = (
);
width = 1126;
};
},
{
glyphname = K;
lastChange = "2016-09-21 12:40:58 +0000";
layers = (
{
anchors = (
{
name = bottom;
position = "{291, 0}";
},
{
name = top;
position = "{345, 712}";
}
);
background = {
anchors = (
{
name = bottom;
position = "{291, 0}";
},
{
name = top;
position = "{345, 712}";
}
);
paths = (
{
closed = 1;
nodes = (
"614 0 LINE",
"182 383 LINE",
"180 342 LINE",
"592 712 LINE",
"518 712 LINE",
"127 361 LINE",
"538 0 LINE"
);
},
{
closed = 1;
nodes = (
"149 0 LINE",
"149 712 LINE",
"95 712 LINE",
"95 0 LINE"
);
}
);
};
layerId = "9E718F8A-2CEA-4931-B05D-987794BD97DA";
paths = (
{
closed = 1;
nodes = (
"595 0 LINE",
"194 380 LINE",
"184 342 LINE",
"628 712 LINE",
"550 712 LINE",
"136 364 LINE",
"524 0 LINE"
);
},
{
closed = 1;
nodes = (
"130 0 LINE",
"186 712 LINE",
"131 712 LINE",
"76 0 LINE"
);
}
);
width = 614;
},
{
anchors = (
{
name = bottom;
position = "{328, 0}";
},
{
name = top;
position = "{384, 712}";
}
);
background = {
paths = (
{
closed = 1;
nodes = (
"733 0 LINE",
"359 409 LINE",
"346 324 LINE",
"720 712 LINE",
"528 712 LINE",
"199 364 LINE",
"538 0 LINE"
);
},
{
closed = 1;
nodes = (
"233 0 LINE",
"233 712 LINE",
"71 712 LINE",
"71 0 LINE"
);
}
);
};
layerId = "E1B555A7-F4E1-459C-9C1A-AE952106EEF9";
paths = (
{
closed = 1;
nodes = (
"714 0 LINE",
"367 409 LINE",
"361 323 LINE",
"756 712 LINE",
"558 712 LINE",
"208 362 LINE",
"524 0 LINE"
);
},
{
closed = 1;
nodes = (
"214 0 LINE",
"270 712 LINE",
"107 712 LINE",
"52 0 LINE"
);
}
);
width = 690;
}
);
leftKerningGroup = H;
leftMetricsKey = H;
rightKerningGroup = K;
unicode = 004B;
userData = {
anchors = (
);
b = {
};
com.typemytype.robofont.layerData = {
b = {
anchors = (
);
components = (
);
contours = (
);
lib = {
};
name = K;
unicodes = (
);
width = 1210;
};
};
components = (
);
contours = (
);
lib = {
};
name = K;
unicodes = (
);
width = 1329;
};
},
{
glyphname = L;
lastChange = "2016-09-21 12:41:07 +0000";
layers = (
{
anchors = (
{
name = bottom;
position = "{292, 0}";
},
{
name = center;
position = "{347, 357}";
},
{
name = top;
position = "{159, 712}";
},
{
name = topright;
position = "{277, 712}";
}
);
background = {
anchors = (
{
name = bottom;
position = "{292, 0}";
},
{
name = center;
position = "{347, 357}";
},
{
name = top;
position = "{159, 712}";
},
{
name = topright;
position = "{277, 712}";
}
);
paths = (
{
closed = 1;
nodes = (
"521 0 LINE",
"521 48 LINE",
"149 48 LINE",
"149 712 LINE",
"95 712 LINE",
"95 0 LINE"
);
}
);
};
layerId = "9E718F8A-2CEA-4931-B05D-987794BD97DA";
paths = (
{
closed = 1;
nodes = (
"502 0 LINE",
"506 48 LINE",
"134 48 LINE",
"186 712 LINE",
"131 712 LINE",
"76 0 LINE"
);
}
);
width = 536;
},
{
anchors = (
{
name = bottom;
position = "{297, 0}";
},
{
name = center;
position = "{407, 357}";
},
{
name = top;
position = "{187, 712}";
},
{
name = topright;
position = "{360, 712}";
}
);
background = {
anchors = (
{
name = bottom;
position = "{316, 0}";
},
{
name = center;
position = "{426, 357}";
},
{
name = top;
position = "{206, 712}";
},
{
name = topright;
position = "{379, 712}";
}
);
paths = (
{
closed = 1;
nodes = (
"547 0 LINE",
"547 132 LINE",
"232 132 LINE",
"232 712 LINE",
"70 712 LINE",
"70 0 LINE"
);
}
);
};
layerId = "E1B555A7-F4E1-459C-9C1A-AE952106EEF9";
paths = (
{
closed = 1;
nodes = (
"528 0 LINE",
"538 132 LINE",
"223 132 LINE",
"270 712 LINE",
"107 712 LINE",
"51 0 LINE"
);
}
);
width = 571;
}
);
leftKerningGroup = H;
leftMetricsKey = H;
rightKerningGroup = L;
unicode = 004C;
userData = {
anchors = (
);
b = {
};
com.typemytype.robofont.layerData = {
b = {
anchors = (
);
components = (
);
contours = (
{
points = (
{
segmentType = curve;
smooth = 1;
x = 266;
y = 0;
},
{
segmentType = line;
smooth = 1;
x = 1035;
y = 0;
},
{
smooth = 0;
x = 1084;
y = 0;
},
{
smooth = 0;
x = 1108;
y = 34;
},
{
segmentType = curve;
smooth = 1;
x = 1108;
y = 71;
},
{
smooth = 0;
x = 1108;
y = 107;
},
{
smooth = 0;
x = 1084;
y = 141;
},
{
segmentType = curve;
smooth = 1;
x = 1035;
y = 141;
},
{
segmentType = line;
smooth = 0;
x = 356;
y = 141;
},
{
segmentType = line;
smooth = 0;
x = 356;
y = 665;
},
{
segmentType = line;
smooth = 1;
x = 975;
y = 665;
},
{
smooth = 0;
x = 1024;
y = 665;
},
{
smooth = 0;
x = 1049;
y = 698;
},
{
segmentType = curve;
smooth = 1;
x = 1049;
y = 734;
},
{
smooth = 0;
x = 1049;
y = 770;
},
{
smooth = 0;
x = 1026;
y = 803;
},
{
segmentType = curve;
smooth = 1;
x = 975;
y = 803;
},
{
segmentType = line;
smooth = 0;
x = 356;
y = 803;
},
{
segmentType = line;
smooth = 0;
x = 356;
y = 1285;
},
{
segmentType = line;
smooth = 1;
x = 1007;
y = 1285;
},
{
smooth = 0;
x = 1056;
y = 1285;
},
{
smooth = 0;
x = 1080;
y = 1319;
},
{
segmentType = curve;
smooth = 1;
x = 1080;
y = 1356;
},
{
smooth = 0;
x = 1080;
y = 1392;
},
{
smooth = 0;
x = 1056;
y = 1426;
},
{
segmentType = curve;
smooth = 1;
x = 1007;
y = 1426;
},
{
segmentType = line;
smooth = 1;
x = 261;
y = 1426;
},
{
smooth = 0;
x = 213;
y = 1426;
},
{
smooth = 0;
x = 178;
y = 1383;
},
{
segmentType = curve;
smooth = 1;
x = 178;
y = 1340;
},
{
segmentType = line;
smooth = 1;
x = 178;
y = 86;
},
{
smooth = 0;
x = 178;
y = 41;
},
{
smooth = 0;
x = 222;
y = 0;
}
);
}
);
lib = {
};
name = L;
unicodes = (
);
width = 1095;
};
};
components = (
);
contours = (
);
lib = {
};
name = L;
unicodes = (
);
width = 1169;
};
},
{
glyphname = LJ;
lastChange = "2016-09-21 12:41:17 +0000";
layers = (
{
background = {
paths = (
{
closed = 1;
nodes = (
"471 0 LINE",
"475 48 LINE",
"133 48 LINE",
"185 712 LINE",
"130 712 LINE",
"75 0 LINE"
);
},
{
closed = 1;
nodes = (
"565 -206 OFFCURVE",
"632 -162 OFFCURVE",
"644 -2 CURVE SMOOTH",
"700 712 LINE",
"645 712 LINE",
"590 0 LINE SMOOTH",
"580 -128 OFFCURVE",
"534 -153 OFFCURVE",
"412 -128 CURVE",
"408 -178 LINE"
);
}
);
};
layerId = "9E718F8A-2CEA-4931-B05D-987794BD97DA";
paths = (
{
closed = 1;
nodes = (
"472 0 LINE",
"476 48 LINE",
"134 48 LINE",
"186 712 LINE",
"131 712 LINE",
"76 0 LINE"
);
},
{
closed = 1;
nodes = (
"554 -206 OFFCURVE",
"631 -162 OFFCURVE",
"644 -2 CURVE SMOOTH",
"701 712 LINE",
"646 712 LINE",
"590 0 LINE SMOOTH",
"580 -128 OFFCURVE",
"524 -153 OFFCURVE",
"412 -128 CURVE",
"408 -178 LINE"
);
}
);
width = 758;
},
{
background = {
paths = (
{
closed = 1;
nodes = (
"498 0 LINE",
"508 132 LINE",
"223 132 LINE",
"269 712 LINE",
"106 712 LINE",
"51 0 LINE"
);
},
{
closed = 1;
nodes = (
"728 -214 OFFCURVE",
"810 -141 OFFCURVE",
"824 45 CURVE SMOOTH",
"876 712 LINE",
"712 712 LINE",
"660 43 LINE SMOOTH",
"652 -52 OFFCURVE",
"626 -64 OFFCURVE",
"501 -48 CURVE",
"491 -179 LINE"
);
}
);
};
layerId = "E1B555A7-F4E1-459C-9C1A-AE952106EEF9";
paths = (
{
closed = 1;
nodes = (
"498 0 LINE",
"508 132 LINE",
"223 132 LINE",
"270 712 LINE",
"107 712 LINE",
"51 0 LINE"
);
},
{
closed = 1;
nodes = (
"718 -214 OFFCURVE",
"808 -141 OFFCURVE",
"823 45 CURVE SMOOTH",
"876 712 LINE",
"712 712 LINE",
"660 43 LINE SMOOTH",
"652 -52 OFFCURVE",
"616 -64 OFFCURVE",
"501 -48 CURVE",
"491 -179 LINE"
);
}
);
width = 909;
}
);
leftKerningGroup = H;
leftMetricsKey = L;
rightKerningGroup = J;
rightMetricsKey = J;
unicode = 01C7;
},
{
glyphname = Lslash;
lastChange = "2016-09-21 12:41:23 +0000";
layers = (
{
background = {
paths = (
{
closed = 1;
nodes = (
"508 0 LINE",
"512 48 LINE",
"140 48 LINE",
"192 712 LINE",
"137 712 LINE",
"82 0 LINE"
);
}
);
};
guideLines = (
{
position = "{348, 362}";
},
{
angle = 90;
position = "{-76, 126}";
},
{
angle = 90;
position = "{181, 126}";
},
{
angle = 90;
position = "{282, 126}";
}
);
layerId = "9E718F8A-2CEA-4931-B05D-987794BD97DA";
paths = (
{
closed = 1;
nodes = (
"508 0 LINE",
"512 48 LINE",
"140 48 LINE",
"192 712 LINE",
"137 712 LINE",
"82 0 LINE"
);
},
{
closed = 1;
nodes = (
"364 459 LINE",
"368 514 LINE",
"14 319 LINE",
"10 264 LINE"
);
}
);
width = 542;
},
{
background = {
paths = (
{
closed = 1;
nodes = (
"465 443 LINE",
"476 582 LINE",
"17 329 LINE",
"6 191 LINE"
);
},
{
closed = 1;
nodes = (
"560 0 LINE",
"570 132 LINE",
"255 132 LINE",
"300 712 LINE",
"137 712 LINE",
"82 0 LINE"
);
}
);
};
guideLines = (
{
angle = 90;
position = "{489, 599}";
},
{
angle = 90;
position = "{124, 599}";
},
{
position = "{490, 723}";
},
{
angle = 90;
position = "{590, 599}";
}
);
layerId = "E1B555A7-F4E1-459C-9C1A-AE952106EEF9";
paths = (
{
closed = 1;
nodes = (
"560 0 LINE",
"570 132 LINE",
"255 132 LINE",
"301 712 LINE",
"138 712 LINE",
"82 0 LINE"
);
},
{
closed = 1;
nodes = (
"465 443 LINE",
"476 582 LINE",
"17 329 LINE",
"6 191 LINE"
);
}
);
width = 603;
}
);
leftKerningGroup = L;
rightKerningGroup = L;
rightMetricsKey = L;
unicode = 0141;
},
{
glyphname = M;
lastChange = "2016-09-21 12:41:39 +0000";
layers = (
{
anchors = (
{
name = bottom;
position = "{406, 0}";
},
{
name = top;
position = "{462, 712}";
}
);
background = {
paths = (
{
closed = 1;
nodes = (
"128 0 LINE",
"180 652 LINE",
"153 650 LINE",
"395 112 LINE",
"437 112 LINE",
"763 649 LINE",
"735 652 LINE",
"684 0 LINE",
"736 0 LINE",
"792 712 LINE",
"745 712 LINE",
"405 140 LINE",
"431 140 LINE",
"179 712 LINE",
"131 712 LINE",
"76 0 LINE"
);
}
);
};
layerId = "9E718F8A-2CEA-4931-B05D-987794BD97DA";
paths = (
{
closed = 1;
nodes = (
"128 0 LINE",
"179 652 LINE",
"148 650 LINE",
"386 0 LINE",
"428 0 LINE",
"765 649 LINE",
"735 652 LINE",
"683 0 LINE",
"735 0 LINE",
"791 712 LINE",
"744 712 LINE",
"393 28 LINE",
"424 28 LINE",
"179 712 LINE",
"131 712 LINE",
"76 0 LINE"
);
}
);
width = 848;
},
{
anchors = (
{
name = bottom;
position = "{407, 0}";
},
{
name = top;
position = "{463, 712}";
}
);
background = {
paths = (
{
closed = 1;
nodes = (
"196 0 LINE",
"233 470 LINE",
"194 461 LINE",
"355 0 LINE",
"460 0 LINE",
"690 461 LINE",
"655 470 LINE",
"618 0 LINE",
"761 0 LINE",
"816 712 LINE",
"690 712 LINE",
"391 131 LINE",
"446 131 LINE",
"237 712 LINE",
"109 712 LINE",
"54 0 LINE"
);
},
{
closed = 1;
nodes = (
"196 0 LINE",
"233 470 LINE",
"201 461 LINE",
"364 117 LINE",
"469 117 LINE",
"680 461 LINE",
"654 470 LINE",
"617 0 LINE",
"760 0 LINE",
"816 712 LINE",
"690 712 LINE",
"404 248 LINE",
"446 248 LINE",
"238 712 LINE",
"110 712 LINE",
"54 0 LINE"
);
}
);
};
layerId = "E1B555A7-F4E1-459C-9C1A-AE952106EEF9";
leftMetricsKey = "=H+2";
rightMetricsKey = "=H+2";
paths = (
{
closed = 1;
nodes = (
"196 0 LINE",
"233 470 LINE",
"194 461 LINE",
"355 0 LINE",
"460 0 LINE",
"692 461 LINE",
"655 470 LINE",
"618 0 LINE",
"761 0 LINE",
"816 712 LINE",
"689 712 LINE",
"392 131 LINE",
"444 131 LINE",
"237 712 LINE",
"109 712 LINE",
"54 0 LINE"
);
}
);
width = 853;
}
);
leftKerningGroup = H;
leftMetricsKey = H;
rightKerningGroup = H;
rightMetricsKey = H;
unicode = 004D;
userData = {
anchors = (
);
b = {
};
com.typemytype.robofont.layerData = {
b = {
anchors = (
);
components = (
);
contours = (
);
lib = {
};
name = M;
unicodes = (
);
width = 1899;
};
};
components = (
);
contours = (
);
lib = {
};
name = M;
unicodes = (
);
width = 1984;
};
},
{
glyphname = N;
lastChange = "2016-09-21 12:42:21 +0000";
layers = (
{
anchors = (
{
name = bottom;
position = "{352, 0}";
},
{
name = top;
position = "{408, 712}";
}
);
background = {
anchors = (
{
name = bottom;
position = "{352, 0}";
},
{
name = top;
position = "{408, 712}";
}
);
paths = (
{
closed = 1;
nodes = (
"146 0 LINE",
"146 650 LINE",
"124 649 LINE",
"605 0 LINE",
"648 0 LINE",
"648 712 LINE",
"597 712 LINE",
"597 62 LINE",
"620 63 LINE",
"139 712 LINE",
"95 712 LINE",
"95 0 LINE"
);
}
);
};
layerId = "9E718F8A-2CEA-4931-B05D-987794BD97DA";
paths = (
{
closed = 1;
nodes = (
"127 0 LINE",
"179 650 LINE",
"158 649 LINE",
"585 0 LINE",
"628 0 LINE",
"684 712 LINE",
"632 712 LINE",
"581 62 LINE",
"604 63 LINE",
"176 712 LINE",
"131 712 LINE",
"76 0 LINE"
);
}
);
width = 741;
},
{
anchors = (
{
name = bottom;
position = "{362, 0}";
},
{
name = top;
position = "{416, 712}";
}
);
background = {
paths = (
{
closed = 1;
nodes = (
"221 0 LINE",
"221 500 LINE",
"194 479 LINE",
"570 0 LINE",
"691 0 LINE",
"691 712 LINE",
"538 712 LINE",
"538 212 LINE",
"567 232 LINE",
"189 712 LINE",
"70 712 LINE",
"70 0 LINE"
);
}
);
};
layerId = "E1B555A7-F4E1-459C-9C1A-AE952106EEF9";
paths = (
{
closed = 1;
nodes = (
"202 0 LINE",
"242 500 LINE",
"209 479 LINE",
"549 0 LINE",
"671 0 LINE",
"727 712 LINE",
"575 712 LINE",
"535 212 LINE",
"569 232 LINE",
"226 712 LINE",
"107 712 LINE",
"51 0 LINE"
);
}
);
width = 761;
}
);
leftKerningGroup = H;
leftMetricsKey = H;
rightKerningGroup = H;
rightMetricsKey = H;
unicode = 004E;
userData = {
anchors = (
);
b = {
};
com.typemytype.robofont.layerData = {
b = {
anchors = (
);
components = (
);
contours = (
);
lib = {
};
name = N;
unicodes = (
);
width = 1499;
};
};
components = (
);
contours = (
);
lib = {
};
name = N;
unicodes = (
);
width = 1557;
};
},
{
glyphname = Eng;
lastChange = "2016-09-21 12:42:33 +0000";
layers = (
{
background = {
paths = (
{
closed = 1;
nodes = (
"596 62 LINE",
"619 63 LINE",
"138 712 LINE",
"94 712 LINE",
"94 0 LINE",
"145 0 LINE",
"145 650 LINE",
"123 649 LINE",
"604 0 LINE",
"596 38 LINE",
"596 -13 LINE SMOOTH",
"596 -91 OFFCURVE",
"553 -130 OFFCURVE",
"477 -136 CURVE SMOOTH",
"423 -140 LINE",
"427 -188 LINE",
"483 -184 LINE SMOOTH",
"600 -176 OFFCURVE",
"647 -109 OFFCURVE",
"647 -9 CURVE SMOOTH",
"647 712 LINE",
"596 712 LINE"
);
}
);
};
layerId = "9E718F8A-2CEA-4931-B05D-987794BD97DA";
paths = (
{
closed = 1;
nodes = (
"581 62 LINE",
"604 63 LINE",
"176 712 LINE",
"131 712 LINE",
"76 0 LINE",
"127 0 LINE",
"179 650 LINE",
"158 649 LINE",
"585 0 LINE",
"580 38 LINE",
"576 -13 LINE SMOOTH",
"570 -91 OFFCURVE",
"524 -130 OFFCURVE",
"446 -136 CURVE SMOOTH",
"393 -140 LINE",
"393 -188 LINE",
"449 -184 LINE SMOOTH",
"567 -176 OFFCURVE",
"620 -109 OFFCURVE",
"627 -9 CURVE SMOOTH",
"684 712 LINE",
"632 712 LINE"
);
}
);
width = 741;
},
{
background = {
paths = (
{
closed = 1;
nodes = (
"538 212 LINE",
"567 232 LINE",
"189 712 LINE",
"70 712 LINE",
"70 0 LINE",
"221 0 LINE",
"221 500 LINE",
"194 479 LINE",
"565 7 LINE",
"537 92 LINE",
"537 24 LINE SMOOTH",
"537 -27 OFFCURVE",
"505 -60 OFFCURVE",
"449 -63 CURVE SMOOTH",
"372 -68 LINE",
"382 -190 LINE",
"477 -185 LINE SMOOTH",
"619 -177 OFFCURVE",
"691 -105 OFFCURVE",
"691 30 CURVE SMOOTH",
"691 712 LINE",
"538 712 LINE"
);
}
);
};
layerId = "E1B555A7-F4E1-459C-9C1A-AE952106EEF9";
paths = (
{
closed = 1;
nodes = (
"535 212 LINE",
"569 232 LINE",
"226 712 LINE",
"107 712 LINE",
"51 0 LINE",
"202 0 LINE",
"242 500 LINE",
"209 479 LINE",
"549 0 LINE",
"525 92 LINE",
"520 28 LINE SMOOTH",
"516 -27 OFFCURVE",
"481 -60 OFFCURVE",
"420 -64 CURVE SMOOTH",
"343 -68 LINE",
"351 -190 LINE",
"433 -185 LINE SMOOTH",
"586 -177 OFFCURVE",
"662 -105 OFFCURVE",
"674 40 CURVE SMOOTH",
"727 712 LINE",
"575 712 LINE"
);
}
);
width = 761;
}
);
leftKerningGroup = H;
leftMetricsKey = H;
rightKerningGroup = H;
rightMetricsKey = H;
unicode = 014A;
userData = {
com.typemytype.robofont.layerData = {
b = {
anchors = (
);
components = (
);
contours = (
);
lib = {
};
name = Eng;
unicodes = (
);
width = 1495;
};
};
};
},
{
glyphname = O;
lastChange = "2016-09-21 12:21:56 +0000";
layers = (
{
anchors = (
{
name = bottom;
position = "{362, 0}";
},
{
name = center;
position = "{391, 357}";
},
{
name = ogonek;
position = "{469, 10}";
},
{
name = top;
position = "{417, 712}";
},
{
name = topleft;
position = "{63, 712}";
},
{
name = topright;
position = "{447, 712}";
}
);
background = {
anchors = (
{
name = bottom;
position = "{1170, 0}";
},
{
name = center;
position = "{1227, 357}";
},
{
name = ogonek;
position = "{1278, 10}";
},
{
name = top;
position = "{1281, 712}";
},
{
name = topleft;
position = "{926, 712}";
},
{
name = topright;
position = "{1311, 712}";
}
);
paths = (
{
closed = 1;
nodes = (
"576 -8 OFFCURVE",
"697 131 OFFCURVE",
"697 357 CURVE SMOOTH",
"697 582 OFFCURVE",
"577 720 OFFCURVE",
"381 720 CURVE SMOOTH",
"185 720 OFFCURVE",
"66 582 OFFCURVE",
"66 356 CURVE SMOOTH",
"66 131 OFFCURVE",
"187 -8 OFFCURVE",
"381 -8 CURVE SMOOTH"
);
},
{
closed = 1;
nodes = (
"218 42 OFFCURVE",
"123 158 OFFCURVE",
"123 357 CURVE SMOOTH",
"123 556 OFFCURVE",
"218 670 OFFCURVE",
"381 670 CURVE SMOOTH",
"545 670 OFFCURVE",
"639 557 OFFCURVE",
"639 357 CURVE SMOOTH",
"639 157 OFFCURVE",
"544 42 OFFCURVE",
"381 42 CURVE SMOOTH"
);
}
);
};
layerId = "9E718F8A-2CEA-4931-B05D-987794BD97DA";
paths = (
{
closed = 1;
nodes = (
"579 -8 OFFCURVE",
"706 146 OFFCURVE",
"706 387 CURVE SMOOTH",
"706 595 OFFCURVE",
"590 720 OFFCURVE",
"398 720 CURVE SMOOTH",
"201 720 OFFCURVE",
"74 566 OFFCURVE",
"74 324 CURVE SMOOTH",
"74 117 OFFCURVE",
"190 -8 OFFCURVE",
"381 -8 CURVE SMOOTH"
);
},
{
closed = 1;
nodes = (
"221 43 OFFCURVE",
"131 143 OFFCURVE",
"131 323 CURVE SMOOTH",
"131 539 OFFCURVE",
"232 669 OFFCURVE",
"398 669 CURVE SMOOTH",
"559 669 OFFCURVE",
"648 569 OFFCURVE",
"648 388 CURVE SMOOTH",
"648 173 OFFCURVE",
"547 43 OFFCURVE",
"382 43 CURVE SMOOTH"
);
}
);
width = 763;
},
{
anchors = (
{
name = bottom;
position = "{380, 0}";
},
{
name = center;
position = "{408, 357}";
},
{
name = ogonek;
position = "{500, 10}";
},
{
name = top;
position = "{434, 712}";
},
{
name = topleft;
position = "{59, 712}";
},
{
name = topright;
position = "{466, 712}";
}
);
background = {
paths = (
{
closed = 1;
nodes = (
"614 -9 OFFCURVE",
"747 133 OFFCURVE",
"747 357 CURVE SMOOTH",
"747 580 OFFCURVE",
"614 721 OFFCURVE",
"399 721 CURVE SMOOTH",
"184 721 OFFCURVE",
"49 580 OFFCURVE",
"49 357 CURVE SMOOTH",
"49 133 OFFCURVE",
"184 -9 OFFCURVE",
"399 -9 CURVE SMOOTH"
);
},
{
closed = 1;
nodes = (
"284 117 OFFCURVE",
"212 198 OFFCURVE",
"212 357 CURVE SMOOTH",
"212 515 OFFCURVE",
"284 595 OFFCURVE",
"399 595 CURVE SMOOTH",
"514 595 OFFCURVE",
"586 514 OFFCURVE",
"586 357 CURVE SMOOTH",
"586 199 OFFCURVE",
"514 117 OFFCURVE",
"399 117 CURVE SMOOTH"
);
}
);
};
layerId = "E1B555A7-F4E1-459C-9C1A-AE952106EEF9";
paths = (
{
closed = 1;
nodes = (
"616 -10 OFFCURVE",
"756 144 OFFCURVE",
"756 380 CURVE SMOOTH",
"756 592 OFFCURVE",
"623 722 OFFCURVE",
"412 722 CURVE SMOOTH",
"198 722 OFFCURVE",
"58 568 OFFCURVE",
"58 332 CURVE SMOOTH",
"58 120 OFFCURVE",
"191 -10 OFFCURVE",
"402 -10 CURVE SMOOTH"
);
},
{
closed = 1;
nodes = (
"285 117 OFFCURVE",
"220 194 OFFCURVE",
"220 332 CURVE SMOOTH",
"220 496 OFFCURVE",
"293 595 OFFCURVE",
"414 595 CURVE SMOOTH",
"527 595 OFFCURVE",
"594 518 OFFCURVE",
"594 380 CURVE SMOOTH",
"594 214 OFFCURVE",
"519 117 OFFCURVE",
"401 117 CURVE SMOOTH"
);
}
);
width = 797;
}
);
leftKerningGroup = O;
rightKerningGroup = O;
unicode = 004F;
userData = {
anchors = (
);
b = {
};
com.typemytype.robofont.guides = (
);
com.typemytype.robofont.layerData = {
b = {
anchors = (
);
components = (
);
contours = (
);
lib = {
};
name = O;
unicodes = (
);
width = 1597;
};
};
components = (
);
contours = (
);
lib = {
};
name = O;
unicodes = (
);
width = 1604;
};
},
{
glyphname = Ohorn;
lastChange = "2016-09-21 12:21:56 +0000";
layers = (
{
anchors = (
{
name = bottom;
position = "{363, 0}";
},
{
name = top;
position = "{417, 712}";
}
);
background = {
anchors = (
{
name = bottom;
position = "{1070, 0}";
},
{
name = top;
position = "{1124, 712}";
}
);
paths = (
{
closed = 1;
nodes = (
"575 -8 OFFCURVE",
"697 131 OFFCURVE",
"697 357 CURVE SMOOTH",
"697 513 OFFCURVE",
"639 627 OFFCURVE",
"534 683 CURVE",
"540 670 LINE",
"639 670 OFFCURVE",
"697 724 OFFCURVE",
"697 817 CURVE SMOOTH",
"697 839 LINE",
"646 839 LINE",
"646 826 LINE SMOOTH",
"646 744 OFFCURVE",
"614 713 OFFCURVE",
"527 712 CURVE SMOOTH",
"487 712 OFFCURVE",
"433 720 OFFCURVE",
"385 720 CURVE SMOOTH",
"185 720 OFFCURVE",
"66 582 OFFCURVE",
"66 356 CURVE SMOOTH",
"66 131 OFFCURVE",
"188 -8 OFFCURVE",
"381 -8 CURVE SMOOTH"
);
},
{
closed = 1;
nodes = (
"218 42 OFFCURVE",
"123 158 OFFCURVE",
"123 357 CURVE SMOOTH",
"123 556 OFFCURVE",
"218 670 OFFCURVE",
"381 670 CURVE SMOOTH",
"545 670 OFFCURVE",
"639 557 OFFCURVE",
"639 357 CURVE SMOOTH",
"639 157 OFFCURVE",
"544 42 OFFCURVE",
"381 42 CURVE SMOOTH"
);
}
);
};
guideLines = (
{
angle = 90;
position = "{675, 469}";
}
);
layerId = "9E718F8A-2CEA-4931-B05D-987794BD97DA";
paths = (
{
closed = 1;
nodes = (
"579 -8 OFFCURVE",
"706 146 OFFCURVE",
"706 387 CURVE SMOOTH",
"706 543 OFFCURVE",
"639 638 OFFCURVE",
"565 680 CURVE",
"569 670 LINE",
"683 670 OFFCURVE",
"734 724 OFFCURVE",
"742 817 CURVE SMOOTH",
"743 839 LINE",
"693 839 LINE",
"692 826 LINE SMOOTH",
"686 744 OFFCURVE",
"651 712 OFFCURVE",
"564 712 CURVE SMOOTH",
"503 712 OFFCURVE",
"457 720 OFFCURVE",
"408 720 CURVE SMOOTH",
"199 720 OFFCURVE",
"74 566 OFFCURVE",
"74 324 CURVE SMOOTH",
"74 117 OFFCURVE",
"190 -8 OFFCURVE",
"381 -8 CURVE SMOOTH"
);
},
{
closed = 1;
nodes = (
"221 43 OFFCURVE",
"131 143 OFFCURVE",
"131 323 CURVE SMOOTH",
"131 539 OFFCURVE",
"232 669 OFFCURVE",
"398 669 CURVE SMOOTH",
"559 669 OFFCURVE",
"648 569 OFFCURVE",
"648 388 CURVE SMOOTH",
"648 173 OFFCURVE",
"547 43 OFFCURVE",
"382 43 CURVE SMOOTH"
);
}
);
width = 763;
},
{
anchors = (
{
name = bottom;
position = "{380, 0}";
},
{
name = top;
position = "{434, 712}";
}
);
background = {
anchors = (
{
name = bottom;
position = "{399, 0}";
},
{
name = top;
position = "{453, 712}";
}
);
paths = (
{
closed = 1;
nodes = (
"614 -9 OFFCURVE",
"747 133 OFFCURVE",
"747 357 CURVE SMOOTH",
"747 492 OFFCURVE",
"701 596 OFFCURVE",
"610 658 CURVE",
"594 636 LINE",
"684 636 OFFCURVE",
"747 702 OFFCURVE",
"747 795 CURVE SMOOTH",
"747 834 LINE",
"612 834 LINE",
"612 814 LINE SMOOTH",
"612 739 OFFCURVE",
"589 712 OFFCURVE",
"525 712 CURVE SMOOTH",
"481 712 OFFCURVE",
"449 721 OFFCURVE",
"401 721 CURVE SMOOTH",
"184 721 OFFCURVE",
"49 580 OFFCURVE",
"49 357 CURVE SMOOTH",
"49 133 OFFCURVE",
"184 -9 OFFCURVE",
"399 -9 CURVE SMOOTH"
);
},
{
closed = 1;
nodes = (
"284 117 OFFCURVE",
"212 198 OFFCURVE",
"212 357 CURVE SMOOTH",
"212 515 OFFCURVE",
"284 595 OFFCURVE",
"399 595 CURVE SMOOTH",
"514 595 OFFCURVE",
"586 514 OFFCURVE",
"586 357 CURVE SMOOTH",
"586 199 OFFCURVE",
"514 117 OFFCURVE",
"399 117 CURVE SMOOTH"
);
}
);
};
guideLines = (
{
angle = 90;
position = "{969, 1010}";
}
);
layerId = "E1B555A7-F4E1-459C-9C1A-AE952106EEF9";
paths = (
{
closed = 1;
nodes = (
"616 -10 OFFCURVE",
"756 144 OFFCURVE",
"756 380 CURVE SMOOTH",
"756 505 OFFCURVE",
"711 601 OFFCURVE",
"632 658 CURVE",
"627 636 LINE",
"720 636 OFFCURVE",
"784 702 OFFCURVE",
"791 795 CURVE SMOOTH",
"794 834 LINE",
"659 834 LINE",
"657 814 LINE SMOOTH",
"651 739 OFFCURVE",
"629 712 OFFCURVE",
"562 712 CURVE SMOOTH",
"517 712 OFFCURVE",
"481 722 OFFCURVE",
"422 722 CURVE SMOOTH",
"198 722 OFFCURVE",
"58 568 OFFCURVE",
"58 332 CURVE SMOOTH",
"58 120 OFFCURVE",
"191 -10 OFFCURVE",
"402 -10 CURVE SMOOTH"
);
},
{
closed = 1;
nodes = (
"285 117 OFFCURVE",
"220 194 OFFCURVE",
"220 332 CURVE SMOOTH",
"220 496 OFFCURVE",
"293 595 OFFCURVE",
"414 595 CURVE SMOOTH",
"527 595 OFFCURVE",
"594 518 OFFCURVE",
"594 380 CURVE SMOOTH",
"594 214 OFFCURVE",
"519 117 OFFCURVE",
"401 117 CURVE SMOOTH"
);
}
);
width = 797;
}
);
leftKerningGroup = O;
leftMetricsKey = O;
widthMetricsKey = O;
rightKerningGroup = O;
unicode = 01A0;
},
{
glyphname = Oogonek;
lastChange = "2016-09-21 12:21:56 +0000";
layers = (
{
anchors = (
{
name = top;
position = "{417, 712}";
}
);
background = {
anchors = (
{
name = top;
position = "{1225, 712}";
}
);
paths = (
{
closed = 1;
nodes = (
"615 43 OFFCURVE",
"697 170 OFFCURVE",
"697 357 CURVE SMOOTH",
"697 582 OFFCURVE",
"576 720 OFFCURVE",
"381 720 CURVE SMOOTH",
"186 720 OFFCURVE",
"66 582 OFFCURVE",
"66 356 CURVE SMOOTH",
"66 120 OFFCURVE",
"200 -21 OFFCURVE",
"408 -7 CURVE",
"400 11 LINE",
"365 -11 OFFCURVE",
"343 -48 OFFCURVE",
"343 -89 CURVE SMOOTH",
"343 -150 OFFCURVE",
"390 -193 OFFCURVE",
"458 -193 CURVE SMOOTH",
"489 -193 OFFCURVE",
"517 -185 OFFCURVE",
"538 -170 CURVE",
"522 -131 LINE",
"501 -142 OFFCURVE",
"480 -149 OFFCURVE",
"463 -149 CURVE SMOOTH",
"420 -149 OFFCURVE",
"394 -124 OFFCURVE",
"394 -83 CURVE SMOOTH",
"394 -40 OFFCURVE",
"420 -11 OFFCURVE",
"471 3 CURVE SMOOTH"
);
},
{
closed = 1;
nodes = (
"123 556 OFFCURVE",
"218 670 OFFCURVE",
"381 670 CURVE SMOOTH",
"545 670 OFFCURVE",
"639 557 OFFCURVE",
"639 357 CURVE SMOOTH",
"639 157 OFFCURVE",
"544 42 OFFCURVE",
"381 42 CURVE SMOOTH",
"218 42 OFFCURVE",
"123 158 OFFCURVE",
"123 357 CURVE SMOOTH"
);
}
);
};
layerId = "9E718F8A-2CEA-4931-B05D-987794BD97DA";
paths = (
{
closed = 1;
nodes = (
"600 33 OFFCURVE",
"706 163 OFFCURVE",
"706 387 CURVE SMOOTH",
"706 595 OFFCURVE",
"590 720 OFFCURVE",
"398 720 CURVE SMOOTH",
"201 720 OFFCURVE",
"74 566 OFFCURVE",
"74 324 CURVE SMOOTH",
"74 117 OFFCURVE",
"190 -7 OFFCURVE",
"374 -7 CURVE",
"382 10 LINE",
"342 -9 OFFCURVE",
"317 -46 OFFCURVE",
"317 -94 CURVE SMOOTH",
"317 -154 OFFCURVE",
"359 -193 OFFCURVE",
"425 -193 CURVE SMOOTH",
"457 -193 OFFCURVE",
"488 -182 OFFCURVE",
"506 -170 CURVE",
"493 -130 LINE",
"471 -143 OFFCURVE",
"447 -149 OFFCURVE",
"431 -149 CURVE SMOOTH",
"392 -149 OFFCURVE",
"369 -128 OFFCURVE",
"369 -87 CURVE SMOOTH",
"369 -44 OFFCURVE",
"396 -13 OFFCURVE",
"455 0 CURVE SMOOTH"
);
},
{
closed = 1;
nodes = (
"221 43 OFFCURVE",
"131 143 OFFCURVE",
"131 323 CURVE SMOOTH",
"131 539 OFFCURVE",
"232 669 OFFCURVE",
"398 669 CURVE SMOOTH",
"559 669 OFFCURVE",
"648 569 OFFCURVE",
"648 388 CURVE SMOOTH",
"648 173 OFFCURVE",
"547 43 OFFCURVE",
"382 43 CURVE SMOOTH"
);
}
);
width = 763;
},
{
anchors = (
{
name = top;
position = "{434, 712}";
}
);
background = {
paths = (
{
closed = 1;
nodes = (
"662 49 OFFCURVE",
"747 177 OFFCURVE",
"747 357 CURVE SMOOTH",
"747 580 OFFCURVE",
"614 721 OFFCURVE",
"399 721 CURVE SMOOTH",
"184 721 OFFCURVE",
"49 580 OFFCURVE",
"49 357 CURVE SMOOTH",
"49 126 OFFCURVE",
"192 -16 OFFCURVE",
"415 -9 CURVE",
"402 12 LINE",
"368 -11 OFFCURVE",
"348 -48 OFFCURVE",
"348 -88 CURVE SMOOTH",
"348 -153 OFFCURVE",
"402 -199 OFFCURVE",
"478 -199 CURVE SMOOTH",
"514 -199 OFFCURVE",
"549 -192 OFFCURVE",
"580 -179 CURVE",
"563 -106 LINE",
"543 -114 OFFCURVE",
"525 -118 OFFCURVE",
"508 -118 CURVE SMOOTH",
"470 -118 OFFCURVE",
"448 -100 OFFCURVE",
"448 -65 CURVE SMOOTH",
"448 -31 OFFCURVE",
"470 -8 OFFCURVE",
"512 5 CURVE SMOOTH"
);
},
{
closed = 1;
nodes = (
"212 515 OFFCURVE",
"284 595 OFFCURVE",
"399 595 CURVE SMOOTH",
"514 595 OFFCURVE",
"586 514 OFFCURVE",
"586 357 CURVE SMOOTH",
"586 199 OFFCURVE",
"514 117 OFFCURVE",
"399 117 CURVE SMOOTH",
"284 117 OFFCURVE",
"212 198 OFFCURVE",
"212 357 CURVE SMOOTH"
);
}
);
};
layerId = "E1B555A7-F4E1-459C-9C1A-AE952106EEF9";
paths = (
{
closed = 1;
nodes = (
"646 34 OFFCURVE",
"756 169 OFFCURVE",
"756 380 CURVE SMOOTH",
"756 592 OFFCURVE",
"627 722 OFFCURVE",
"412 722 CURVE SMOOTH",
"198 722 OFFCURVE",
"58 568 OFFCURVE",
"58 332 CURVE SMOOTH",
"58 120 OFFCURVE",
"191 -10 OFFCURVE",
"395 -9 CURVE",
"384 12 LINE",
"342 -13 OFFCURVE",
"322 -48 OFFCURVE",
"322 -92 CURVE SMOOTH",
"322 -155 OFFCURVE",
"372 -199 OFFCURVE",
"450 -199 CURVE SMOOTH",
"483 -199 OFFCURVE",
"515 -192 OFFCURVE",
"546 -179 CURVE",
"535 -106 LINE",
"513 -114 OFFCURVE",
"495 -118 OFFCURVE",
"478 -118 CURVE SMOOTH",
"445 -118 OFFCURVE",
"424 -100 OFFCURVE",
"424 -68 CURVE SMOOTH",
"424 -34 OFFCURVE",
"448 -10 OFFCURVE",
"496 1 CURVE SMOOTH"
);
},
{
closed = 1;
nodes = (
"285 117 OFFCURVE",
"220 194 OFFCURVE",
"220 332 CURVE SMOOTH",
"220 496 OFFCURVE",
"293 595 OFFCURVE",
"414 595 CURVE SMOOTH",
"527 595 OFFCURVE",
"594 518 OFFCURVE",
"594 380 CURVE SMOOTH",
"594 214 OFFCURVE",
"519 117 OFFCURVE",
"401 117 CURVE SMOOTH"
);
}
);
width = 797;
}
);
leftKerningGroup = O;
leftMetricsKey = O;
rightKerningGroup = O;
rightMetricsKey = O;
unicode = 01EA;
},
{
glyphname = Oslash;
lastChange = "2016-09-21 12:21:56 +0000";
layers = (
{
anchors = (
{
name = bottom;
position = "{362, 0}";
},
{
name = top;
position = "{417, 712}";
}
);
background = {
anchors = (
{
name = bottom;
position = "{362, 0}";
},
{
name = top;
position = "{417, 712}";
}
);
paths = (
{
closed = 1;
nodes = (
"576 -8 OFFCURVE",
"697 131 OFFCURVE",
"697 357 CURVE SMOOTH",
"697 582 OFFCURVE",
"577 720 OFFCURVE",
"381 720 CURVE SMOOTH",
"185 720 OFFCURVE",
"66 582 OFFCURVE",
"66 356 CURVE SMOOTH",
"66 131 OFFCURVE",
"187 -8 OFFCURVE",
"381 -8 CURVE SMOOTH"
);
},
{
closed = 1;
nodes = (
"625 728 LINE",
"585 751 LINE",
"137 -16 LINE",
"178 -39 LINE"
);
},
{
closed = 1;
nodes = (
"218 42 OFFCURVE",
"123 158 OFFCURVE",
"123 357 CURVE SMOOTH",
"123 556 OFFCURVE",
"218 670 OFFCURVE",
"381 670 CURVE SMOOTH",
"545 670 OFFCURVE",
"639 557 OFFCURVE",
"639 357 CURVE SMOOTH",
"639 157 OFFCURVE",
"544 42 OFFCURVE",
"381 42 CURVE SMOOTH"
);
}
);
};
layerId = "9E718F8A-2CEA-4931-B05D-987794BD97DA";
paths = (
{
closed = 1;
nodes = (
"579 -8 OFFCURVE",
"706 146 OFFCURVE",
"706 387 CURVE SMOOTH",
"706 595 OFFCURVE",
"590 720 OFFCURVE",
"398 720 CURVE SMOOTH",
"201 720 OFFCURVE",
"74 566 OFFCURVE",
"74 324 CURVE SMOOTH",
"74 117 OFFCURVE",
"190 -8 OFFCURVE",
"381 -8 CURVE SMOOTH"
);
},
{
closed = 1;
nodes = (
"221 43 OFFCURVE",
"131 143 OFFCURVE",
"131 323 CURVE SMOOTH",
"131 539 OFFCURVE",
"232 669 OFFCURVE",
"398 669 CURVE SMOOTH",
"559 669 OFFCURVE",
"648 569 OFFCURVE",
"648 388 CURVE SMOOTH",
"648 173 OFFCURVE",
"547 43 OFFCURVE",
"382 43 CURVE SMOOTH"
);
},
{
closed = 1;
nodes = (
"665 725 LINE",
"625 751 LINE",
"116 -13 LINE",
"156 -39 LINE"
);
}
);
width = 763;
},
{
anchors = (
{
name = bottom;
position = "{380, 0}";
},
{
name = top;
position = "{434, 712}";
}
);
background = {
paths = (
{
closed = 1;
nodes = (
"614 -9 OFFCURVE",
"747 133 OFFCURVE",
"747 357 CURVE SMOOTH",
"747 580 OFFCURVE",
"614 721 OFFCURVE",
"399 721 CURVE SMOOTH",
"184 721 OFFCURVE",
"49 580 OFFCURVE",
"49 357 CURVE SMOOTH",
"49 133 OFFCURVE",
"184 -9 OFFCURVE",
"399 -9 CURVE SMOOTH"
);
},
{
closed = 1;
nodes = (
"680 720 LINE",
"577 782 LINE",
"117 -8 LINE",
"220 -70 LINE"
);
},
{
closed = 1;
nodes = (
"284 117 OFFCURVE",
"212 198 OFFCURVE",
"212 357 CURVE SMOOTH",
"212 515 OFFCURVE",
"284 595 OFFCURVE",
"399 595 CURVE SMOOTH",
"514 595 OFFCURVE",
"586 514 OFFCURVE",
"586 357 CURVE SMOOTH",
"586 199 OFFCURVE",
"514 117 OFFCURVE",
"399 117 CURVE SMOOTH"
);
}
);
};
layerId = "E1B555A7-F4E1-459C-9C1A-AE952106EEF9";
paths = (
{
closed = 1;
nodes = (
"616 -10 OFFCURVE",
"756 144 OFFCURVE",
"756 380 CURVE SMOOTH",
"756 592 OFFCURVE",
"623 722 OFFCURVE",
"412 722 CURVE SMOOTH",
"198 722 OFFCURVE",
"58 568 OFFCURVE",
"58 332 CURVE SMOOTH",
"58 120 OFFCURVE",
"191 -10 OFFCURVE",
"402 -10 CURVE SMOOTH"
);
},
{
closed = 1;
nodes = (
"285 117 OFFCURVE",
"220 194 OFFCURVE",
"220 332 CURVE SMOOTH",
"220 496 OFFCURVE",
"293 595 OFFCURVE",
"414 595 CURVE SMOOTH",
"527 595 OFFCURVE",
"594 518 OFFCURVE",
"594 380 CURVE SMOOTH",
"594 214 OFFCURVE",
"519 117 OFFCURVE",
"401 117 CURVE SMOOTH"
);
},
{
closed = 1;
nodes = (
"717 720 LINE",
"619 782 LINE",
"97 -8 LINE",
"196 -70 LINE"
);
}
);
width = 797;
}
);
leftKerningGroup = O;
leftMetricsKey = O;
rightKerningGroup = O;
rightMetricsKey = O;
unicode = 00D8;
userData = {
com.typemytype.robofont.layerData = {
b = {
anchors = (
);
components = (
);
contours = (
);
lib = {
};
name = Oslash;
unicodes = (
);
width = 1597;
};
};
};
},
{
glyphname = OE;
lastChange = "2016-09-21 12:21:56 +0000";
layers = (
{
anchors = (
{
name = bottom;
position = "{518, 0}";
},
{
name = top;
position = "{573, 712}";
}
);
background = {
anchors = (
{
name = bottom;
position = "{1326, 0}";
},
{
name = top;
position = "{1436, 712}";
}
);
paths = (
{
closed = 1;
nodes = (
"983 0 LINE",
"987 48 LINE",
"606 48 LINE",
"628 337 LINE",
"989 337 LINE",
"993 386 LINE",
"632 386 LINE",
"654 664 LINE",
"1035 664 LINE",
"1038 712 LINE",
"604 712 LINE",
"599 645 LINE",
"597 629 LINE",
"554 86 LINE",
"553 67 LINE",
"548 0 LINE"
);
},
{
closed = 1;
nodes = (
"616 651 LINE",
"566 697 OFFCURVE",
"499 720 OFFCURVE",
"418 720 CURVE SMOOTH",
"222 720 OFFCURVE",
"92 582 OFFCURVE",
"75 356 CURVE SMOOTH",
"58 131 OFFCURVE",
"167 -8 OFFCURVE",
"361 -8 CURVE SMOOTH",
"442 -8 OFFCURVE",
"512 15 OFFCURVE",
"570 62 CURVE",
"575 125 LINE",
"525 71 OFFCURVE",
"452 42 OFFCURVE",
"365 42 CURVE SMOOTH",
"202 42 OFFCURVE",
"116 158 OFFCURVE",
"132 357 CURVE SMOOTH",
"148 554 OFFCURVE",
"250 670 OFFCURVE",
"414 670 CURVE SMOOTH",
"502 670 OFFCURVE",
"570 641 OFFCURVE",
"611 588 CURVE"
);
}
);
};
layerId = "9E718F8A-2CEA-4931-B05D-987794BD97DA";
paths = (
{
closed = 1;
nodes = (
"455 -8 OFFCURVE",
"518 14 OFFCURVE",
"570 56 CURVE",
"575 125 LINE",
"525 71 OFFCURVE",
"452 43 OFFCURVE",
"382 43 CURVE SMOOTH",
"221 43 OFFCURVE",
"131 143 OFFCURVE",
"131 323 CURVE SMOOTH",
"131 539 OFFCURVE",
"232 669 OFFCURVE",
"408 669 CURVE SMOOTH",
"492 669 OFFCURVE",
"570 641 OFFCURVE",
"611 588 CURVE",
"615 654 LINE",
"550 704 OFFCURVE",
"478 720 OFFCURVE",
"408 720 CURVE SMOOTH",
"201 720 OFFCURVE",
"74 566 OFFCURVE",
"74 324 CURVE SMOOTH",
"74 117 OFFCURVE",
"190 -8 OFFCURVE",
"381 -8 CURVE SMOOTH"
);
},
{
closed = 1;
nodes = (
"983 0 LINE",
"987 48 LINE",
"606 48 LINE",
"654 664 LINE",
"1035 664 LINE",
"1038 712 LINE",
"604 712 LINE",
"599 645 LINE",
"597 629 LINE",
"554 86 LINE",
"553 67 LINE",
"548 0 LINE"
);
},
{
closed = 1;
nodes = (
"989 337 LINE",
"993 386 LINE",
"620 386 LINE",
"616 337 LINE"
);
}
);
width = 1057;
},
{
anchors = (
{
name = bottom;
position = "{515, 0}";
},
{
name = top;
position = "{571, 712}";
}
);
background = {
paths = (
{
closed = 1;
nodes = (
"999 0 LINE",
"1009 126 LINE",
"674 126 LINE",
"687 299 LINE",
"1002 299 LINE",
"1012 425 LINE",
"697 425 LINE",
"710 586 LINE",
"1045 586 LINE",
"1054 712 LINE",
"571 712 LINE",
"565 632 LINE",
"553 613 LINE",
"514 111 LINE",
"521 77 LINE",
"515 0 LINE"
);
},
{
closed = 1;
nodes = (
"591 654 LINE",
"559 698 OFFCURVE",
"498 721 OFFCURVE",
"416 721 CURVE SMOOTH",
"222 721 OFFCURVE",
"75 571 OFFCURVE",
"59 357 CURVE SMOOTH",
"42 141 OFFCURVE",
"165 -9 OFFCURVE",
"359 -9 CURVE SMOOTH",
"441 -9 OFFCURVE",
"505 15 OFFCURVE",
"544 61 CURVE",
"553 185 LINE",
"520 140 OFFCURVE",
"463 117 OFFCURVE",
"389 117 CURVE SMOOTH",
"270 117 OFFCURVE",
"209 203 OFFCURVE",
"221 357 CURVE SMOOTH",
"233 509 OFFCURVE",
"306 595 OFFCURVE",
"426 595 CURVE SMOOTH",
"500 595 OFFCURVE",
"554 572 OFFCURVE",
"581 527 CURVE"
);
}
);
};
layerId = "E1B555A7-F4E1-459C-9C1A-AE952106EEF9";
paths = (
{
closed = 1;
nodes = (
"443 -10 OFFCURVE",
"505 15 OFFCURVE",
"544 61 CURVE",
"553 185 LINE",
"520 140 OFFCURVE",
"463 117 OFFCURVE",
"401 117 CURVE SMOOTH",
"285 117 OFFCURVE",
"220 194 OFFCURVE",
"220 332 CURVE SMOOTH",
"220 496 OFFCURVE",
"293 595 OFFCURVE",
"434 595 CURVE SMOOTH",
"500 595 OFFCURVE",
"554 572 OFFCURVE",
"581 527 CURVE",
"591 660 LINE",
"559 702 OFFCURVE",
"480 722 OFFCURVE",
"412 722 CURVE SMOOTH",
"198 722 OFFCURVE",
"58 568 OFFCURVE",
"58 332 CURVE SMOOTH",
"58 120 OFFCURVE",
"191 -10 OFFCURVE",
"372 -10 CURVE SMOOTH"
);
},
{
closed = 1;
nodes = (
"999 0 LINE",
"1009 126 LINE",
"674 126 LINE",
"710 586 LINE",
"1045 586 LINE",
"1054 712 LINE",
"571 712 LINE",
"565 632 LINE",
"553 613 LINE",
"514 111 LINE",
"521 77 LINE",
"515 0 LINE"
);
},
{
closed = 1;
nodes = (
"1002 299 LINE",
"1012 425 LINE",
"681 425 LINE",
"671 299 LINE"
);
}
);
width = 1055;
}
);
leftKerningGroup = O;
leftMetricsKey = O;
rightKerningGroup = E;
rightMetricsKey = E;
unicode = 0152;
},
{
glyphname = P;
lastChange = "2016-09-21 12:43:12 +0000";
layers = (
{
anchors = (
{
name = bottom;
position = "{303, 0}";
},
{
name = top;
position = "{359, 712}";
}
);
background = {
anchors = (
{
name = bottom;
position = "{303, 0}";
},
{
name = top;
position = "{470, 712}";
}
);
paths = (
{
closed = 1;
nodes = (
"130 0 LINE",
"156 322 LINE",
"371 322 LINE SMOOTH",
"512 322 OFFCURVE",
"604 397 OFFCURVE",
"613 518 CURVE SMOOTH",
"622 639 OFFCURVE",
"543 712 OFFCURVE",
"401 712 CURVE SMOOTH",
"131 712 LINE",
"76 0 LINE"
);
},
{
closed = 1;
nodes = (
"183 664 LINE",
"395 664 LINE SMOOTH",
"510 664 OFFCURVE",
"566 611 OFFCURVE",
"558 518 CURVE SMOOTH",
"549 425 OFFCURVE",
"487 371 OFFCURVE",
"372 371 CURVE SMOOTH",
"160 371 LINE"
);
}
);
};
layerId = "9E718F8A-2CEA-4931-B05D-987794BD97DA";
paths = (
{
closed = 1;
nodes = (
"182 664 LINE",
"389 664 LINE SMOOTH",
"505 664 OFFCURVE",
"558 609 OFFCURVE",
"558 529 CURVE SMOOTH",
"558 422 OFFCURVE",
"487 371 OFFCURVE",
"364 371 CURVE SMOOTH",
"146 371 LINE",
"142 322 LINE",
"364 322 LINE SMOOTH",
"515 322 OFFCURVE",
"613 393 OFFCURVE",
"613 530 CURVE SMOOTH",
"613 636 OFFCURVE",
"537 712 OFFCURVE",
"390 712 CURVE SMOOTH",
"131 712 LINE",
"76 0 LINE",
"130 0 LINE"
);
}
);
width = 643;
},
{
anchors = (
{
name = bottom;
position = "{322, 0}";
},
{
name = top;
position = "{377, 712}";
}
);
background = {
paths = (
{
closed = 1;
nodes = (
"213 0 LINE",
"235 286 LINE",
"399 286 LINE SMOOTH",
"558 286 OFFCURVE",
"657 370 OFFCURVE",
"667 499 CURVE SMOOTH",
"677 629 OFFCURVE",
"592 712 OFFCURVE",
"432 712 CURVE SMOOTH",
"106 712 LINE",
"51 0 LINE"
);
},
{
closed = 1;
nodes = (
"260 588 LINE",
"402 588 LINE SMOOTH",
"484 588 OFFCURVE",
"518 556 OFFCURVE",
"514 498 CURVE SMOOTH",
"509 441 OFFCURVE",
"469 409 OFFCURVE",
"388 409 CURVE SMOOTH",
"245 409 LINE"
);
}
);
};
layerId = "E1B555A7-F4E1-459C-9C1A-AE952106EEF9";
paths = (
{
closed = 1;
nodes = (
"260 588 LINE",
"405 588 LINE SMOOTH",
"479 588 OFFCURVE",
"513 558 OFFCURVE",
"513 504 CURVE SMOOTH",
"513 444 OFFCURVE",
"472 409 OFFCURVE",
"390 409 CURVE SMOOTH",
"225 409 LINE",
"218 286 LINE",
"405 286 LINE SMOOTH",
"573 286 OFFCURVE",
"666 371 OFFCURVE",
"666 513 CURVE SMOOTH",
"666 630 OFFCURVE",
"579 712 OFFCURVE",
"426 712 CURVE SMOOTH",
"107 712 LINE",
"51 0 LINE",
"213 0 LINE"
);
}
);
width = 677;
}
);
leftKerningGroup = H;
leftMetricsKey = H;
rightKerningGroup = P;
unicode = 0050;
userData = {
anchors = (
);
b = {
};
com.typemytype.robofont.layerData = {
b = {
anchors = (
);
components = (
);
contours = (
{
points = (
{
segmentType = curve;
smooth = 1;
x = 266;
y = 0;
},
{
segmentType = line;
smooth = 1;
x = 1035;
y = 0;
},
{
smooth = 0;
x = 1084;
y = 0;
},
{
smooth = 0;
x = 1108;
y = 34;
},
{
segmentType = curve;
smooth = 1;
x = 1108;
y = 71;
},
{
smooth = 0;
x = 1108;
y = 107;
},
{
smooth = 0;
x = 1084;
y = 141;
},
{
segmentType = curve;
smooth = 1;
x = 1035;
y = 141;
},
{
segmentType = line;
smooth = 0;
x = 356;
y = 141;
},
{
segmentType = line;
smooth = 0;
x = 356;
y = 665;
},
{
segmentType = line;
smooth = 1;
x = 975;
y = 665;
},
{
smooth = 0;
x = 1024;
y = 665;
},
{
smooth = 0;
x = 1049;
y = 698;
},
{
segmentType = curve;
smooth = 1;
x = 1049;
y = 734;
},
{
smooth = 0;
x = 1049;
y = 770;
},
{
smooth = 0;
x = 1026;
y = 803;
},
{
segmentType = curve;
smooth = 1;
x = 975;
y = 803;
},
{
segmentType = line;
smooth = 0;
x = 356;
y = 803;
},
{
segmentType = line;
smooth = 0;
x = 356;
y = 1285;
},
{
segmentType = line;
smooth = 1;
x = 1007;
y = 1285;
},
{
smooth = 0;
x = 1056;
y = 1285;
},
{
smooth = 0;
x = 1080;
y = 1319;
},
{
segmentType = curve;
smooth = 1;
x = 1080;
y = 1356;
},
{
smooth = 0;
x = 1080;
y = 1392;
},
{
smooth = 0;
x = 1056;
y = 1426;
},
{
segmentType = curve;
smooth = 1;
x = 1007;
y = 1426;
},
{
segmentType = line;
smooth = 1;
x = 261;
y = 1426;
},
{
smooth = 0;
x = 213;
y = 1426;
},
{
smooth = 0;
x = 178;
y = 1383;
},
{
segmentType = curve;
smooth = 1;
x = 178;
y = 1340;
},
{
segmentType = line;
smooth = 1;
x = 178;
y = 86;
},
{
smooth = 0;
x = 178;
y = 41;
},
{
smooth = 0;
x = 222;
y = 0;
}
);
}
);
lib = {
};
name = P;
unicodes = (
);
width = 1201;
};
};
components = (
);
contours = (
);
lib = {
};
name = P;
unicodes = (
);
width = 1319;
};
},
{
glyphname = Thorn;
lastChange = "2016-09-21 12:43:56 +0000";
layers = (
{
anchors = (
{
name = bottom;
position = "{302, 0}";
},
{
name = top;
position = "{358, 712}";
}
);
background = {
paths = (
{
closed = 1;
nodes = (
"369 174 LINE SMOOTH",
"509 174 OFFCURVE",
"591 243 OFFCURVE",
"591 364 CURVE SMOOTH",
"591 483 OFFCURVE",
"511 550 OFFCURVE",
"369 550 CURVE SMOOTH",
"137 550 LINE",
"137 502 LINE",
"366 502 LINE SMOOTH",
"481 502 OFFCURVE",
"535 458 OFFCURVE",
"535 364 CURVE SMOOTH",
"535 269 OFFCURVE",
"480 222 OFFCURVE",
"366 222 CURVE SMOOTH",
"137 222 LINE",
"137 174 LINE"
);
},
{
closed = 1;
nodes = (
"148 0 LINE",
"148 712 LINE",
"94 712 LINE",
"94 0 LINE"
);
}
);
};
layerId = "9E718F8A-2CEA-4931-B05D-987794BD97DA";
paths = (
{
closed = 1;
nodes = (
"366 174 LINE SMOOTH",
"521 174 OFFCURVE",
"601 250 OFFCURVE",
"601 373 CURVE SMOOTH",
"601 491 OFFCURVE",
"523 550 OFFCURVE",
"388 550 CURVE SMOOTH",
"163 550 LINE",
"159 502 LINE",
"386 502 LINE SMOOTH",
"489 502 OFFCURVE",
"545 464 OFFCURVE",
"545 372 CURVE SMOOTH",
"545 274 OFFCURVE",
"489 222 OFFCURVE",
"364 222 CURVE SMOOTH",
"136 222 LINE",
"133 174 LINE"
);
},
{
closed = 1;
nodes = (
"130 0 LINE",
"186 712 LINE",
"131 712 LINE",
"76 0 LINE"
);
}
);
width = 642;
},
{
anchors = (
{
name = bottom;
position = "{322, 0}";
},
{
name = top;
position = "{377, 712}";
}
);
background = {
paths = (
{
closed = 1;
nodes = (
"401 154 LINE SMOOTH",
"553 154 OFFCURVE",
"646 232 OFFCURVE",
"646 362 CURVE SMOOTH",
"646 492 OFFCURVE",
"556 570 OFFCURVE",
"401 570 CURVE SMOOTH",
"209 570 LINE",
"209 445 LINE",
"374 445 LINE SMOOTH",
"457 445 OFFCURVE",
"494 420 OFFCURVE",
"494 362 CURVE SMOOTH",
"494 303 OFFCURVE",
"457 278 OFFCURVE",
"374 278 CURVE SMOOTH",
"209 278 LINE",
"209 154 LINE"
);
},
{
closed = 1;
nodes = (
"229 0 LINE",
"229 712 LINE",
"70 712 LINE",
"70 0 LINE"
);
}
);
};
layerId = "E1B555A7-F4E1-459C-9C1A-AE952106EEF9";
paths = (
{
closed = 1;
nodes = (
"413 154 LINE SMOOTH",
"569 154 OFFCURVE",
"655 232 OFFCURVE",
"655 375 CURVE SMOOTH",
"655 497 OFFCURVE",
"572 570 OFFCURVE",
"432 570 CURVE SMOOTH",
"196 570 LINE",
"196 445 LINE",
"413 445 LINE SMOOTH",
"475 445 OFFCURVE",
"504 420 OFFCURVE",
"504 366 CURVE SMOOTH",
"504 307 OFFCURVE",
"469 277 OFFCURVE",
"400 277 CURVE SMOOTH",
"179 277 LINE",
"179 154 LINE"
);
},
{
closed = 1;
nodes = (
"210 0 LINE",
"267 712 LINE",
"107 712 LINE",
"51 0 LINE"
);
}
);
width = 678;
}
);
leftKerningGroup = H;
leftMetricsKey = H;
rightKerningGroup = THORN;
unicode = 00DE;
},
{
glyphname = Q;
lastChange = "2016-09-21 12:21:56 +0000";
layers = (
{
anchors = (
{
name = bottom;
position = "{362, 0}";
},
{
name = center;
position = "{391, 357}";
},
{
name = ogonek;
position = "{469, 10}";
},
{
name = top;
position = "{417, 712}";
},
{
name = topleft;
position = "{63, 712}";
},
{
name = topright;
position = "{447, 712}";
}
);
background = {
anchors = (
{
name = bottom;
position = "{1150, 0}";
},
{
name = top;
position = "{1261, 712}";
}
);
paths = (
{
closed = 1;
nodes = (
"580 -149 LINE",
"532 -106 OFFCURVE",
"491 -55 OFFCURVE",
"460 12 CURVE",
"401 -4 LINE",
"435 -75 OFFCURVE",
"489 -150 OFFCURVE",
"538 -191 CURVE"
);
},
{
closed = 1;
nodes = (
"556 -8 OFFCURVE",
"688 131 OFFCURVE",
"706 357 CURVE SMOOTH",
"723 582 OFFCURVE",
"614 720 OFFCURVE",
"418 720 CURVE SMOOTH",
"222 720 OFFCURVE",
"92 582 OFFCURVE",
"75 356 CURVE SMOOTH",
"57 131 OFFCURVE",
"167 -8 OFFCURVE",
"361 -8 CURVE SMOOTH"
);
},
{
closed = 1;
nodes = (
"202 42 OFFCURVE",
"116 158 OFFCURVE",
"132 357 CURVE SMOOTH",
"147 556 OFFCURVE",
"251 670 OFFCURVE",
"414 670 CURVE SMOOTH",
"579 670 OFFCURVE",
"664 557 OFFCURVE",
"648 357 CURVE SMOOTH",
"632 157 OFFCURVE",
"528 42 OFFCURVE",
"365 42 CURVE SMOOTH"
);
}
);
};
layerId = "9E718F8A-2CEA-4931-B05D-987794BD97DA";
paths = (
{
closed = 1;
nodes = (
"580 -149 LINE",
"532 -106 OFFCURVE",
"491 -55 OFFCURVE",
"460 12 CURVE",
"401 -4 LINE",
"435 -75 OFFCURVE",
"489 -150 OFFCURVE",
"538 -191 CURVE"
);
},
{
closed = 1;
nodes = (
"579 -8 OFFCURVE",
"706 146 OFFCURVE",
"706 387 CURVE SMOOTH",
"706 595 OFFCURVE",
"590 720 OFFCURVE",
"398 720 CURVE SMOOTH",
"201 720 OFFCURVE",
"74 566 OFFCURVE",
"74 324 CURVE SMOOTH",
"74 117 OFFCURVE",
"190 -8 OFFCURVE",
"381 -8 CURVE SMOOTH"
);
},
{
closed = 1;
nodes = (
"221 43 OFFCURVE",
"131 143 OFFCURVE",
"131 323 CURVE SMOOTH",
"131 539 OFFCURVE",
"232 669 OFFCURVE",
"398 669 CURVE SMOOTH",
"559 669 OFFCURVE",
"648 569 OFFCURVE",
"648 388 CURVE SMOOTH",
"648 173 OFFCURVE",
"547 43 OFFCURVE",
"382 43 CURVE SMOOTH"
);
}
);
width = 763;
},
{
anchors = (
{
name = bottom;
position = "{380, 0}";
},
{
name = center;
position = "{408, 357}";
},
{
name = ogonek;
position = "{500, 10}";
},
{
name = top;
position = "{434, 712}";
},
{
name = topleft;
position = "{59, 712}";
},
{
name = topright;
position = "{466, 712}";
}
);
background = {
anchors = (
{
name = bottom;
position = "{380, 0}";
},
{
name = top;
position = "{490, 712}";
}
);
paths = (
{
closed = 1;
nodes = (
"675 -109 LINE",
"626 -66 OFFCURVE",
"573 -14 OFFCURVE",
"545 53 CURVE",
"401 -4 LINE",
"435 -75 OFFCURVE",
"490 -142 OFFCURVE",
"559 -191 CURVE"
);
},
{
closed = 1;
nodes = (
"594 -9 OFFCURVE",
"738 133 OFFCURVE",
"756 357 CURVE SMOOTH",
"774 580 OFFCURVE",
"651 721 OFFCURVE",
"436 721 CURVE SMOOTH",
"221 721 OFFCURVE",
"76 580 OFFCURVE",
"59 357 CURVE SMOOTH",
"40 133 OFFCURVE",
"164 -9 OFFCURVE",
"379 -9 CURVE SMOOTH"
);
},
{
closed = 1;
nodes = (
"274 117 OFFCURVE",
"208 198 OFFCURVE",
"221 357 CURVE SMOOTH",
"233 515 OFFCURVE",
"311 595 OFFCURVE",
"426 595 CURVE SMOOTH",
"541 595 OFFCURVE",
"607 514 OFFCURVE",
"595 357 CURVE SMOOTH",
"583 199 OFFCURVE",
"504 117 OFFCURVE",
"389 117 CURVE SMOOTH"
);
}
);
};
layerId = "E1B555A7-F4E1-459C-9C1A-AE952106EEF9";
paths = (
{
closed = 1;
nodes = (
"675 -109 LINE",
"626 -66 OFFCURVE",
"573 -14 OFFCURVE",
"545 53 CURVE",
"401 -4 LINE",
"435 -75 OFFCURVE",
"490 -142 OFFCURVE",
"559 -191 CURVE"
);
},
{
closed = 1;
nodes = (
"616 -10 OFFCURVE",
"756 144 OFFCURVE",
"756 380 CURVE SMOOTH",
"756 592 OFFCURVE",
"623 722 OFFCURVE",
"412 722 CURVE SMOOTH",
"198 722 OFFCURVE",
"58 568 OFFCURVE",
"58 332 CURVE SMOOTH",
"58 120 OFFCURVE",
"191 -10 OFFCURVE",
"402 -10 CURVE SMOOTH"
);
},
{
closed = 1;
nodes = (
"285 117 OFFCURVE",
"220 194 OFFCURVE",
"220 332 CURVE SMOOTH",
"220 496 OFFCURVE",
"293 595 OFFCURVE",
"414 595 CURVE SMOOTH",
"527 595 OFFCURVE",
"594 518 OFFCURVE",
"594 380 CURVE SMOOTH",
"594 214 OFFCURVE",
"519 117 OFFCURVE",
"401 117 CURVE SMOOTH"
);
}
);
width = 797;
}
);
leftKerningGroup = O;
leftMetricsKey = O;
widthMetricsKey = O;
rightKerningGroup = O;
unicode = 0051;
userData = {
anchors = (
);
b = {
};
com.typemytype.robofont.layerData = {
b = {
anchors = (
);
components = (
);
contours = (
);
lib = {
};
name = Q;
unicodes = (
);
width = 1597;
};
};
components = (
);
contours = (
);
lib = {
};
name = Q;
unicodes = (
);
width = 1604;
};
},
{
glyphname = R;
lastChange = "2016-09-21 12:44:11 +0000";
layers = (
{
anchors = (
{
name = bottom;
position = "{320, 0}";
},
{
name = top;
position = "{376, 712}";
}
);
background = {
paths = (
{
closed = 1;
nodes = (
"129 0 LINE",
"155 320 LINE",
"361 320 LINE SMOOTH",
"435 320 OFFCURVE",
"473 306 OFFCURVE",
"492 237 CURVE SMOOTH",
"562 0 LINE",
"618 0 LINE",
"546 249 LINE SMOOTH",
"528 313 OFFCURVE",
"494 339 OFFCURVE",
"441 339 CURVE",
"370 326 LINE",
"517 326 OFFCURVE",
"609 397 OFFCURVE",
"618 518 CURVE SMOOTH",
"628 644 OFFCURVE",
"548 712 OFFCURVE",
"401 712 CURVE SMOOTH",
"130 712 LINE",
"75 0 LINE"
);
},
{
closed = 1;
nodes = (
"182 664 LINE",
"396 664 LINE SMOOTH",
"517 664 OFFCURVE",
"571 615 OFFCURVE",
"563 519 CURVE SMOOTH",
"556 420 OFFCURVE",
"492 369 OFFCURVE",
"373 369 CURVE SMOOTH",
"159 369 LINE"
);
}
);
};
layerId = "9E718F8A-2CEA-4931-B05D-987794BD97DA";
paths = (
{
closed = 1;
nodes = (
"183 664 LINE",
"406 664 LINE SMOOTH",
"516 664 OFFCURVE",
"574 620 OFFCURVE",
"574 529 CURVE SMOOTH",
"574 421 OFFCURVE",
"511 369 OFFCURVE",
"382 369 CURVE SMOOTH",
"146 369 LINE",
"142 320 LINE",
"348 320 LINE SMOOTH",
"423 320 OFFCURVE",
"471 306 OFFCURVE",
"491 237 CURVE SMOOTH",
"562 0 LINE",
"618 0 LINE",
"551 231 LINE SMOOTH",
"527 314 OFFCURVE",
"486 339 OFFCURVE",
"424 339 CURVE",
"387 326 LINE",
"546 326 OFFCURVE",
"629 405 OFFCURVE",
"629 532 CURVE SMOOTH",
"629 649 OFFCURVE",
"548 712 OFFCURVE",
"406 712 CURVE SMOOTH",
"131 712 LINE",
"76 0 LINE",
"130 0 LINE"
);
}
);
width = 687;
},
{
anchors = (
{
name = bottom;
position = "{339, 0}";
},
{
name = top;
position = "{394, 712}";
}
);
background = {
paths = (
{
closed = 1;
nodes = (
"212 0 LINE",
"234 285 LINE",
"328 285 LINE SMOOTH",
"368 285 OFFCURVE",
"401 274 OFFCURVE",
"411 237 CURVE SMOOTH",
"484 0 LINE",
"655 0 LINE",
"588 219 LINE SMOOTH",
"570 279 OFFCURVE",
"530 308 OFFCURVE",
"481 308 CURVE",
"397 291 LINE",
"555 291 OFFCURVE",
"654 375 OFFCURVE",
"665 502 CURVE SMOOTH",
"676 636 OFFCURVE",
"595 712 OFFCURVE",
"426 712 CURVE SMOOTH",
"107 712 LINE",
"52 0 LINE"
);
},
{
closed = 1;
nodes = (
"257 588 LINE",
"393 588 LINE SMOOTH",
"482 588 OFFCURVE",
"517 560 OFFCURVE",
"512 498 CURVE SMOOTH",
"507 437 OFFCURVE",
"468 408 OFFCURVE",
"379 408 CURVE SMOOTH",
"242 408 LINE"
);
}
);
};
layerId = "E1B555A7-F4E1-459C-9C1A-AE952106EEF9";
paths = (
{
closed = 1;
nodes = (
"257 588 LINE",
"420 588 LINE SMOOTH",
"491 588 OFFCURVE",
"523 559 OFFCURVE",
"523 503 CURVE SMOOTH",
"523 442 OFFCURVE",
"484 408 OFFCURVE",
"406 408 CURVE SMOOTH",
"225 408 LINE",
"217 285 LINE",
"328 285 LINE SMOOTH",
"369 285 OFFCURVE",
"400 274 OFFCURVE",
"411 237 CURVE SMOOTH",
"484 0 LINE",
"655 0 LINE",
"587 210 LINE SMOOTH",
"565 279 OFFCURVE",
"531 308 OFFCURVE",
"462 308 CURVE",
"408 291 LINE",
"594 291 OFFCURVE",
"676 375 OFFCURVE",
"676 512 CURVE SMOOTH",
"676 632 OFFCURVE",
"591 712 OFFCURVE",
"441 712 CURVE SMOOTH",
"107 712 LINE",
"52 0 LINE",
"212 0 LINE"
);
}
);
width = 710;
}
);
leftKerningGroup = H;
leftMetricsKey = H;
rightKerningGroup = R;
unicode = 0052;
userData = {
anchors = (
);
b = {
};
com.typemytype.robofont.guides = (
);
com.typemytype.robofont.layerData = {
b = {
anchors = (
);
components = (
);
contours = (
{
points = (
{
segmentType = curve;
smooth = 1;
x = 267;
y = 0;
},
{
smooth = 0;
x = 311;
y = 0;
},
{
smooth = 0;
x = 356;
y = 27;
},
{
segmentType = curve;
smooth = 1;
x = 356;
y = 84;
},
{
segmentType = line;
smooth = 0;
x = 356;
y = 628;
},
{
segmentType = line;
smooth = 1;
x = 669;
y = 628;
},
{
smooth = 0;
x = 962;
y = 628;
},
{
smooth = 0;
x = 1182;
y = 722;
},
{
segmentType = curve;
smooth = 1;
x = 1182;
y = 1026;
},
{
smooth = 0;
x = 1182;
y = 1324;
},
{
smooth = 0;
x = 993;
y = 1426;
},
{
segmentType = curve;
smooth = 1;
x = 684;
y = 1426;
},
{
segmentType = line;
smooth = 1;
x = 268;
y = 1426;
},
{
smooth = 0;
x = 217;
y = 1426;
},
{
smooth = 0;
x = 178;
y = 1387;
},
{
segmentType = curve;
smooth = 1;
x = 178;
y = 1339;
},
{
segmentType = line;
smooth = 1;
x = 178;
y = 84;
},
{
smooth = 0;
x = 178;
y = 28;
},
{
smooth = 0;
x = 222;
y = 0;
}
);
},
{
points = (
{
segmentType = line;
smooth = 0;
x = 356;
y = 764;
},
{
segmentType = line;
smooth = 0;
x = 356;
y = 1285;
},
{
segmentType = line;
smooth = 1;
x = 684;
y = 1285;
},
{
smooth = 0;
x = 914;
y = 1285;
},
{
smooth = 0;
x = 1008;
y = 1210;
},
{
segmentType = curve;
smooth = 1;
x = 1008;
y = 1026;
},
{
smooth = 0;
x = 1008;
y = 838;
},
{
smooth = 0;
x = 901;
y = 764;
},
{
segmentType = curve;
smooth = 1;
x = 670;
y = 764;
}
);
}
);
lib = {
};
name = R;
unicodes = (
);
width = 1363;
};
};
components = (
);
contours = (
);
lib = {
};
name = R;
unicodes = (
);
width = 1408;
};
},
{
glyphname = S;
lastChange = "2016-09-21 12:21:56 +0000";
layers = (
{
anchors = (
{
name = bottom;
position = "{291, 0}";
},
{
name = top;
position = "{341, 712}";
}
);
background = {
anchors = (
{
name = bottom;
position = "{291, 0}";
},
{
name = top;
position = "{397, 712}";
}
);
paths = (
{
closed = 1;
nodes = (
"464 -8 OFFCURVE",
"562 71 OFFCURVE",
"562 187 CURVE SMOOTH",
"562 328 OFFCURVE",
"416 348 OFFCURVE",
"292 379 CURVE SMOOTH",
"199 401 OFFCURVE",
"118 430 OFFCURVE",
"118 520 CURVE SMOOTH",
"118 614 OFFCURVE",
"190 670 OFFCURVE",
"313 670 CURVE SMOOTH",
"397 670 OFFCURVE",
"463 643 OFFCURVE",
"530 582 CURVE",
"554 626 LINE",
"494 688 OFFCURVE",
"410 720 OFFCURVE",
"313 720 CURVE SMOOTH",
"160 720 OFFCURVE",
"63 640 OFFCURVE",
"63 520 CURVE SMOOTH",
"63 378 OFFCURVE",
"197 348 OFFCURVE",
"317 320 CURVE SMOOTH",
"416 297 OFFCURVE",
"506 274 OFFCURVE",
"506 188 CURVE SMOOTH",
"506 95 OFFCURVE",
"435 42 OFFCURVE",
"312 42 CURVE SMOOTH",
"211 42 OFFCURVE",
"146 66 OFFCURVE",
"75 130 CURVE",
"51 86 LINE",
"118 21 OFFCURVE",
"201 -8 OFFCURVE",
"312 -8 CURVE SMOOTH"
);
}
);
};
layerId = "9E718F8A-2CEA-4931-B05D-987794BD97DA";
paths = (
{
closed = 1;
nodes = (
"459 -8 OFFCURVE",
"558 67 OFFCURVE",
"558 185 CURVE SMOOTH",
"558 424 OFFCURVE",
"141 322 OFFCURVE",
"141 525 CURVE SMOOTH",
"141 615 OFFCURVE",
"209 671 OFFCURVE",
"338 671 CURVE SMOOTH",
"420 671 OFFCURVE",
"492 641 OFFCURVE",
"557 582 CURVE",
"585 626 LINE",
"523 687 OFFCURVE",
"436 720 OFFCURVE",
"338 720 CURVE SMOOTH",
"184 720 OFFCURVE",
"85 643 OFFCURVE",
"85 524 CURVE SMOOTH",
"85 269 OFFCURVE",
"501 369 OFFCURVE",
"501 183 CURVE SMOOTH",
"501 95 OFFCURVE",
"433 41 OFFCURVE",
"304 41 CURVE SMOOTH",
"209 41 OFFCURVE",
"139 67 OFFCURVE",
"66 130 CURVE",
"38 86 LINE",
"111 21 OFFCURVE",
"192 -8 OFFCURVE",
"304 -8 CURVE SMOOTH"
);
}
);
width = 610;
},
{
anchors = (
{
name = bottom;
position = "{309, 0}";
},
{
name = top;
position = "{370, 712}";
}
);
background = {
paths = (
{
closed = 1;
nodes = (
"509 -9 OFFCURVE",
"618 75 OFFCURVE",
"618 209 CURVE SMOOTH",
"618 320 OFFCURVE",
"545 379 OFFCURVE",
"361 419 CURVE SMOOTH",
"245 444 OFFCURVE",
"213 465 OFFCURVE",
"213 509 CURVE SMOOTH",
"213 562 OFFCURVE",
"263 595 OFFCURVE",
"341 595 CURVE SMOOTH",
"413 595 OFFCURVE",
"483 572 OFFCURVE",
"547 524 CURVE",
"599 640 LINE",
"543 690 OFFCURVE",
"441 721 OFFCURVE",
"340 721 CURVE SMOOTH",
"168 721 OFFCURVE",
"54 626 OFFCURVE",
"54 497 CURVE SMOOTH",
"54 382 OFFCURVE",
"122 323 OFFCURVE",
"311 284 CURVE SMOOTH",
"421 261 OFFCURVE",
"459 239 OFFCURVE",
"459 195 CURVE SMOOTH",
"459 146 OFFCURVE",
"411 117 OFFCURVE",
"322 117 CURVE SMOOTH",
"239 117 OFFCURVE",
"162 140 OFFCURVE",
"92 188 CURVE",
"40 72 LINE",
"106 21 OFFCURVE",
"214 -9 OFFCURVE",
"320 -9 CURVE SMOOTH"
);
}
);
};
layerId = "E1B555A7-F4E1-459C-9C1A-AE952106EEF9";
paths = (
{
closed = 1;
nodes = (
"505 -9 OFFCURVE",
"615 71 OFFCURVE",
"615 209 CURVE SMOOTH",
"615 448 OFFCURVE",
"233 383 OFFCURVE",
"233 514 CURVE SMOOTH",
"233 565 OFFCURVE",
"283 595 OFFCURVE",
"366 595 CURVE SMOOTH",
"435 595 OFFCURVE",
"509 570 OFFCURVE",
"569 524 CURVE",
"629 640 LINE",
"572 690 OFFCURVE",
"472 721 OFFCURVE",
"370 721 CURVE SMOOTH",
"189 721 OFFCURVE",
"72 634 OFFCURVE",
"72 500 CURVE SMOOTH",
"72 255 OFFCURVE",
"453 319 OFFCURVE",
"453 191 CURVE SMOOTH",
"453 143 OFFCURVE",
"407 117 OFFCURVE",
"321 117 CURVE SMOOTH",
"235 117 OFFCURVE",
"159 140 OFFCURVE",
"87 188 CURVE",
"26 72 LINE",
"101 20 OFFCURVE",
"205 -9 OFFCURVE",
"315 -9 CURVE SMOOTH"
);
}
);
width = 660;
}
);
leftKerningGroup = S;
rightKerningGroup = S;
unicode = 0053;
userData = {
anchors = (
);
b = {
};
com.typemytype.robofont.layerData = {
b = {
anchors = (
);
components = (
);
contours = (
);
lib = {
};
name = S;
unicodes = (
);
width = 1274;
};
};
components = (
);
contours = (
);
lib = {
};
name = S;
unicodes = (
);
width = 1317;
};
},
{
glyphname = Germandbls;
lastChange = "2016-09-21 12:21:56 +0000";
layers = (
{
background = {
paths = (
{
closed = 1;
nodes = (
"148 0 LINE",
"148 460 LINE SMOOTH",
"148 603 OFFCURVE",
"212 669 OFFCURVE",
"349 669 CURVE SMOOTH",
"455 669 OFFCURVE",
"517 617 OFFCURVE",
"517 531 CURVE SMOOTH",
"517 438 OFFCURVE",
"455 386 OFFCURVE",
"346 386 CURVE SMOOTH",
"243 386 LINE",
"243 337 LINE",
"382 337 LINE SMOOTH",
"500 337 OFFCURVE",
"564 289 OFFCURVE",
"564 195 CURVE SMOOTH",
"564 102 OFFCURVE",
"502 45 OFFCURVE",
"399 43 CURVE SMOOTH",
"345 42 OFFCURVE",
"298 61 OFFCURVE",
"242 106 CURVE",
"219 60 LINE",
"268 16 OFFCURVE",
"334 -7 OFFCURVE",
"402 -7 CURVE SMOOTH",
"532 -7 OFFCURVE",
"619 74 OFFCURVE",
"619 194 CURVE SMOOTH",
"619 293 OFFCURVE",
"560 358 OFFCURVE",
"451 374 CURVE",
"442 363 LINE",
"525 382 OFFCURVE",
"573 444 OFFCURVE",
"573 532 CURVE SMOOTH",
"573 647 OFFCURVE",
"487 719 OFFCURVE",
"349 719 CURVE SMOOTH",
"179 719 OFFCURVE",
"94 635 OFFCURVE",
"94 467 CURVE SMOOTH",
"94 0 LINE"
);
}
);
};
layerId = "9E718F8A-2CEA-4931-B05D-987794BD97DA";
paths = (
{
closed = 1;
nodes = (
"128 0 LINE",
"165 460 LINE SMOOTH",
"176 603 OFFCURVE",
"238 669 OFFCURVE",
"381 669 CURVE SMOOTH",
"478 669 OFFCURVE",
"540 622 OFFCURVE",
"540 543 CURVE SMOOTH",
"540 443 OFFCURVE",
"474 386 OFFCURVE",
"359 386 CURVE SMOOTH",
"254 386 LINE",
"249 337 LINE",
"388 337 LINE SMOOTH",
"501 337 OFFCURVE",
"561 294 OFFCURVE",
"561 209 CURVE SMOOTH",
"561 104 OFFCURVE",
"493 43 OFFCURVE",
"382 43 CURVE SMOOTH",
"330 43 OFFCURVE",
"283 63 OFFCURVE",
"230 106 CURVE",
"204 60 LINE",
"251 17 OFFCURVE",
"315 -7 OFFCURVE",
"387 -7 CURVE SMOOTH",
"523 -7 OFFCURVE",
"616 80 OFFCURVE",
"616 208 CURVE SMOOTH",
"616 301 OFFCURVE",
"562 359 OFFCURVE",
"462 374 CURVE",
"451 363 LINE",
"542 382 OFFCURVE",
"596 449 OFFCURVE",
"596 545 CURVE SMOOTH",
"596 653 OFFCURVE",
"512 719 OFFCURVE",
"382 719 CURVE SMOOTH",
"215 719 OFFCURVE",
"124 637 OFFCURVE",
"111 471 CURVE SMOOTH",
"74 0 LINE"
);
}
);
width = 687;
},
{
background = {
paths = (
{
closed = 1;
nodes = (
"229 0 LINE",
"229 448 LINE SMOOTH",
"229 542 OFFCURVE",
"279 593 OFFCURVE",
"369 593 CURVE SMOOTH",
"435 593 OFFCURVE",
"478 560 OFFCURVE",
"478 505 CURVE SMOOTH",
"478 452 OFFCURVE",
"444 423 OFFCURVE",
"379 423 CURVE SMOOTH",
"298 423 LINE",
"298 297 LINE",
"397 297 LINE SMOOTH",
"493 297 OFFCURVE",
"529 270 OFFCURVE",
"529 205 CURVE SMOOTH",
"529 148 OFFCURVE",
"498 114 OFFCURVE",
"447 114 CURVE SMOOTH",
"407 114 OFFCURVE",
"363 130 OFFCURVE",
"309 165 CURVE",
"267 51 LINE",
"320 11 OFFCURVE",
"379 -6 OFFCURVE",
"457 -6 CURVE SMOOTH",
"587 -6 OFFCURVE",
"683 81 OFFCURVE",
"683 199 CURVE SMOOTH",
"683 297 OFFCURVE",
"617 364 OFFCURVE",
"509 376 CURVE",
"509 362 LINE",
"583 384 OFFCURVE",
"629 443 OFFCURVE",
"629 519 CURVE SMOOTH",
"629 641 OFFCURVE",
"529 719 OFFCURVE",
"373 719 CURVE SMOOTH",
"181 719 OFFCURVE",
"70 619 OFFCURVE",
"70 445 CURVE SMOOTH",
"70 0 LINE"
);
}
);
};
layerId = "E1B555A7-F4E1-459C-9C1A-AE952106EEF9";
paths = (
{
closed = 1;
nodes = (
"210 0 LINE",
"246 462 LINE SMOOTH",
"254 548 OFFCURVE",
"302 593 OFFCURVE",
"392 593 CURVE SMOOTH",
"456 593 OFFCURVE",
"498 562 OFFCURVE",
"498 511 CURVE SMOOTH",
"498 455 OFFCURVE",
"465 423 OFFCURVE",
"403 423 CURVE SMOOTH",
"312 423 LINE",
"302 297 LINE",
"401 297 LINE SMOOTH",
"492 297 OFFCURVE",
"526 271 OFFCURVE",
"526 207 CURVE SMOOTH",
"526 147 OFFCURVE",
"495 114 OFFCURVE",
"437 114 CURVE SMOOTH",
"398 114 OFFCURVE",
"351 131 OFFCURVE",
"303 165 CURVE",
"251 51 LINE",
"313 10 OFFCURVE",
"367 -6 OFFCURVE",
"440 -6 CURVE SMOOTH",
"582 -6 OFFCURVE",
"681 85 OFFCURVE",
"681 204 CURVE SMOOTH",
"681 302 OFFCURVE",
"618 363 OFFCURVE",
"519 376 CURVE",
"518 362 LINE",
"608 385 OFFCURVE",
"651 446 OFFCURVE",
"651 527 CURVE SMOOTH",
"651 641 OFFCURVE",
"557 719 OFFCURVE",
"400 719 CURVE SMOOTH",
"213 719 OFFCURVE",
"101 624 OFFCURVE",
"87 456 CURVE SMOOTH",
"51 0 LINE"
);
}
);
width = 719;
}
);
leftKerningGroup = H;
leftMetricsKey = B;
rightKerningGroup = Germandbls;
unicode = 1E9E;
},
{
glyphname = Schwa;
lastChange = "2016-09-21 12:21:56 +0000";
layers = (
{
anchors = (
{
name = bottom;
position = "{350, 0}";
},
{
name = top;
position = "{406, 712}";
}
);
background = {
anchors = (
{
name = bottom;
position = "{1057, 0}";
},
{
name = top;
position = "{1113, 712}";
}
);
paths = (
{
closed = 1;
nodes = (
"557 -8 OFFCURVE",
"674 131 OFFCURVE",
"674 357 CURVE SMOOTH",
"674 583 OFFCURVE",
"549 720 OFFCURVE",
"347 720 CURVE SMOOTH",
"248 720 OFFCURVE",
"155 686 OFFCURVE",
"95 626 CURVE",
"119 582 LINE",
"185 642 OFFCURVE",
"260 671 OFFCURVE",
"348 671 CURVE SMOOTH",
"519 671 OFFCURVE",
"617 557 OFFCURVE",
"617 357 CURVE SMOOTH",
"617 158 OFFCURVE",
"526 42 OFFCURVE",
"370 42 CURVE SMOOTH",
"214 42 OFFCURVE",
"122 159 OFFCURVE",
"122 357 CURVE",
"107 336 LINE",
"648 336 LINE",
"648 387 LINE",
"66 387 LINE",
"66 352 LINE SMOOTH",
"66 130 OFFCURVE",
"183 -8 OFFCURVE",
"370 -8 CURVE SMOOTH"
);
}
);
};
layerId = "9E718F8A-2CEA-4931-B05D-987794BD97DA";
paths = (
{
closed = 1;
nodes = (
"557 -8 OFFCURVE",
"683 146 OFFCURVE",
"683 387 CURVE SMOOTH",
"683 595 OFFCURVE",
"568 720 OFFCURVE",
"385 720 CURVE SMOOTH",
"277 720 OFFCURVE",
"191 688 OFFCURVE",
"125 626 CURVE",
"146 582 LINE",
"214 645 OFFCURVE",
"292 670 OFFCURVE",
"375 670 CURVE SMOOTH",
"536 670 OFFCURVE",
"625 569 OFFCURVE",
"625 388 CURVE SMOOTH",
"625 173 OFFCURVE",
"525 43 OFFCURVE",
"357 42 CURVE SMOOTH",
"188 41 OFFCURVE",
"116 166 OFFCURVE",
"132 357 CURVE",
"115 336 LINE",
"654 336 LINE",
"659 387 LINE",
"78 387 LINE",
"75 354 LINE SMOOTH",
"56 145 OFFCURVE",
"152 -8 OFFCURVE",
"351 -8 CURVE SMOOTH"
);
}
);
width = 740;
},
{
anchors = (
{
name = bottom;
position = "{370, 0}";
},
{
name = top;
position = "{424, 712}";
}
);
background = {
paths = (
{
closed = 1;
nodes = (
"595 -9 OFFCURVE",
"727 142 OFFCURVE",
"727 357 CURVE SMOOTH",
"727 580 OFFCURVE",
"586 721 OFFCURVE",
"365 721 CURVE SMOOTH",
"268 721 OFFCURVE",
"163 690 OFFCURVE",
"100 640 CURVE",
"152 524 LINE",
"213 570 OFFCURVE",
"284 592 OFFCURVE",
"359 592 CURVE SMOOTH",
"493 592 OFFCURVE",
"566 512 OFFCURVE",
"566 357 CURVE SMOOTH",
"566 198 OFFCURVE",
"507 117 OFFCURVE",
"394 117 CURVE SMOOTH",
"275 117 OFFCURVE",
"207 198 OFFCURVE",
"212 357 CURVE",
"171 298 LINE",
"627 298 LINE",
"627 422 LINE",
"49 422 LINE",
"49 360 LINE SMOOTH",
"49 123 OFFCURVE",
"182 -9 OFFCURVE",
"399 -9 CURVE SMOOTH"
);
}
);
};
layerId = "E1B555A7-F4E1-459C-9C1A-AE952106EEF9";
paths = (
{
closed = 1;
nodes = (
"595 -9 OFFCURVE",
"736 143 OFFCURVE",
"736 380 CURVE SMOOTH",
"736 590 OFFCURVE",
"603 721 OFFCURVE",
"396 721 CURVE SMOOTH",
"292 721 OFFCURVE",
"196 690 OFFCURVE",
"131 640 CURVE",
"174 524 LINE",
"243 570 OFFCURVE",
"297 591 OFFCURVE",
"379 592 CURVE SMOOTH",
"503 593 OFFCURVE",
"575 517 OFFCURVE",
"575 380 CURVE SMOOTH",
"575 220 OFFCURVE",
"504 117 OFFCURVE",
"384 117 CURVE SMOOTH",
"265 117 OFFCURVE",
"193 198 OFFCURVE",
"221 357 CURVE",
"175 298 LINE",
"629 298 LINE",
"639 422 LINE",
"64 422 LINE",
"60 370 LINE SMOOTH",
"41 129 OFFCURVE",
"162 -9 OFFCURVE",
"386 -9 CURVE SMOOTH"
);
}
);
width = 777;
}
);
leftKerningGroup = O;
leftMetricsKey = O;
rightKerningGroup = O;
rightMetricsKey = O;
unicode = 018F;
},
{
glyphname = T;
lastChange = "2016-09-21 12:21:56 +0000";
layers = (
{
anchors = (
{
name = bottom;
position = "{278, 0}";
},
{
name = center;
position = "{306, 357}";
},
{
name = top;
position = "{333, 712}";
}
);
background = {
anchors = (
{
name = bottom;
position = "{278, 0}";
},
{
name = center;
position = "{306, 357}";
},
{
name = top;
position = "{333, 712}";
}
);
paths = (
{
closed = 1;
nodes = (
"324 0 LINE",
"324 664 LINE",
"582 664 LINE",
"582 712 LINE",
"12 712 LINE",
"12 664 LINE",
"270 664 LINE",
"270 0 LINE"
);
}
);
};
layerId = "9E718F8A-2CEA-4931-B05D-987794BD97DA";
paths = (
{
closed = 1;
nodes = (
"305 0 LINE",
"358 664 LINE",
"615 664 LINE",
"619 712 LINE",
"49 712 LINE",
"45 664 LINE",
"303 664 LINE",
"250 0 LINE"
);
}
);
width = 594;
},
{
anchors = (
{
name = bottom;
position = "{296, 0}";
},
{
name = center;
position = "{324, 357}";
},
{
name = top;
position = "{351, 712}";
}
);
background = {
anchors = (
{
name = bottom;
position = "{315, 0}";
},
{
name = center;
position = "{343, 357}";
},
{
name = top;
position = "{371, 712}";
}
);
paths = (
{
closed = 1;
nodes = (
"397 0 LINE",
"397 580 LINE",
"618 580 LINE",
"618 712 LINE",
"12 712 LINE",
"12 580 LINE",
"233 580 LINE",
"233 0 LINE"
);
}
);
};
layerId = "E1B555A7-F4E1-459C-9C1A-AE952106EEF9";
paths = (
{
closed = 1;
nodes = (
"378 0 LINE",
"423 580 LINE",
"644 580 LINE",
"654 712 LINE",
"48 712 LINE",
"38 580 LINE",
"260 580 LINE",
"214 0 LINE"
);
}
);
width = 630;
}
);
leftKerningGroup = T;
rightKerningGroup = T;
unicode = 0054;
userData = {
anchors = (
);
b = {
};
com.typemytype.robofont.layerData = {
b = {
anchors = (
);
components = (
);
contours = (
{
points = (
{
segmentType = curve;
smooth = 1;
x = 581;
y = 0;
},
{
segmentType = line;
smooth = 1;
x = 1350;
y = 0;
},
{
smooth = 0;
x = 1399;
y = 0;
},
{
smooth = 0;
x = 1423;
y = 34;
},
{
segmentType = curve;
smooth = 1;
x = 1423;
y = 71;
},
{
smooth = 0;
x = 1423;
y = 107;
},
{
smooth = 0;
x = 1399;
y = 141;
},
{
segmentType = curve;
smooth = 1;
x = 1350;
y = 141;
},
{
segmentType = line;
smooth = 0;
x = 671;
y = 141;
},
{
segmentType = line;
smooth = 0;
x = 671;
y = 665;
},
{
segmentType = line;
smooth = 1;
x = 1290;
y = 665;
},
{
smooth = 0;
x = 1339;
y = 665;
},
{
smooth = 0;
x = 1364;
y = 698;
},
{
segmentType = curve;
smooth = 1;
x = 1364;
y = 734;
},
{
smooth = 0;
x = 1364;
y = 770;
},
{
smooth = 0;
x = 1341;
y = 803;
},
{
segmentType = curve;
smooth = 1;
x = 1290;
y = 803;
},
{
segmentType = line;
smooth = 0;
x = 671;
y = 803;
},
{
segmentType = line;
smooth = 0;
x = 671;
y = 1285;
},
{
segmentType = line;
smooth = 1;
x = 1322;
y = 1285;
},
{
smooth = 0;
x = 1371;
y = 1285;
},
{
smooth = 0;
x = 1395;
y = 1319;
},
{
segmentType = curve;
smooth = 1;
x = 1395;
y = 1356;
},
{
smooth = 0;
x = 1395;
y = 1392;
},
{
smooth = 0;
x = 1371;
y = 1426;
},
{
segmentType = curve;
smooth = 1;
x = 1322;
y = 1426;
},
{
segmentType = line;
smooth = 1;
x = 576;
y = 1426;
},
{
smooth = 0;
x = 528;
y = 1426;
},
{
smooth = 0;
x = 493;
y = 1383;
},
{
segmentType = curve;
smooth = 1;
x = 493;
y = 1340;
},
{
segmentType = line;
smooth = 1;
x = 493;
y = 86;
},
{
smooth = 0;
x = 493;
y = 41;
},
{
smooth = 0;
x = 537;
y = 0;
}
);
}
);
lib = {
};
name = T;
unicodes = (
);
width = 1158;
};
};
components = (
);
contours = (
);
lib = {
};
name = T;
unicodes = (
);
width = 1199;
};
},
{
glyphname = Tbar;
lastChange = "2016-09-21 12:21:56 +0000";
layers = (
{
background = {
paths = (
{
closed = 1;
nodes = (
"471 338 LINE",
"471 385 LINE",
"123 385 LINE",
"123 338 LINE"
);
},
{
closed = 1;
nodes = (
"324 0 LINE",
"324 664 LINE",
"582 664 LINE",
"582 712 LINE",
"12 712 LINE",
"12 664 LINE",
"270 664 LINE",
"270 0 LINE"
);
}
);
};
layerId = "9E718F8A-2CEA-4931-B05D-987794BD97DA";
paths = (
{
closed = 1;
nodes = (
"478 338 LINE",
"482 385 LINE",
"134 385 LINE",
"130 338 LINE"
);
},
{
closed = 1;
nodes = (
"305 0 LINE",
"358 664 LINE",
"615 664 LINE",
"619 712 LINE",
"49 712 LINE",
"45 664 LINE",
"303 664 LINE",
"250 0 LINE"
);
}
);
width = 594;
},
{
background = {
paths = (
{
closed = 1;
nodes = (
"533 298 LINE",
"533 421 LINE",
"97 421 LINE",
"97 298 LINE"
);
},
{
closed = 1;
nodes = (
"397 0 LINE",
"397 580 LINE",
"618 580 LINE",
"618 712 LINE",
"12 712 LINE",
"12 580 LINE",
"233 580 LINE",
"233 0 LINE"
);
}
);
};
layerId = "E1B555A7-F4E1-459C-9C1A-AE952106EEF9";
paths = (
{
closed = 1;
nodes = (
"537 298 LINE",
"547 421 LINE",
"111 421 LINE",
"101 298 LINE"
);
},
{
closed = 1;
nodes = (
"378 0 LINE",
"423 580 LINE",
"644 580 LINE",
"654 712 LINE",
"48 712 LINE",
"38 580 LINE",
"260 580 LINE",
"214 0 LINE"
);
}
);
width = 630;
}
);
leftKerningGroup = T;
leftMetricsKey = T;
rightKerningGroup = T;
rightMetricsKey = T;
unicode = 0166;
userData = {
com.typemytype.robofont.layerData = {
b = {
anchors = (
);
components = (
);
contours = (
);
lib = {
};
name = Tbar;
unicodes = (
);
width = 1158;
};
};
};
},
{
glyphname = U;
lastChange = "2016-09-21 12:21:56 +0000";
layers = (
{
anchors = (
{
name = bottom;
position = "{343, 0}";
},
{
name = ogonek;
position = "{458, 10}";
},
{
name = top;
position = "{399, 712}";
},
{
name = topright;
position = "{645, 712}";
}
);
background = {
anchors = (
{
name = bottom;
position = "{343, 0}";
},
{
name = ogonek;
position = "{458, 10}";
},
{
name = top;
position = "{399, 712}";
},
{
name = topright;
position = "{645, 712}";
}
);
paths = (
{
closed = 1;
nodes = (
"542 -8 OFFCURVE",
"636 88 OFFCURVE",
"636 273 CURVE SMOOTH",
"636 712 LINE",
"582 712 LINE",
"582 266 LINE SMOOTH",
"582 117 OFFCURVE",
"507 42 OFFCURVE",
"363 42 CURVE SMOOTH",
"217 42 OFFCURVE",
"143 117 OFFCURVE",
"143 266 CURVE SMOOTH",
"143 712 LINE",
"89 712 LINE",
"89 273 LINE SMOOTH",
"89 88 OFFCURVE",
"183 -8 OFFCURVE",
"363 -8 CURVE SMOOTH"
);
}
);
};
layerId = "9E718F8A-2CEA-4931-B05D-987794BD97DA";
paths = (
{
closed = 1;
nodes = (
"523 -8 OFFCURVE",
"623 84 OFFCURVE",
"638 273 CURVE SMOOTH",
"673 712 LINE",
"618 712 LINE",
"584 266 LINE SMOOTH",
"573 115 OFFCURVE",
"494 42 OFFCURVE",
"346 42 CURVE SMOOTH",
"201 42 OFFCURVE",
"133 120 OFFCURVE",
"145 276 CURVE SMOOTH",
"180 712 LINE",
"125 712 LINE",
"91 273 LINE SMOOTH",
"77 95 OFFCURVE",
"162 -8 OFFCURVE",
"346 -8 CURVE SMOOTH"
);
}
);
width = 725;
},
{
anchors = (
{
name = bottom;
position = "{355, 0}";
},
{
name = ogonek;
position = "{479, 10}";
},
{
name = top;
position = "{410, 712}";
},
{
name = topright;
position = "{638, 712}";
}
);
background = {
paths = (
{
closed = 1;
nodes = (
"574 -9 OFFCURVE",
"682 98 OFFCURVE",
"682 295 CURVE SMOOTH",
"682 712 LINE",
"522 712 LINE",
"522 288 LINE SMOOTH",
"522 178 OFFCURVE",
"470 117 OFFCURVE",
"374 117 CURVE SMOOTH",
"277 117 OFFCURVE",
"225 177 OFFCURVE",
"225 288 CURVE SMOOTH",
"225 712 LINE",
"66 712 LINE",
"66 295 LINE SMOOTH",
"66 96 OFFCURVE",
"172 -9 OFFCURVE",
"374 -9 CURVE SMOOTH"
);
}
);
};
layerId = "E1B555A7-F4E1-459C-9C1A-AE952106EEF9";
paths = (
{
closed = 1;
nodes = (
"563 -9 OFFCURVE",
"670 92 OFFCURVE",
"685 291 CURVE SMOOTH",
"718 712 LINE",
"559 712 LINE",
"524 280 LINE SMOOTH",
"514 159 OFFCURVE",
"460 117 OFFCURVE",
"377 117 CURVE SMOOTH",
"267 117 OFFCURVE",
"219 177 OFFCURVE",
"229 300 CURVE SMOOTH",
"262 712 LINE",
"102 712 LINE",
"70 305 LINE SMOOTH",
"54 97 OFFCURVE",
"155 -9 OFFCURVE",
"369 -9 CURVE SMOOTH"
);
}
);
width = 747;
}
);
leftKerningGroup = U;
rightKerningGroup = U;
unicode = 0055;
userData = {
anchors = (
);
b = {
};
com.typemytype.robofont.layerData = {
b = {
anchors = (
);
components = (
);
contours = (
);
lib = {
};
name = U;
unicodes = (
);
width = 1490;
};
};
components = (
);
contours = (
);
lib = {
};
name = U;
unicodes = (
);
width = 1513;
};
},
{
glyphname = Uhorn;
lastChange = "2016-09-21 12:21:56 +0000";
layers = (
{
anchors = (
{
name = bottom;
position = "{343, 0}";
},
{
name = top;
position = "{399, 712}";
}
);
background = {
paths = (
{
closed = 1;
nodes = (
"706 826 LINE SMOOTH",
"706 745 OFFCURVE",
"675 713 OFFCURVE",
"598 712 CURVE SMOOTH",
"582 712 LINE",
"582 266 LINE SMOOTH",
"582 117 OFFCURVE",
"507 42 OFFCURVE",
"363 42 CURVE SMOOTH",
"217 42 OFFCURVE",
"143 117 OFFCURVE",
"143 266 CURVE SMOOTH",
"143 712 LINE",
"89 712 LINE",
"89 273 LINE SMOOTH",
"89 88 OFFCURVE",
"183 -8 OFFCURVE",
"363 -8 CURVE SMOOTH",
"542 -8 OFFCURVE",
"636 88 OFFCURVE",
"636 273 CURVE SMOOTH",
"636 698 LINE",
"600 670 LINE",
"700 671 OFFCURVE",
"756 723 OFFCURVE",
"756 817 CURVE SMOOTH",
"756 839 LINE",
"706 839 LINE"
);
}
);
};
layerId = "9E718F8A-2CEA-4931-B05D-987794BD97DA";
paths = (
{
closed = 1;
nodes = (
"751 826 LINE SMOOTH",
"745 745 OFFCURVE",
"712 713 OFFCURVE",
"634 712 CURVE SMOOTH",
"618 712 LINE",
"584 266 LINE SMOOTH",
"573 115 OFFCURVE",
"494 42 OFFCURVE",
"346 42 CURVE SMOOTH",
"201 42 OFFCURVE",
"133 120 OFFCURVE",
"145 276 CURVE SMOOTH",
"180 712 LINE",
"125 712 LINE",
"91 273 LINE SMOOTH",
"77 95 OFFCURVE",
"162 -8 OFFCURVE",
"346 -8 CURVE SMOOTH",
"523 -8 OFFCURVE",
"623 84 OFFCURVE",
"638 273 CURVE SMOOTH",
"672 698 LINE",
"633 670 LINE",
"733 671 OFFCURVE",
"794 723 OFFCURVE",
"802 817 CURVE SMOOTH",
"803 839 LINE",
"752 839 LINE"
);
}
);
width = 725;
},
{
anchors = (
{
name = bottom;
position = "{355, 0}";
},
{
name = top;
position = "{410, 712}";
}
);
background = {
paths = (
{
closed = 1;
nodes = (
"660 814 LINE SMOOTH",
"660 738 OFFCURVE",
"636 712 OFFCURVE",
"569 712 CURVE SMOOTH",
"522 712 LINE",
"522 288 LINE SMOOTH",
"522 178 OFFCURVE",
"470 117 OFFCURVE",
"374 117 CURVE SMOOTH",
"277 117 OFFCURVE",
"225 177 OFFCURVE",
"225 288 CURVE SMOOTH",
"225 712 LINE",
"66 712 LINE",
"66 295 LINE SMOOTH",
"66 96 OFFCURVE",
"172 -9 OFFCURVE",
"374 -9 CURVE SMOOTH",
"574 -9 OFFCURVE",
"682 98 OFFCURVE",
"682 295 CURVE SMOOTH",
"682 681 LINE",
"649 637 LINE",
"736 642 OFFCURVE",
"795 706 OFFCURVE",
"795 795 CURVE SMOOTH",
"795 834 LINE",
"660 834 LINE"
);
}
);
};
layerId = "E1B555A7-F4E1-459C-9C1A-AE952106EEF9";
paths = (
{
closed = 1;
nodes = (
"704 814 LINE SMOOTH",
"699 738 OFFCURVE",
"673 712 OFFCURVE",
"605 712 CURVE SMOOTH",
"559 712 LINE",
"524 280 LINE SMOOTH",
"514 159 OFFCURVE",
"460 117 OFFCURVE",
"377 117 CURVE SMOOTH",
"267 117 OFFCURVE",
"219 177 OFFCURVE",
"229 300 CURVE SMOOTH",
"262 712 LINE",
"102 712 LINE",
"70 305 LINE SMOOTH",
"54 97 OFFCURVE",
"155 -9 OFFCURVE",
"369 -9 CURVE SMOOTH",
"563 -9 OFFCURVE",
"669 92 OFFCURVE",
"685 291 CURVE SMOOTH",
"716 681 LINE",
"681 637 LINE",
"776 642 OFFCURVE",
"831 706 OFFCURVE",
"838 795 CURVE SMOOTH",
"841 834 LINE",
"706 834 LINE"
);
}
);
width = 747;
}
);
leftKerningGroup = U;
leftMetricsKey = U;
widthMetricsKey = U;
rightKerningGroup = Uhorn;
unicode = 01AF;
},
{
glyphname = Uogonek;
lastChange = "2016-09-21 12:21:56 +0000";
layers = (
{
background = {
paths = (
{
closed = 1;
nodes = (
"582 266 LINE SMOOTH",
"582 117 OFFCURVE",
"507 42 OFFCURVE",
"363 42 CURVE SMOOTH",
"217 42 OFFCURVE",
"143 117 OFFCURVE",
"143 266 CURVE SMOOTH",
"143 712 LINE",
"89 712 LINE",
"89 273 LINE SMOOTH",
"89 88 OFFCURVE",
"183 -8 OFFCURVE",
"363 -8 CURVE SMOOTH",
"416 -8 LINE",
"404 11 LINE",
"357 -9 OFFCURVE",
"332 -42 OFFCURVE",
"332 -89 CURVE SMOOTH",
"332 -150 OFFCURVE",
"379 -193 OFFCURVE",
"446 -193 CURVE SMOOTH",
"478 -193 OFFCURVE",
"506 -185 OFFCURVE",
"527 -170 CURVE",
"511 -131 LINE",
"490 -142 OFFCURVE",
"469 -149 OFFCURVE",
"451 -149 CURVE SMOOTH",
"409 -149 OFFCURVE",
"383 -124 OFFCURVE",
"383 -83 CURVE SMOOTH",
"383 -40 OFFCURVE",
"409 -13 OFFCURVE",
"471 6 CURVE SMOOTH",
"580 40 OFFCURVE",
"636 129 OFFCURVE",
"636 273 CURVE SMOOTH",
"636 712 LINE",
"582 712 LINE"
);
}
);
};
layerId = "9E718F8A-2CEA-4931-B05D-987794BD97DA";
paths = (
{
closed = 1;
nodes = (
"584 266 LINE SMOOTH",
"573 115 OFFCURVE",
"494 42 OFFCURVE",
"346 42 CURVE SMOOTH",
"201 42 OFFCURVE",
"133 120 OFFCURVE",
"145 276 CURVE SMOOTH",
"180 712 LINE",
"125 712 LINE",
"91 273 LINE SMOOTH",
"77 95 OFFCURVE",
"162 -8 OFFCURVE",
"342 -8 CURVE SMOOTH",
"396 -8 LINE",
"386 11 LINE",
"336 -9 OFFCURVE",
"306 -39 OFFCURVE",
"306 -96 CURVE SMOOTH",
"306 -154 OFFCURVE",
"347 -193 OFFCURVE",
"414 -193 CURVE SMOOTH",
"445 -193 OFFCURVE",
"477 -182 OFFCURVE",
"495 -170 CURVE",
"482 -130 LINE",
"460 -143 OFFCURVE",
"436 -149 OFFCURVE",
"420 -149 CURVE SMOOTH",
"381 -149 OFFCURVE",
"358 -128 OFFCURVE",
"358 -87 CURVE SMOOTH",
"358 -40 OFFCURVE",
"389 -13 OFFCURVE",
"451 5 CURVE SMOOTH",
"563 36 OFFCURVE",
"627 126 OFFCURVE",
"638 273 CURVE SMOOTH",
"673 712 LINE",
"618 712 LINE"
);
}
);
width = 725;
},
{
background = {
paths = (
{
closed = 1;
nodes = (
"522 288 LINE SMOOTH",
"522 178 OFFCURVE",
"470 117 OFFCURVE",
"374 117 CURVE SMOOTH",
"277 117 OFFCURVE",
"225 177 OFFCURVE",
"225 288 CURVE SMOOTH",
"225 712 LINE",
"66 712 LINE",
"66 295 LINE SMOOTH",
"66 96 OFFCURVE",
"172 -9 OFFCURVE",
"375 -9 CURVE SMOOTH",
"396 -9 LINE",
"386 11 LINE",
"348 -11 OFFCURVE",
"327 -48 OFFCURVE",
"327 -88 CURVE SMOOTH",
"327 -153 OFFCURVE",
"381 -199 OFFCURVE",
"457 -199 CURVE SMOOTH",
"493 -199 OFFCURVE",
"528 -192 OFFCURVE",
"559 -179 CURVE",
"541 -106 LINE",
"522 -114 OFFCURVE",
"504 -118 OFFCURVE",
"487 -118 CURVE SMOOTH",
"448 -118 OFFCURVE",
"427 -100 OFFCURVE",
"427 -65 CURVE SMOOTH",
"427 -32 OFFCURVE",
"448 -6 OFFCURVE",
"488 5 CURVE SMOOTH",
"615 40 OFFCURVE",
"682 139 OFFCURVE",
"682 295 CURVE SMOOTH",
"682 712 LINE",
"522 712 LINE"
);
}
);
};
layerId = "E1B555A7-F4E1-459C-9C1A-AE952106EEF9";
paths = (
{
closed = 1;
nodes = (
"524 280 LINE SMOOTH",
"514 159 OFFCURVE",
"460 117 OFFCURVE",
"377 117 CURVE SMOOTH",
"267 117 OFFCURVE",
"219 177 OFFCURVE",
"229 300 CURVE SMOOTH",
"262 712 LINE",
"102 712 LINE",
"70 305 LINE SMOOTH",
"54 97 OFFCURVE",
"155 -9 OFFCURVE",
"364 -9 CURVE SMOOTH",
"376 -9 LINE",
"368 11 LINE",
"320 -11 OFFCURVE",
"301 -51 OFFCURVE",
"301 -92 CURVE SMOOTH",
"301 -155 OFFCURVE",
"350 -199 OFFCURVE",
"429 -199 CURVE SMOOTH",
"462 -199 OFFCURVE",
"494 -192 OFFCURVE",
"525 -179 CURVE",
"514 -106 LINE",
"492 -114 OFFCURVE",
"474 -118 OFFCURVE",
"457 -118 CURVE SMOOTH",
"424 -118 OFFCURVE",
"403 -100 OFFCURVE",
"403 -68 CURVE SMOOTH",
"403 -32 OFFCURVE",
"429 -10 OFFCURVE",
"469 0 CURVE SMOOTH",
"606 35 OFFCURVE",
"673 135 OFFCURVE",
"685 291 CURVE SMOOTH",
"718 712 LINE",
"559 712 LINE"
);
}
);
width = 747;
}
);
leftKerningGroup = U;
leftMetricsKey = U;
rightKerningGroup = U;
rightMetricsKey = U;
unicode = 0172;
},
{
glyphname = V;
lastChange = "2016-09-21 12:21:56 +0000";
layers = (
{
anchors = (
{
name = bottom;
position = "{323, 0}";
},
{
name = top;
position = "{378, 712}";
}
);
background = {
anchors = (
{
name = bottom;
position = "{323, 0}";
},
{
name = top;
position = "{378, 712}";
}
);
paths = (
{
closed = 1;
nodes = (
"367 0 LINE",
"675 712 LINE",
"618 712 LINE",
"328 37 LINE",
"356 37 LINE",
"66 712 LINE",
"9 712 LINE",
"316 0 LINE"
);
}
);
};
layerId = "9E718F8A-2CEA-4931-B05D-987794BD97DA";
paths = (
{
closed = 1;
nodes = (
"347 0 LINE",
"711 712 LINE",
"653 712 LINE",
"311 37 LINE",
"338 37 LINE",
"102 712 LINE",
"45 712 LINE",
"297 0 LINE"
);
}
);
width = 683;
},
{
anchors = (
{
name = bottom;
position = "{350, 0}";
},
{
name = top;
position = "{405, 712}";
}
);
background = {
paths = (
{
closed = 1;
nodes = (
"434 0 LINE",
"755 712 LINE",
"591 712 LINE",
"347 148 LINE",
"394 148 LINE",
"152 712 LINE",
"-17 712 LINE",
"304 0 LINE"
);
}
);
};
layerId = "E1B555A7-F4E1-459C-9C1A-AE952106EEF9";
paths = (
{
closed = 1;
nodes = (
"415 0 LINE",
"792 712 LINE",
"626 712 LINE",
"340 148 LINE",
"387 148 LINE",
"188 712 LINE",
"19 712 LINE",
"285 0 LINE"
);
}
);
width = 738;
}
);
leftKerningGroup = V;
rightKerningGroup = V;
unicode = 0056;
userData = {
anchors = (
);
b = {
};
com.typemytype.robofont.guides = (
);
com.typemytype.robofont.layerData = {
b = {
anchors = (
);
components = (
);
contours = (
{
points = (
{
segmentType = curve;
smooth = 1;
x = 644;
y = "-5";
},
{
smooth = 0;
x = 712;
y = "-5";
},
{
smooth = 0;
x = 764;
y = 38;
},
{
segmentType = curve;
smooth = 1;
x = 793;
y = 117;
},
{
segmentType = line;
smooth = 1;
x = 1243;
y = 1324;
},
{
smooth = 0;
x = 1247;
y = 1335;
},
{
smooth = 0;
x = 1248;
y = 1342;
},
{
segmentType = curve;
smooth = 1;
x = 1248;
y = 1351;
},
{
smooth = 0;
x = 1248;
y = 1395;
},
{
smooth = 0;
x = 1203;
y = 1427;
},
{
segmentType = curve;
smooth = 1;
x = 1160;
y = 1427;
},
{
smooth = 0;
x = 1125;
y = 1427;
},
{
smooth = 0;
x = 1090;
y = 1408;
},
{
segmentType = curve;
smooth = 1;
x = 1076;
y = 1369;
},
{
segmentType = line;
smooth = 0;
x = 651;
y = 192;
},
{
segmentType = line;
smooth = 0;
x = 650;
y = 190;
},
{
segmentType = line;
smooth = 1;
x = 214;
y = 1370;
},
{
smooth = 0;
x = 200;
y = 1407;
},
{
smooth = 0;
x = 170;
y = 1427;
},
{
segmentType = curve;
smooth = 1;
x = 135;
y = 1427;
},
{
smooth = 0;
x = 90;
y = 1427;
},
{
smooth = 0;
x = 43;
y = 1392;
},
{
segmentType = curve;
smooth = 1;
x = 43;
y = 1344;
},
{
smooth = 0;
x = 43;
y = 1336;
},
{
smooth = 0;
x = 44;
y = 1326;
},
{
segmentType = curve;
smooth = 0;
x = 48;
y = 1318;
},
{
segmentType = line;
smooth = 1;
x = 501;
y = 117;
},
{
smooth = 0;
x = 532;
y = 35;
},
{
smooth = 0;
x = 581;
y = "-5";
}
);
}
);
lib = {
};
name = V;
unicodes = (
);
width = 1289;
};
};
components = (
);
contours = (
);
lib = {
};
name = V;
unicodes = (
);
width = 1365;
};
},
{
glyphname = W;
lastChange = "2016-09-21 12:21:56 +0000";
layers = (
{
anchors = (
{
name = bottom;
position = "{534, 0}";
},
{
name = top;
position = "{589, 712}";
}
);
background = {
anchors = (
{
name = bottom;
position = "{534, 0}";
},
{
name = top;
position = "{589, 712}";
}
);
paths = (
{
closed = 1;
nodes = (
"335 0 LINE",
"564 655 LINE",
"542 655 LINE",
"771 0 LINE",
"819 0 LINE",
"1067 712 LINE",
"1012 712 LINE",
"779 35 LINE",
"809 35 LINE",
"576 711 LINE",
"531 712 LINE",
"297 35 LINE",
"326 35 LINE",
"94 712 LINE",
"39 712 LINE",
"287 0 LINE"
);
}
);
};
layerId = "9E718F8A-2CEA-4931-B05D-987794BD97DA";
paths = (
{
closed = 1;
nodes = (
"316 0 LINE",
"596 655 LINE",
"575 655 LINE",
"751 0 LINE",
"800 0 LINE",
"1103 712 LINE",
"1048 712 LINE",
"762 35 LINE",
"792 35 LINE",
"612 711 LINE",
"568 712 LINE",
"280 35 LINE",
"309 35 LINE",
"130 712 LINE",
"76 712 LINE",
"268 0 LINE"
);
}
);
width = 1106;
},
{
anchors = (
{
name = bottom;
position = "{544, 0}";
},
{
name = top;
position = "{600, 712}";
}
);
background = {
paths = (
{
closed = 1;
nodes = (
"400 0 LINE",
"577 497 LINE",
"552 497 LINE",
"726 0 LINE",
"856 0 LINE",
"1110 712 LINE",
"955 712 LINE",
"772 169 LINE",
"807 169 LINE",
"625 712 LINE",
"512 712 LINE",
"321 169 LINE",
"362 169 LINE",
"182 712 LINE",
"17 712 LINE",
"270 0 LINE"
);
}
);
};
layerId = "E1B555A7-F4E1-459C-9C1A-AE952106EEF9";
paths = (
{
closed = 1;
nodes = (
"381 0 LINE",
"595 497 LINE",
"571 497 LINE",
"707 0 LINE",
"837 0 LINE",
"1146 712 LINE",
"991 712 LINE",
"764 169 LINE",
"799 169 LINE",
"661 712 LINE",
"547 712 LINE",
"314 169 LINE",
"355 169 LINE",
"217 712 LINE",
"54 712 LINE",
"250 0 LINE"
);
}
);
width = 1127;
}
);
leftKerningGroup = V;
rightKerningGroup = V;
unicode = 0057;
userData = {
anchors = (
);
b = {
};
com.typemytype.robofont.layerData = {
b = {
anchors = (
);
components = (
);
contours = (
);
lib = {
};
name = W;
unicodes = (
);
width = 2126;
};
};
components = (
);
contours = (
);
lib = {
};
name = W;
unicodes = (
);
width = 2070;
};
},
{
glyphname = X;
lastChange = "2016-09-21 12:21:56 +0000";
layers = (
{
anchors = (
{
name = bottom;
position = "{302, 0}";
},
{
name = top;
position = "{358, 712}";
}
);
background = {
anchors = (
{
name = bottom;
position = "{302, 0}";
},
{
name = top;
position = "{358, 712}";
}
);
paths = (
{
closed = 1;
nodes = (
"321 323 LINE",
"352 365 LINE",
"608 712 LINE",
"544 712 LINE",
"322 407 LINE",
"290 366 LINE",
"19 0 LINE",
"85 0 LINE"
);
},
{
closed = 1;
nodes = (
"622 0 LINE",
"352 365 LINE",
"322 407 LINE",
"99 712 LINE",
"34 712 LINE",
"290 366 LINE",
"321 323 LINE",
"558 0 LINE"
);
}
);
};
layerId = "9E718F8A-2CEA-4931-B05D-987794BD97DA";
paths = (
{
closed = 1;
nodes = (
"328 323 LINE",
"362 365 LINE",
"644 712 LINE",
"578 712 LINE",
"333 408 LINE",
"299 367 LINE",
"0 0 LINE",
"66 0 LINE"
);
},
{
closed = 1;
nodes = (
"603 0 LINE",
"362 365 LINE",
"333 408 LINE",
"135 712 LINE",
"71 712 LINE",
"299 367 LINE",
"328 323 LINE",
"538 0 LINE"
);
}
);
width = 641;
},
{
anchors = (
{
name = bottom;
position = "{323, 0}";
},
{
name = top;
position = "{378, 712}";
}
);
background = {
paths = (
{
closed = 1;
nodes = (
"341 241 LINE",
"433 361 LINE",
"699 712 LINE",
"510 712 LINE",
"341 479 LINE",
"249 361 LINE",
"-22 0 LINE",
"167 0 LINE"
);
},
{
closed = 1;
nodes = (
"705 0 LINE",
"433 361 LINE",
"341 479 LINE",
"174 712 LINE",
"-15 712 LINE",
"249 361 LINE",
"341 241 LINE",
"515 0 LINE"
);
}
);
};
layerId = "E1B555A7-F4E1-459C-9C1A-AE952106EEF9";
paths = (
{
closed = 1;
nodes = (
"342 238 LINE",
"441 359 LINE",
"735 712 LINE",
"543 712 LINE",
"359 483 LINE",
"260 363 LINE",
"-41 0 LINE",
"150 0 LINE"
);
},
{
closed = 1;
nodes = (
"686 0 LINE",
"441 359 LINE",
"359 483 LINE",
"207 712 LINE",
"21 712 LINE",
"260 363 LINE",
"342 238 LINE",
"500 0 LINE"
);
}
);
width = 684;
}
);
leftKerningGroup = X;
rightKerningGroup = X;
unicode = 0058;
userData = {
anchors = (
);
b = {
};
com.typemytype.robofont.layerData = {
b = {
anchors = (
);
components = (
);
contours = (
{
points = (
{
segmentType = curve;
smooth = 1;
x = 151;
y = 0;
},
{
smooth = 0;
x = 176;
y = 0;
},
{
smooth = 0;
x = 201;
y = 12;
},
{
segmentType = curve;
smooth = 1;
x = 222;
y = 41;
},
{
segmentType = line;
smooth = 0;
x = 641;
y = 616;
},
{
segmentType = line;
smooth = 0;
x = 746;
y = 734;
},
{
segmentType = line;
smooth = 1;
x = 1175;
y = 1310;
},
{
smooth = 0;
x = 1186;
y = 1325;
},
{
smooth = 0;
x = 1190;
y = 1338;
},
{
segmentType = curve;
smooth = 1;
x = 1190;
y = 1353;
},
{
smooth = 0;
x = 1190;
y = 1393;
},
{
smooth = 0;
x = 1153;
y = 1426;
},
{
segmentType = curve;
smooth = 1;
x = 1110;
y = 1426;
},
{
smooth = 0;
x = 1083;
y = 1426;
},
{
smooth = 0;
x = 1058;
y = 1414;
},
{
segmentType = curve;
smooth = 1;
x = 1037;
y = 1385;
},
{
segmentType = line;
smooth = 0;
x = 648;
y = 844;
},
{
segmentType = line;
smooth = 0;
x = 542;
y = 732;
},
{
segmentType = line;
smooth = 1;
x = 84;
y = 121;
},
{
smooth = 0;
x = 73;
y = 106;
},
{
smooth = 0;
x = 68;
y = 91;
},
{
segmentType = curve;
smooth = 1;
x = 68;
y = 76;
},
{
smooth = 0;
x = 68;
y = 35;
},
{
smooth = 0;
x = 108;
y = 0;
}
);
},
{
points = (
{
segmentType = curve;
smooth = 1;
x = 1104;
y = 0;
},
{
smooth = 0;
x = 1151;
y = 0;
},
{
smooth = 0;
x = 1200;
y = 40;
},
{
segmentType = curve;
smooth = 1;
x = 1200;
y = 85;
},
{
smooth = 0;
x = 1200;
y = 98;
},
{
smooth = 0;
x = 1195;
y = 113;
},
{
segmentType = curve;
smooth = 0;
x = 1186;
y = 126;
},
{
segmentType = line;
smooth = 0;
x = 272;
y = 1385;
},
{
smooth = 0;
x = 252;
y = 1414;
},
{
smooth = 0;
x = 225;
y = 1426;
},
{
segmentType = curve;
smooth = 1;
x = 197;
y = 1426;
},
{
smooth = 0;
x = 149;
y = 1426;
},
{
smooth = 0;
x = 100;
y = 1388;
},
{
segmentType = curve;
smooth = 1;
x = 100;
y = 1343;
},
{
smooth = 0;
x = 100;
y = 1328;
},
{
smooth = 0;
x = 105;
y = 1315;
},
{
segmentType = curve;
smooth = 0;
x = 114;
y = 1303;
},
{
segmentType = line;
smooth = 0;
x = 1033;
y = 40;
},
{
smooth = 0;
x = 1052;
y = 13;
},
{
smooth = 0;
x = 1076;
y = 0;
}
);
}
);
lib = {
};
name = X;
unicodes = (
);
width = 1274;
};
};
components = (
);
contours = (
);
lib = {
};
name = X;
unicodes = (
);
width = 1322;
};
},
{
glyphname = Y;
lastChange = "2016-09-21 12:21:56 +0000";
layers = (
{
anchors = (
{
name = bottom;
position = "{277, 0}";
},
{
name = top;
position = "{332, 712}";
},
{
name = topleft;
position = "{56, 712}";
}
);
background = {
anchors = (
{
name = bottom;
position = "{258, 0}";
},
{
name = top;
position = "{369, 712}";
},
{
name = topleft;
position = "{92, 712}";
}
);
paths = (
{
closed = 1;
nodes = (
"304 0 LINE",
"329 320 LINE",
"313 275 LINE",
"633 712 LINE",
"572 712 LINE",
"292 327 LINE",
"315 327 LINE",
"95 712 LINE",
"31 712 LINE",
"284 275 LINE",
"275 320 LINE",
"249 0 LINE"
);
}
);
};
layerId = "9E718F8A-2CEA-4931-B05D-987794BD97DA";
paths = (
{
closed = 1;
nodes = (
"304 0 LINE",
"329 320 LINE",
"313 275 LINE",
"633 712 LINE",
"570 712 LINE",
"293 327 LINE",
"310 327 LINE",
"93 712 LINE",
"31 712 LINE",
"284 275 LINE",
"275 320 LINE",
"249 0 LINE"
);
}
);
width = 593;
},
{
anchors = (
{
name = bottom;
position = "{304, 0}";
},
{
name = top;
position = "{359, 712}";
},
{
name = topleft;
position = "{56, 712}";
}
);
background = {
paths = (
{
closed = 1;
nodes = (
"385 0 LINE",
"410 320 LINE",
"370 227 LINE",
"736 712 LINE",
"551 712 LINE",
"310 378 LINE",
"354 378 LINE",
"167 712 LINE",
"-17 712 LINE",
"274 227 LINE",
"247 320 LINE",
"222 0 LINE"
);
}
);
};
layerId = "E1B555A7-F4E1-459C-9C1A-AE952106EEF9";
paths = (
{
closed = 1;
nodes = (
"385 0 LINE",
"410 320 LINE",
"370 227 LINE",
"736 712 LINE",
"549 712 LINE",
"313 378 LINE",
"348 378 LINE",
"164 712 LINE",
"-17 712 LINE",
"274 227 LINE",
"247 320 LINE",
"222 0 LINE"
);
}
);
width = 645;
}
);
leftKerningGroup = Y;
rightKerningGroup = Y;
unicode = 0059;
userData = {
anchors = (
);
b = {
};
com.typemytype.robofont.guides = (
);
com.typemytype.robofont.layerData = {
b = {
anchors = (
);
components = (
);
contours = (
{
points = (
{
segmentType = curve;
smooth = 1;
x = 641;
y = 0;
},
{
smooth = 0;
x = 685;
y = 0;
},
{
smooth = 0;
x = 730;
y = 29;
},
{
segmentType = curve;
smooth = 1;
x = 730;
y = 85;
},
{
segmentType = line;
smooth = 0;
x = 730;
y = 1285;
},
{
segmentType = line;
smooth = 1;
x = 1115;
y = 1285;
},
{
smooth = 0;
x = 1164;
y = 1285;
},
{
smooth = 0;
x = 1190;
y = 1319;
},
{
segmentType = curve;
smooth = 1;
x = 1190;
y = 1355;
},
{
smooth = 0;
x = 1190;
y = 1392;
},
{
smooth = 0;
x = 1166;
y = 1426;
},
{
segmentType = curve;
smooth = 1;
x = 1115;
y = 1426;
},
{
segmentType = line;
smooth = 1;
x = 160;
y = 1426;
},
{
smooth = 0;
x = 111;
y = 1426;
},
{
smooth = 0;
x = 86;
y = 1392;
},
{
segmentType = curve;
smooth = 1;
x = 86;
y = 1355;
},
{
smooth = 0;
x = 86;
y = 1319;
},
{
smooth = 0;
x = 111;
y = 1285;
},
{
segmentType = curve;
smooth = 1;
x = 160;
y = 1285;
},
{
segmentType = line;
smooth = 0;
x = 552;
y = 1285;
},
{
segmentType = line;
smooth = 1;
x = 552;
y = 85;
},
{
smooth = 0;
x = 552;
y = 29;
},
{
smooth = 0;
x = 596;
y = 0;
}
);
}
);
lib = {
};
name = Y;
unicodes = (
);
width = 1278;
};
};
components = (
);
contours = (
);
lib = {
};
name = Y;
unicodes = (
);
width = 1321;
};
},
{
glyphname = Z;
lastChange = "2016-09-21 12:21:56 +0000";
layers = (
{
anchors = (
{
name = bottom;
position = "{282, 0}";
},
{
name = top;
position = "{329, 712}";
}
);
background = {
anchors = (
{
name = bottom;
position = "{282, 0}";
},
{
name = top;
position = "{329, 712}";
}
);
paths = (
{
closed = 1;
nodes = (
"550 0 LINE",
"550 48 LINE",
"82 48 LINE",
"80 7 LINE",
"540 672 LINE",
"540 712 LINE",
"43 712 LINE",
"43 664 LINE",
"502 664 LINE",
"504 705 LINE",
"43 40 LINE",
"43 0 LINE"
);
}
);
};
layerId = "9E718F8A-2CEA-4931-B05D-987794BD97DA";
paths = (
{
closed = 1;
nodes = (
"574 672 LINE",
"577 712 LINE",
"81 712 LINE",
"77 664 LINE",
"535 664 LINE",
"537 705 LINE",
"27 40 LINE",
"24 0 LINE",
"531 0 LINE",
"535 48 LINE",
"67 48 LINE",
"65 7 LINE"
);
}
);
width = 588;
},
{
anchors = (
{
name = bottom;
position = "{287, 0}";
},
{
name = top;
position = "{346, 712}";
}
);
background = {
paths = (
{
closed = 1;
nodes = (
"582 0 LINE",
"582 128 LINE",
"201 128 LINE",
"199 84 LINE",
"571 595 LINE",
"571 712 LINE",
"51 712 LINE",
"51 584 LINE",
"419 584 LINE",
"420 628 LINE",
"51 119 LINE",
"51 0 LINE"
);
}
);
};
layerId = "E1B555A7-F4E1-459C-9C1A-AE952106EEF9";
paths = (
{
closed = 1;
nodes = (
"563 0 LINE",
"573 128 LINE",
"192 128 LINE",
"192 84 LINE",
"598 595 LINE",
"607 712 LINE",
"87 712 LINE",
"77 584 LINE",
"445 584 LINE",
"445 628 LINE",
"40 119 LINE",
"31 0 LINE"
);
}
);
width = 617;
}
);
leftKerningGroup = Z;
rightKerningGroup = Z;
unicode = 005A;
userData = {
anchors = (
);
b = {
};
com.typemytype.robofont.layerData = {
b = {
anchors = (
);
components = (
);
contours = (
{
points = (
{
segmentType = curve;
smooth = 1;
x = 266;
y = 0;
},
{
segmentType = line;
smooth = 1;
x = 1035;
y = 0;
},
{
smooth = 0;
x = 1084;
y = 0;
},
{
smooth = 0;
x = 1108;
y = 34;
},
{
segmentType = curve;
smooth = 1;
x = 1108;
y = 71;
},
{
smooth = 0;
x = 1108;
y = 107;
},
{
smooth = 0;
x = 1084;
y = 141;
},
{
segmentType = curve;
smooth = 1;
x = 1035;
y = 141;
},
{
segmentType = line;
smooth = 0;
x = 356;
y = 141;
},
{
segmentType = line;
smooth = 0;
x = 356;
y = 665;
},
{
segmentType = line;
smooth = 1;
x = 975;
y = 665;
},
{
smooth = 0;
x = 1024;
y = 665;
},
{
smooth = 0;
x = 1049;
y = 698;
},
{
segmentType = curve;
smooth = 1;
x = 1049;
y = 734;
},
{
smooth = 0;
x = 1049;
y = 770;
},
{
smooth = 0;
x = 1026;
y = 803;
},
{
segmentType = curve;
smooth = 1;
x = 975;
y = 803;
},
{
segmentType = line;
smooth = 0;
x = 356;
y = 803;
},
{
segmentType = line;
smooth = 0;
x = 356;
y = 1285;
},
{
segmentType = line;
smooth = 1;
x = 1007;
y = 1285;
},
{
smooth = 0;
x = 1056;
y = 1285;
},
{
smooth = 0;
x = 1080;
y = 1319;
},
{
segmentType = curve;
smooth = 1;
x = 1080;
y = 1356;
},
{
smooth = 0;
x = 1080;
y = 1392;
},
{
smooth = 0;
x = 1056;
y = 1426;
},
{
segmentType = curve;
smooth = 1;
x = 1007;
y = 1426;
},
{
segmentType = line;
smooth = 1;
x = 261;
y = 1426;
},
{
smooth = 0;
x = 213;
y = 1426;
},
{
smooth = 0;
x = 178;
y = 1383;
},
{
segmentType = curve;
smooth = 1;
x = 178;
y = 1340;
},
{
segmentType = line;
smooth = 1;
x = 178;
y = 86;
},
{
smooth = 0;
x = 178;
y = 41;
},
{
smooth = 0;
x = 222;
y = 0;
}
);
}
);
lib = {
};
name = Z;
unicodes = (
);
width = 1165;
};
};
components = (
);
contours = (
);
lib = {
};
name = Z;
unicodes = (
);
width = 1222;
};
},
{
color = 3;
glyphname = a;
lastChange = "2016-09-21 12:36:55 +0000";
layers = (
{
anchors = (
{
name = bottom;
position = "{297, 0}";
},
{
name = ogonek;
position = "{530, 10}";
},
{
name = top;
position = "{337, 511}";
}
);
background = {
paths = (
{
closed = 1;
nodes = (
"338 -8 OFFCURVE",
"405 33 OFFCURVE",
"428 99 CURVE",
"416 101 LINE",
"416 0 LINE",
"575 0 LINE",
"575 507 LINE",
"416 507 LINE",
"416 404 LINE",
"428 412 LINE",
"405 478 OFFCURVE",
"338 520 OFFCURVE",
"257 520 CURVE SMOOTH",
"126 520 OFFCURVE",
"33 412 OFFCURVE",
"33 253 CURVE SMOOTH",
"33 94 OFFCURVE",
"125 -8 OFFCURVE",
"257 -8 CURVE SMOOTH"
);
},
{
closed = 1;
nodes = (
"233 114 OFFCURVE",
"193 163 OFFCURVE",
"193 253 CURVE SMOOTH",
"193 345 OFFCURVE",
"235 398 OFFCURVE",
"305 398 CURVE SMOOTH",
"376 398 OFFCURVE",
"416 347 OFFCURVE",
"416 255 CURVE SMOOTH",
"416 164 OFFCURVE",
"376 114 OFFCURVE",
"305 114 CURVE SMOOTH"
);
}
);
};
layerId = "E1B555A7-F4E1-459C-9C1A-AE952106EEF9";
paths = (
{
closed = 1;
nodes = (
"325 -8 OFFCURVE",
"387 28 OFFCURVE",
"416 87 CURVE",
"404 101 LINE",
"396 0 LINE",
"555 0 LINE",
"595 507 LINE",
"436 507 LINE",
"428 404 LINE",
"439 430 LINE",
"407 487 OFFCURVE",
"352 520 OFFCURVE",
"276 520 CURVE SMOOTH",
"131 520 OFFCURVE",
"33 403 OFFCURVE",
"33 236 CURVE SMOOTH",
"33 84 OFFCURVE",
"121 -8 OFFCURVE",
"249 -8 CURVE SMOOTH"
);
},
{
closed = 1;
nodes = (
"233 113 OFFCURVE",
"193 160 OFFCURVE",
"193 246 CURVE SMOOTH",
"193 340 OFFCURVE",
"237 399 OFFCURVE",
"309 399 CURVE SMOOTH",
"378 399 OFFCURVE",
"417 353 OFFCURVE",
"417 263 CURVE SMOOTH",
"417 173 OFFCURVE",
"374 113 OFFCURVE",
"304 113 CURVE SMOOTH"
);
}
);
width = 634;
},
{
anchors = (
{
name = bottom;
position = "{277, 0}";
},
{
name = ogonek;
position = "{482, 10}";
},
{
name = top;
position = "{317, 506}";
}
);
layerId = "9E718F8A-2CEA-4931-B05D-987794BD97DA";
paths = (
{
closed = 1;
nodes = (
"350 -7 OFFCURVE",
"429 41 OFFCURVE",
"452 122 CURVE",
"442 140 LINE",
"431 0 LINE",
"484 0 LINE",
"524 501 LINE",
"470 501 LINE",
"460 366 LINE",
"474 374 LINE",
"454 462 OFFCURVE",
"383 513 OFFCURVE",
"287 513 CURVE SMOOTH",
"147 513 OFFCURVE",
"53 403 OFFCURVE",
"53 236 CURVE SMOOTH",
"53 88 OFFCURVE",
"138 -7 OFFCURVE",
"266 -7 CURVE SMOOTH"
);
},
{
closed = 1;
nodes = (
"170 42 OFFCURVE",
"110 112 OFFCURVE",
"110 232 CURVE SMOOTH",
"110 377 OFFCURVE",
"176 464 OFFCURVE",
"286 464 CURVE SMOOTH",
"393 464 OFFCURVE",
"452 398 OFFCURVE",
"452 275 CURVE SMOOTH",
"452 130 OFFCURVE",
"385 42 OFFCURVE",
"275 42 CURVE SMOOTH"
);
}
);
width = 588;
}
);
leftKerningGroup = o;
leftMetricsKey = o;
rightKerningGroup = u;
unicode = 0061;
userData = {
anchors = (
);
b = {
};
com.typemytype.robofont.layerData = {
b = {
anchors = (
);
components = (
);
contours = (
);
lib = {
};
name = p;
unicodes = (
);
width = 1181;
};
};
components = (
);
contours = (
);
lib = {
};
name = p;
unicodes = (
);
width = 1207;
};
},
{
color = 3;
glyphname = aogonek;
lastChange = "2016-09-21 12:52:20 +0000";
layers = (
{
background = {
paths = (
{
closed = 1;
nodes = (
"575 507 LINE",
"416 507 LINE",
"416 404 LINE",
"428 412 LINE",
"405 477 OFFCURVE",
"338 520 OFFCURVE",
"257 520 CURVE SMOOTH",
"125 520 OFFCURVE",
"33 410 OFFCURVE",
"33 253 CURVE SMOOTH",
"33 96 OFFCURVE",
"123 -8 OFFCURVE",
"257 -8 CURVE SMOOTH",
"338 -8 OFFCURVE",
"405 33 OFFCURVE",
"428 99 CURVE",
"416 103 LINE",
"416 0 LINE",
"461 0 LINE",
"474 38 LINE",
"412 13 OFFCURVE",
"377 -32 OFFCURVE",
"377 -88 CURVE SMOOTH",
"377 -156 OFFCURVE",
"432 -204 OFFCURVE",
"509 -204 CURVE SMOOTH",
"546 -204 OFFCURVE",
"583 -196 OFFCURVE",
"614 -183 CURVE",
"596 -108 LINE",
"576 -117 OFFCURVE",
"558 -121 OFFCURVE",
"540 -121 CURVE SMOOTH",
"501 -121 OFFCURVE",
"479 -102 OFFCURVE",
"479 -66 CURVE SMOOTH",
"479 -27 OFFCURVE",
"514 0 OFFCURVE",
"565 0 CURVE SMOOTH",
"575 0 LINE"
);
},
{
closed = 1;
nodes = (
"233 114 OFFCURVE",
"193 163 OFFCURVE",
"193 253 CURVE SMOOTH",
"193 344 OFFCURVE",
"235 398 OFFCURVE",
"305 398 CURVE SMOOTH",
"376 398 OFFCURVE",
"416 347 OFFCURVE",
"416 255 CURVE SMOOTH",
"416 164 OFFCURVE",
"376 114 OFFCURVE",
"305 114 CURVE SMOOTH"
);
}
);
};
layerId = "E1B555A7-F4E1-459C-9C1A-AE952106EEF9";
paths = (
{
closed = 1;
nodes = (
"595 507 LINE",
"436 507 LINE",
"428 404 LINE",
"439 430 LINE",
"407 487 OFFCURVE",
"352 520 OFFCURVE",
"276 520 CURVE SMOOTH",
"131 520 OFFCURVE",
"33 403 OFFCURVE",
"33 236 CURVE SMOOTH",
"33 84 OFFCURVE",
"121 -8 OFFCURVE",
"249 -8 CURVE SMOOTH",
"325 -8 OFFCURVE",
"387 28 OFFCURVE",
"416 87 CURVE",
"404 101 LINE",
"396 0 LINE",
"441 0 LINE",
"458 34 LINE",
"392 13 OFFCURVE",
"350 -35 OFFCURVE",
"350 -94 CURVE SMOOTH",
"350 -158 OFFCURVE",
"404 -204 OFFCURVE",
"481 -204 CURVE SMOOTH",
"514 -204 OFFCURVE",
"548 -196 OFFCURVE",
"580 -183 CURVE",
"568 -108 LINE",
"545 -117 OFFCURVE",
"527 -121 OFFCURVE",
"509 -121 CURVE SMOOTH",
"476 -121 OFFCURVE",
"455 -102 OFFCURVE",
"455 -69 CURVE SMOOTH",
"455 -30 OFFCURVE",
"485 0 OFFCURVE",
"535 0 CURVE SMOOTH",
"555 0 LINE"
);
},
{
closed = 1;
nodes = (
"233 113 OFFCURVE",
"193 160 OFFCURVE",
"193 246 CURVE SMOOTH",
"193 340 OFFCURVE",
"237 399 OFFCURVE",
"309 399 CURVE SMOOTH",
"378 399 OFFCURVE",
"417 353 OFFCURVE",
"417 263 CURVE SMOOTH",
"417 173 OFFCURVE",
"374 113 OFFCURVE",
"304 113 CURVE SMOOTH"
);
}
);
width = 634;
},
{
layerId = "9E718F8A-2CEA-4931-B05D-987794BD97DA";
paths = (
{
closed = 1;
nodes = (
"524 501 LINE",
"470 501 LINE",
"460 366 LINE",
"474 374 LINE",
"454 462 OFFCURVE",
"383 513 OFFCURVE",
"287 513 CURVE SMOOTH",
"148 513 OFFCURVE",
"53 403 OFFCURVE",
"53 236 CURVE SMOOTH",
"53 88 OFFCURVE",
"139 -7 OFFCURVE",
"266 -7 CURVE SMOOTH",
"350 -7 OFFCURVE",
"429 41 OFFCURVE",
"452 122 CURVE",
"440 114 LINE",
"431 0 LINE",
"447 0 LINE",
"471 39 LINE",
"385 26 OFFCURVE",
"327 -23 OFFCURVE",
"327 -98 CURVE SMOOTH",
"327 -157 OFFCURVE",
"369 -197 OFFCURVE",
"437 -197 CURVE SMOOTH",
"469 -197 OFFCURVE",
"501 -186 OFFCURVE",
"520 -174 CURVE",
"506 -133 LINE",
"483 -148 OFFCURVE",
"460 -154 OFFCURVE",
"443 -154 CURVE SMOOTH",
"403 -154 OFFCURVE",
"379 -132 OFFCURVE",
"379 -89 CURVE SMOOTH",
"379 -32 OFFCURVE",
"425 0 OFFCURVE",
"475 0 CURVE SMOOTH",
"484 0 LINE"
);
},
{
closed = 1;
nodes = (
"396 470 OFFCURVE",
"456 401 OFFCURVE",
"456 276 CURVE SMOOTH",
"456 127 OFFCURVE",
"388 36 OFFCURVE",
"275 36 CURVE SMOOTH",
"168 36 OFFCURVE",
"106 108 OFFCURVE",
"106 231 CURVE SMOOTH",
"106 380 OFFCURVE",
"174 470 OFFCURVE",
"286 470 CURVE SMOOTH"
);
}
);
width = 588;
}
);
leftKerningGroup = o;
leftMetricsKey = o;
widthMetricsKey = a;
rightKerningGroup = u;
unicode = 0105;
userData = {
com.typemytype.robofont.layerData = {
b = {
anchors = (
);
components = (
);
contours = (
);
lib = {
};
name = aogonek;
unicodes = (
);
width = 1040;
};
};
};
},
{
color = 3;
glyphname = aringacute;
lastChange = "2016-09-21 12:52:23 +0000";
layers = (
{
background = {
paths = (
{
closed = 1;
nodes = (
"338 -8 OFFCURVE",
"405 33 OFFCURVE",
"428 99 CURVE",
"416 101 LINE",
"416 0 LINE",
"575 0 LINE",
"575 507 LINE",
"416 507 LINE",
"416 404 LINE",
"428 412 LINE",
"405 478 OFFCURVE",
"338 520 OFFCURVE",
"257 520 CURVE SMOOTH",
"126 520 OFFCURVE",
"33 412 OFFCURVE",
"33 253 CURVE SMOOTH",
"33 94 OFFCURVE",
"125 -8 OFFCURVE",
"257 -8 CURVE SMOOTH"
);
},
{
closed = 1;
nodes = (
"233 114 OFFCURVE",
"193 163 OFFCURVE",
"193 253 CURVE SMOOTH",
"193 345 OFFCURVE",
"235 398 OFFCURVE",
"305 398 CURVE SMOOTH",
"376 398 OFFCURVE",
"416 347 OFFCURVE",
"416 255 CURVE SMOOTH",
"416 164 OFFCURVE",
"376 114 OFFCURVE",
"305 114 CURVE SMOOTH"
);
},
{
closed = 1;
nodes = (
"379 568 OFFCURVE",
"430 617 OFFCURVE",
"430 680 CURVE SMOOTH",
"430 743 OFFCURVE",
"379 791 OFFCURVE",
"316 791 CURVE SMOOTH",
"253 791 OFFCURVE",
"203 743 OFFCURVE",
"203 680 CURVE SMOOTH",
"203 617 OFFCURVE",
"253 568 OFFCURVE",
"316 568 CURVE SMOOTH"
);
},
{
closed = 1;
nodes = (
"290 633 OFFCURVE",
"272 654 OFFCURVE",
"272 680 CURVE SMOOTH",
"272 706 OFFCURVE",
"290 726 OFFCURVE",
"316 726 CURVE SMOOTH",
"342 726 OFFCURVE",
"361 706 OFFCURVE",
"361 680 CURVE SMOOTH",
"361 654 OFFCURVE",
"342 633 OFFCURVE",
"316 633 CURVE SMOOTH"
);
},
{
closed = 1;
nodes = (
"576 882 LINE",
"429 882 LINE",
"347 763 LINE",
"412 717 LINE"
);
}
);
};
layerId = "E1B555A7-F4E1-459C-9C1A-AE952106EEF9";
paths = (
{
closed = 1;
nodes = (
"325 -8 OFFCURVE",
"387 28 OFFCURVE",
"416 87 CURVE",
"404 101 LINE",
"396 0 LINE",
"555 0 LINE",
"595 507 LINE",
"436 507 LINE",
"428 404 LINE",
"439 430 LINE",
"407 487 OFFCURVE",
"352 520 OFFCURVE",
"276 520 CURVE SMOOTH",
"131 520 OFFCURVE",
"33 403 OFFCURVE",
"33 236 CURVE SMOOTH",
"33 84 OFFCURVE",
"121 -8 OFFCURVE",
"249 -8 CURVE SMOOTH"
);
},
{
closed = 1;
nodes = (
"233 113 OFFCURVE",
"193 160 OFFCURVE",
"193 246 CURVE SMOOTH",
"193 340 OFFCURVE",
"237 399 OFFCURVE",
"309 399 CURVE SMOOTH",
"378 399 OFFCURVE",
"417 353 OFFCURVE",
"417 263 CURVE SMOOTH",
"417 173 OFFCURVE",
"374 113 OFFCURVE",
"304 113 CURVE SMOOTH"
);
},
{
closed = 1;
nodes = (
"404 568 OFFCURVE",
"459 617 OFFCURVE",
"464 680 CURVE SMOOTH",
"469 743 OFFCURVE",
"421 791 OFFCURVE",
"358 791 CURVE SMOOTH",
"295 791 OFFCURVE",
"242 743 OFFCURVE",
"237 680 CURVE SMOOTH",
"231 617 OFFCURVE",
"278 568 OFFCURVE",
"341 568 CURVE SMOOTH"
);
},
{
closed = 1;
nodes = (
"320 633 OFFCURVE",
"304 654 OFFCURVE",
"306 680 CURVE SMOOTH",
"308 706 OFFCURVE",
"327 726 OFFCURVE",
"353 726 CURVE SMOOTH",
"379 726 OFFCURVE",
"397 706 OFFCURVE",
"395 680 CURVE SMOOTH",
"393 654 OFFCURVE",
"372 633 OFFCURVE",
"346 633 CURVE SMOOTH"
);
},
{
closed = 1;
nodes = (
"630 882 LINE",
"474 882 LINE",
"387 763 LINE",
"449 717 LINE"
);
}
);
width = 634;
},
{
layerId = "9E718F8A-2CEA-4931-B05D-987794BD97DA";
paths = (
{
closed = 1;
nodes = (
"350 -7 OFFCURVE",
"429 41 OFFCURVE",
"452 122 CURVE",
"442 140 LINE",
"431 0 LINE",
"484 0 LINE",
"524 501 LINE",
"470 501 LINE",
"460 366 LINE",
"474 374 LINE",
"454 462 OFFCURVE",
"383 513 OFFCURVE",
"287 513 CURVE SMOOTH",
"147 513 OFFCURVE",
"53 403 OFFCURVE",
"53 236 CURVE SMOOTH",
"53 88 OFFCURVE",
"138 -7 OFFCURVE",
"266 -7 CURVE SMOOTH"
);
},
{
closed = 1;
nodes = (
"170 42 OFFCURVE",
"110 112 OFFCURVE",
"110 232 CURVE SMOOTH",
"110 377 OFFCURVE",
"176 464 OFFCURVE",
"286 464 CURVE SMOOTH",
"393 464 OFFCURVE",
"452 398 OFFCURVE",
"452 275 CURVE SMOOTH",
"452 130 OFFCURVE",
"385 42 OFFCURVE",
"275 42 CURVE SMOOTH"
);
},
{
closed = 1;
nodes = (
"385 573 OFFCURVE",
"430 617 OFFCURVE",
"430 672 CURVE SMOOTH",
"430 728 OFFCURVE",
"384 772 OFFCURVE",
"328 772 CURVE SMOOTH",
"274 772 OFFCURVE",
"228 728 OFFCURVE",
"228 672 CURVE SMOOTH",
"228 617 OFFCURVE",
"274 573 OFFCURVE",
"329 573 CURVE SMOOTH"
);
},
{
closed = 1;
nodes = (
"300 619 OFFCURVE",
"277 643 OFFCURVE",
"277 672 CURVE SMOOTH",
"277 702 OFFCURVE",
"299 726 OFFCURVE",
"329 726 CURVE SMOOTH",
"359 726 OFFCURVE",
"381 702 OFFCURVE",
"381 672 CURVE SMOOTH",
"381 643 OFFCURVE",
"359 619 OFFCURVE",
"329 619 CURVE SMOOTH"
);
},
{
closed = 1;
nodes = (
"408 718 LINE",
"560 876 LINE",
"484 878 LINE",
"367 721 LINE"
);
}
);
width = 588;
}
);
leftKerningGroup = o;
leftMetricsKey = o;
widthMetricsKey = a;
rightKerningGroup = u;
unicode = 01FB;
},
{
color = 3;
glyphname = ae;
lastChange = "2016-09-21 12:33:15 +0000";
layers = (
{
anchors = (
{
name = bottom;
position = "{411, 0}";
},
{
name = top;
position = "{451, 511}";
}
);
background = {
paths = (
{
closed = 1;
nodes = (
"696 -8 OFFCURVE",
"773 15 OFFCURVE",
"822 54 CURVE",
"780 161 LINE",
"735 129 OFFCURVE",
"682 112 OFFCURVE",
"636 112 CURVE SMOOTH",
"542 112 OFFCURVE",
"507 168 OFFCURVE",
"507 251 CURVE SMOOTH",
"507 364 OFFCURVE",
"543 409 OFFCURVE",
"608 409 CURVE SMOOTH",
"664 409 OFFCURVE",
"695 366 OFFCURVE",
"695 287 CURVE",
"734 318 LINE",
"497 318 LINE",
"496 239 LINE",
"831 239 LINE",
"831 262 LINE SMOOTH",
"831 416 OFFCURVE",
"742 520 OFFCURVE",
"612 520 CURVE SMOOTH",
"470 520 OFFCURVE",
"375 413 OFFCURVE",
"375 255 CURVE SMOOTH",
"375 87 OFFCURVE",
"466 -8 OFFCURVE",
"625 -8 CURVE SMOOTH"
);
},
{
closed = 1;
nodes = (
"359 -8 OFFCURVE",
"439 67 OFFCURVE",
"439 199 CURVE",
"491 209 LINE",
"491 299 LINE SMOOTH",
"491 450 OFFCURVE",
"426 520 OFFCURVE",
"284 520 CURVE SMOOTH",
"211 520 OFFCURVE",
"116 493 OFFCURVE",
"59 457 CURVE",
"101 349 LINE",
"155 381 OFFCURVE",
"220 400 OFFCURVE",
"275 400 CURVE SMOOTH",
"331 400 OFFCURVE",
"354 376 OFFCURVE",
"354 320 CURVE SMOOTH",
"354 209 LINE SMOOTH",
"354 149 OFFCURVE",
"324 102 OFFCURVE",
"263 102 CURVE SMOOTH",
"222 102 OFFCURVE",
"193 127 OFFCURVE",
"193 165 CURVE SMOOTH",
"193 214 OFFCURVE",
"231 241 OFFCURVE",
"326 241 CURVE SMOOTH",
"361 241 LINE",
"361 318 LINE",
"317 318 LINE SMOOTH",
"116 318 OFFCURVE",
"38 269 OFFCURVE",
"38 159 CURVE SMOOTH",
"38 59 OFFCURVE",
"124 -8 OFFCURVE",
"242 -8 CURVE SMOOTH"
);
}
);
};
layerId = "E1B555A7-F4E1-459C-9C1A-AE952106EEF9";
paths = (
{
closed = 1;
nodes = (
"339 -8 OFFCURVE",
"435 67 OFFCURVE",
"445 199 CURVE",
"488 209 LINE",
"495 299 LINE SMOOTH",
"505 428 OFFCURVE",
"457 520 OFFCURVE",
"305 520 CURVE SMOOTH",
"224 520 OFFCURVE",
"131 494 OFFCURVE",
"75 457 CURVE",
"109 349 LINE",
"161 380 OFFCURVE",
"224 400 OFFCURVE",
"273 400 CURVE SMOOTH",
"337 400 OFFCURVE",
"364 374 OFFCURVE",
"359 315 CURVE SMOOTH",
"351 209 LINE SMOOTH",
"346 146 OFFCURVE",
"305 102 OFFCURVE",
"252 102 CURVE SMOOTH",
"213 102 OFFCURVE",
"187 124 OFFCURVE",
"187 166 CURVE SMOOTH",
"187 222 OFFCURVE",
"223 241 OFFCURVE",
"316 241 CURVE SMOOTH",
"358 241 LINE",
"365 318 LINE",
"313 318 LINE SMOOTH",
"113 318 OFFCURVE",
"31 268 OFFCURVE",
"31 147 CURVE SMOOTH",
"31 55 OFFCURVE",
"105 -8 OFFCURVE",
"221 -8 CURVE SMOOTH"
);
},
{
closed = 1;
nodes = (
"689 -8 OFFCURVE",
"762 15 OFFCURVE",
"807 54 CURVE",
"773 161 LINE",
"728 129 OFFCURVE",
"681 112 OFFCURVE",
"630 112 CURVE SMOOTH",
"551 112 OFFCURVE",
"507 155 OFFCURVE",
"507 245 CURVE SMOOTH",
"507 361 OFFCURVE",
"547 409 OFFCURVE",
"617 409 CURVE SMOOTH",
"666 409 OFFCURVE",
"702 372 OFFCURVE",
"698 287 CURVE",
"739 318 LINE",
"501 318 LINE",
"494 239 LINE",
"828 239 LINE",
"850 418 OFFCURVE",
"754 520 OFFCURVE",
"619 520 CURVE SMOOTH",
"476 520 OFFCURVE",
"374 406 OFFCURVE",
"374 241 CURVE SMOOTH",
"374 90 OFFCURVE",
"462 -8 OFFCURVE",
"618 -8 CURVE SMOOTH"
);
}
);
width = 864;
},
{
anchors = (
{
name = bottom;
position = "{416, 0}";
},
{
name = top;
position = "{457, 506}";
}
);
layerId = "9E718F8A-2CEA-4931-B05D-987794BD97DA";
paths = (
{
closed = 1;
nodes = (
"337 -7 OFFCURVE",
"418 64 OFFCURVE",
"439 177 CURVE",
"455 176 LINE",
"469 324 LINE SMOOTH",
"477 447 OFFCURVE",
"424 513 OFFCURVE",
"300 513 CURVE SMOOTH",
"231 513 OFFCURVE",
"154 490 OFFCURVE",
"105 453 CURVE",
"124 409 LINE",
"184 447 OFFCURVE",
"241 464 OFFCURVE",
"301 464 CURVE SMOOTH",
"387 464 OFFCURVE",
"422 420 OFFCURVE",
"414 325 CURVE SMOOTH",
"405 215 LINE SMOOTH",
"397 113 OFFCURVE",
"325 42 OFFCURVE",
"234 42 CURVE SMOOTH",
"163 42 OFFCURVE",
"119 81 OFFCURVE",
"119 138 CURVE SMOOTH",
"119 212 OFFCURVE",
"159 259 OFFCURVE",
"364 259 CURVE SMOOTH",
"419 259 LINE",
"422 304 LINE",
"360 304 LINE SMOOTH",
"143 304 OFFCURVE",
"61 246 OFFCURVE",
"61 136 CURVE SMOOTH",
"61 52 OFFCURVE",
"130 -7 OFFCURVE",
"229 -7 CURVE SMOOTH"
);
},
{
closed = 1;
nodes = (
"696 -7 OFFCURVE",
"776 19 OFFCURVE",
"817 60 CURVE",
"797 103 LINE",
"747 61 OFFCURVE",
"686 42 OFFCURVE",
"635 42 CURVE SMOOTH",
"521 42 OFFCURVE",
"462 115 OFFCURVE",
"462 231 CURVE SMOOTH",
"462 377 OFFCURVE",
"529 467 OFFCURVE",
"650 467 CURVE SMOOTH",
"743 467 OFFCURVE",
"805 401 OFFCURVE",
"790 280 CURVE",
"812 304 LINE",
"445 304 LINE",
"443 259 LINE",
"840 259 LINE",
"858 427 OFFCURVE",
"776 513 OFFCURVE",
"647 513 CURVE SMOOTH",
"498 513 OFFCURVE",
"414 401 OFFCURVE",
"414 234 CURVE SMOOTH",
"414 88 OFFCURVE",
"492 -7 OFFCURVE",
"635 -7 CURVE SMOOTH"
);
}
);
width = 887;
}
);
leftKerningGroup = a;
rightKerningGroup = e;
rightMetricsKey = e;
unicode = 00E6;
userData = {
com.typemytype.robofont.layerData = {
b = {
anchors = (
);
components = (
);
contours = (
);
lib = {
};
name = ae;
unicodes = (
);
width = 1734;
};
};
};
},
{
color = 3;
glyphname = b;
lastChange = "2016-09-21 12:33:23 +0000";
layers = (
{
anchors = (
{
name = bottom;
position = "{299, 0}";
},
{
name = top;
position = "{398, 511}";
}
);
background = {
paths = (
{
closed = 1;
nodes = (
"218 0 LINE",
"218 122 LINE",
"207 99 LINE",
"229 33 OFFCURVE",
"296 -8 OFFCURVE",
"377 -8 CURVE SMOOTH",
"508 -8 OFFCURVE",
"601 99 OFFCURVE",
"601 258 CURVE SMOOTH",
"601 417 OFFCURVE",
"509 520 OFFCURVE",
"377 520 CURVE SMOOTH",
"296 520 OFFCURVE",
"229 478 OFFCURVE",
"207 412 CURVE",
"220 393 LINE",
"220 728 LINE",
"59 728 LINE",
"59 0 LINE"
);
},
{
closed = 1;
nodes = (
"258 114 OFFCURVE",
"218 164 OFFCURVE",
"218 256 CURVE SMOOTH",
"218 347 OFFCURVE",
"258 398 OFFCURVE",
"330 398 CURVE SMOOTH",
"401 398 OFFCURVE",
"441 348 OFFCURVE",
"441 258 CURVE SMOOTH",
"441 166 OFFCURVE",
"400 114 OFFCURVE",
"330 114 CURVE SMOOTH"
);
}
);
};
layerId = "E1B555A7-F4E1-459C-9C1A-AE952106EEF9";
paths = (
{
closed = 1;
nodes = (
"504 -8 OFFCURVE",
"602 108 OFFCURVE",
"602 276 CURVE SMOOTH",
"602 428 OFFCURVE",
"514 520 OFFCURVE",
"386 520 CURVE SMOOTH",
"310 520 OFFCURVE",
"248 483 OFFCURVE",
"219 425 CURVE",
"230 393 LINE",
"257 728 LINE",
"96 728 LINE",
"39 0 LINE",
"198 0 LINE",
"208 122 LINE",
"196 82 LINE",
"228 25 OFFCURVE",
"283 -8 OFFCURVE",
"359 -8 CURVE SMOOTH"
);
},
{
closed = 1;
nodes = (
"257 113 OFFCURVE",
"218 158 OFFCURVE",
"218 248 CURVE SMOOTH",
"218 339 OFFCURVE",
"261 399 OFFCURVE",
"332 399 CURVE SMOOTH",
"402 399 OFFCURVE",
"442 351 OFFCURVE",
"442 265 CURVE SMOOTH",
"442 171 OFFCURVE",
"399 113 OFFCURVE",
"326 113 CURVE SMOOTH"
);
}
);
width = 634;
},
{
anchors = (
{
name = bottom;
position = "{291, 0}";
},
{
name = top;
position = "{334, 506}";
}
);
layerId = "9E718F8A-2CEA-4931-B05D-987794BD97DA";
paths = (
{
closed = 1;
nodes = (
"442 -7 OFFCURVE",
"537 103 OFFCURVE",
"537 271 CURVE SMOOTH",
"537 418 OFFCURVE",
"450 513 OFFCURVE",
"323 513 CURVE SMOOTH",
"240 513 OFFCURVE",
"161 465 OFFCURVE",
"137 384 CURVE",
"148 367 LINE",
"178 728 LINE",
"124 728 LINE",
"65 0 LINE",
"120 0 LINE",
"131 139 LINE",
"117 132 LINE",
"135 44 OFFCURVE",
"208 -7 OFFCURVE",
"303 -7 CURVE SMOOTH"
);
},
{
closed = 1;
nodes = (
"197 42 OFFCURVE",
"138 108 OFFCURVE",
"138 231 CURVE SMOOTH",
"138 376 OFFCURVE",
"205 464 OFFCURVE",
"315 464 CURVE SMOOTH",
"418 464 OFFCURVE",
"480 395 OFFCURVE",
"480 274 CURVE SMOOTH",
"480 129 OFFCURVE",
"413 42 OFFCURVE",
"305 42 CURVE SMOOTH"
);
}
);
width = 588;
}
);
leftKerningGroup = h;
rightKerningGroup = o;
rightMetricsKey = o;
unicode = 0062;
userData = {
anchors = (
);
b = {
};
com.typemytype.robofont.layerData = {
b = {
anchors = (
);
components = (
);
contours = (
{
points = (
{
segmentType = curve;
smooth = 1;
x = 238;
y = 1425;
},
{
smooth = 0;
x = 198;
y = 1425;
},
{
smooth = 0;
x = 158;
y = 1400;
},
{
segmentType = curve;
smooth = 1;
x = 158;
y = 1351;
},
{
segmentType = line;
smooth = 1;
x = 158;
y = 76;
},
{
smooth = 0;
x = 158;
y = 27;
},
{
smooth = 0;
x = 197;
y = 3;
},
{
segmentType = curve;
smooth = 1;
x = 237;
y = 3;
},
{
smooth = 0;
x = 297;
y = 3;
},
{
smooth = 0;
x = 318;
y = 38;
},
{
segmentType = curve;
smooth = 1;
x = 318;
y = 76;
},
{
segmentType = line;
smooth = 0;
x = 318;
y = 183;
},
{
smooth = 0;
x = 384;
y = 46;
},
{
smooth = 0;
x = 516;
y = "-20";
},
{
segmentType = curve;
smooth = 1;
x = 666;
y = "-20";
},
{
smooth = 0;
x = 957;
y = "-20";
},
{
smooth = 0;
x = 1095;
y = 225;
},
{
segmentType = curve;
smooth = 1;
x = 1095;
y = 502;
},
{
smooth = 0;
x = 1095;
y = 777;
},
{
smooth = 0;
x = 939;
y = 1013;
},
{
segmentType = curve;
smooth = 1;
x = 650;
y = 1013;
},
{
smooth = 0;
x = 503;
y = 1013;
},
{
smooth = 0;
x = 376;
y = 942;
},
{
segmentType = curve;
smooth = 0;
x = 318;
y = 814;
},
{
segmentType = line;
smooth = 1;
x = 318;
y = 1351;
},
{
smooth = 0;
x = 318;
y = 1400;
},
{
smooth = 0;
x = 278;
y = 1425;
}
);
},
{
points = (
{
segmentType = curve;
smooth = 1;
x = 632;
y = 903;
},
{
smooth = 0;
x = 859;
y = 903;
},
{
smooth = 0;
x = 935;
y = 685;
},
{
segmentType = curve;
smooth = 1;
x = 935;
y = 496;
},
{
smooth = 0;
x = 935;
y = 316;
},
{
smooth = 0;
x = 869;
y = 93;
},
{
segmentType = curve;
smooth = 0;
x = 645;
y = 90;
},
{
smooth = 0;
x = 395;
y = 90;
},
{
smooth = 0;
x = 319;
y = 279;
},
{
segmentType = curve;
smooth = 1;
x = 319;
y = 501;
},
{
smooth = 0;
x = 319;
y = 701;
},
{
smooth = 0;
x = 407;
y = 903;
}
);
}
);
lib = {
};
name = b;
unicodes = (
);
width = 1181;
};
};
components = (
);
contours = (
);
lib = {
};
name = b;
unicodes = (
);
width = 1203;
};
},
{
color = 3;
glyphname = c;
lastChange = "2016-09-21 12:33:15 +0000";
layers = (
{
anchors = (
{
name = bottom;
position = "{276, 0}";
},
{
name = top;
position = "{325, 511}";
}
);
background = {
anchors = (
{
name = bottom;
position = "{295, 0}";
},
{
name = top;
position = "{385, 511}";
}
);
paths = (
{
closed = 1;
nodes = (
"381 -8 OFFCURVE",
"457 15 OFFCURVE",
"502 54 CURVE",
"460 164 LINE",
"421 133 OFFCURVE",
"370 115 OFFCURVE",
"325 115 CURVE SMOOTH",
"246 115 OFFCURVE",
"199 162 OFFCURVE",
"199 256 CURVE SMOOTH",
"199 350 OFFCURVE",
"247 397 OFFCURVE",
"325 397 CURVE SMOOTH",
"370 397 OFFCURVE",
"421 378 OFFCURVE",
"460 347 CURVE",
"502 458 LINE",
"459 496 OFFCURVE",
"383 520 OFFCURVE",
"310 520 CURVE SMOOTH",
"144 520 OFFCURVE",
"34 413 OFFCURVE",
"34 253 CURVE SMOOTH",
"34 93 OFFCURVE",
"135 -8 OFFCURVE",
"303 -8 CURVE SMOOTH"
);
}
);
};
layerId = "E1B555A7-F4E1-459C-9C1A-AE952106EEF9";
paths = (
{
closed = 1;
nodes = (
"371 -8 OFFCURVE",
"440 14 OFFCURVE",
"487 54 CURVE",
"453 164 LINE",
"410 133 OFFCURVE",
"366 115 OFFCURVE",
"314 115 CURVE SMOOTH",
"245 115 OFFCURVE",
"199 158 OFFCURVE",
"199 243 CURVE SMOOTH",
"199 341 OFFCURVE",
"247 397 OFFCURVE",
"328 397 CURVE SMOOTH",
"375 397 OFFCURVE",
"424 379 OFFCURVE",
"467 347 CURVE",
"519 458 LINE",
"470 496 OFFCURVE",
"404 520 OFFCURVE",
"319 520 CURVE SMOOTH",
"147 520 OFFCURVE",
"34 415 OFFCURVE",
"34 240 CURVE SMOOTH",
"34 91 OFFCURVE",
"137 -8 OFFCURVE",
"303 -8 CURVE SMOOTH"
);
}
);
width = 511;
},
{
anchors = (
{
name = bottom;
position = "{262, 0}";
},
{
name = top;
position = "{305, 506}";
}
);
layerId = "9E718F8A-2CEA-4931-B05D-987794BD97DA";
paths = (
{
closed = 1;
nodes = (
"340 -7 OFFCURVE",
"403 19 OFFCURVE",
"444 60 CURVE",
"425 103 LINE",
"374 61 OFFCURVE",
"333 42 OFFCURVE",
"278 42 CURVE SMOOTH",
"168 42 OFFCURVE",
"109 115 OFFCURVE",
"109 231 CURVE SMOOTH",
"109 376 OFFCURVE",
"176 464 OFFCURVE",
"294 464 CURVE SMOOTH",
"352 464 OFFCURVE",
"396 445 OFFCURVE",
"449 403 CURVE",
"474 446 LINE",
"431 488 OFFCURVE",
"368 513 OFFCURVE",
"298 513 CURVE SMOOTH",
"146 513 OFFCURVE",
"52 402 OFFCURVE",
"52 234 CURVE SMOOTH",
"52 88 OFFCURVE",
"138 -7 OFFCURVE",
"272 -7 CURVE SMOOTH"
);
}
);
width = 489;
}
);
leftKerningGroup = o;
leftMetricsKey = o;
rightKerningGroup = c;
unicode = 0063;
userData = {
anchors = (
);
b = {
};
com.typemytype.robofont.layerData = {
b = {
anchors = (
);
components = (
);
contours = (
);
lib = {
};
name = c;
unicodes = (
);
width = 956.1410;
};
};
components = (
);
contours = (
);
lib = {
};
name = c;
unicodes = (
);
width = 992;
};
},
{
color = 3;
glyphname = d;
lastChange = "2016-09-21 12:33:23 +0000";
layers = (
{
anchors = (
{
name = bottom;
position = "{298, 0}";
},
{
name = center;
position = "{318, 256}";
},
{
name = top;
position = "{338, 511}";
},
{
name = topright;
position = "{638, 728}";
}
);
background = {
paths = (
{
closed = 1;
nodes = (
"575 728 LINE",
"414 728 LINE",
"414 393 LINE",
"428 412 LINE",
"405 478 OFFCURVE",
"338 520 OFFCURVE",
"257 520 CURVE SMOOTH",
"125 520 OFFCURVE",
"33 417 OFFCURVE",
"33 258 CURVE SMOOTH",
"33 99 OFFCURVE",
"126 -8 OFFCURVE",
"257 -8 CURVE SMOOTH",
"338 -8 OFFCURVE",
"405 33 OFFCURVE",
"428 99 CURVE",
"416 122 LINE",
"416 0 LINE",
"575 0 LINE"
);
},
{
closed = 1;
nodes = (
"235 114 OFFCURVE",
"193 166 OFFCURVE",
"193 258 CURVE SMOOTH",
"193 348 OFFCURVE",
"233 398 OFFCURVE",
"305 398 CURVE SMOOTH",
"376 398 OFFCURVE",
"416 347 OFFCURVE",
"416 256 CURVE SMOOTH",
"416 164 OFFCURVE",
"376 114 OFFCURVE",
"305 114 CURVE SMOOTH"
);
}
);
};
guideLines = (
{
angle = 89.3795;
position = "{275, 256}";
}
);
layerId = "E1B555A7-F4E1-459C-9C1A-AE952106EEF9";
paths = (
{
closed = 1;
nodes = (
"325 -8 OFFCURVE",
"387 28 OFFCURVE",
"416 87 CURVE",
"405 122 LINE",
"396 0 LINE",
"555 0 LINE",
"613 728 LINE",
"451 728 LINE",
"425 393 LINE",
"439 430 LINE",
"407 487 OFFCURVE",
"352 520 OFFCURVE",
"276 520 CURVE SMOOTH",
"131 520 OFFCURVE",
"33 403 OFFCURVE",
"33 236 CURVE SMOOTH",
"33 84 OFFCURVE",
"121 -8 OFFCURVE",
"249 -8 CURVE SMOOTH"
);
},
{
closed = 1;
nodes = (
"233 113 OFFCURVE",
"193 160 OFFCURVE",
"193 246 CURVE SMOOTH",
"193 340 OFFCURVE",
"237 399 OFFCURVE",
"309 399 CURVE SMOOTH",
"378 399 OFFCURVE",
"417 353 OFFCURVE",
"417 263 CURVE SMOOTH",
"417 173 OFFCURVE",
"374 113 OFFCURVE",
"304 113 CURVE SMOOTH"
);
}
);
width = 634;
},
{
anchors = (
{
name = bottom;
position = "{277, 0}";
},
{
name = center;
position = "{296, 253}";
},
{
name = top;
position = "{317, 506}";
},
{
name = topright;
position = "{582, 728}";
}
);
layerId = "9E718F8A-2CEA-4931-B05D-987794BD97DA";
paths = (
{
closed = 1;
nodes = (
"349 -7 OFFCURVE",
"428 41 OFFCURVE",
"451 122 CURVE",
"441 139 LINE",
"430 0 LINE",
"483 0 LINE",
"540 728 LINE",
"487 728 LINE",
"459 367 LINE",
"473 374 LINE",
"453 462 OFFCURVE",
"382 513 OFFCURVE",
"286 513 CURVE SMOOTH",
"147 513 OFFCURVE",
"52 403 OFFCURVE",
"52 234 CURVE SMOOTH",
"52 88 OFFCURVE",
"138 -7 OFFCURVE",
"265 -7 CURVE SMOOTH"
);
},
{
closed = 1;
nodes = (
"170 42 OFFCURVE",
"109 112 OFFCURVE",
"109 234 CURVE SMOOTH",
"109 377 OFFCURVE",
"176 464 OFFCURVE",
"285 464 CURVE SMOOTH",
"392 464 OFFCURVE",
"451 398 OFFCURVE",
"451 275 CURVE SMOOTH",
"451 130 OFFCURVE",
"384 42 OFFCURVE",
"274 42 CURVE SMOOTH"
);
}
);
width = 588;
}
);
leftKerningGroup = o;
leftMetricsKey = o;
rightKerningGroup = l;
unicode = 0064;
userData = {
anchors = (
);
b = {
};
com.typemytype.robofont.layerData = {
b = {
anchors = (
);
components = (
);
contours = (
);
lib = {
};
name = d;
unicodes = (
);
width = 1181;
};
};
components = (
);
contours = (
);
lib = {
};
name = d;
unicodes = (
);
width = 1207;
};
},
{
color = 3;
glyphname = eth;
lastChange = "2016-09-21 12:52:48 +0000";
layers = (
{
background = {
paths = (
{
closed = 1;
nodes = (
"480 -8 OFFCURVE",
"583 106 OFFCURVE",
"583 308 CURVE SMOOTH",
"583 499 OFFCURVE",
"446 705 OFFCURVE",
"187 740 CURVE",
"152 630 LINE",
"306 609 OFFCURVE",
"432 498 OFFCURVE",
"432 337 CURVE",
"474 332 LINE",
"448 425 OFFCURVE",
"385 470 OFFCURVE",
"283 470 CURVE SMOOTH",
"137 470 OFFCURVE",
"34 372 OFFCURVE",
"34 232 CURVE SMOOTH",
"34 89 OFFCURVE",
"142 -8 OFFCURVE",
"299 -8 CURVE SMOOTH"
);
},
{
closed = 1;
nodes = (
"232 114 OFFCURVE",
"194 154 OFFCURVE",
"194 232 CURVE SMOOTH",
"194 311 OFFCURVE",
"232 351 OFFCURVE",
"305 351 CURVE SMOOTH",
"377 351 OFFCURVE",
"415 311 OFFCURVE",
"415 232 CURVE SMOOTH",
"415 156 OFFCURVE",
"376 114 OFFCURVE",
"305 114 CURVE SMOOTH"
);
},
{
closed = 1;
nodes = (
"577 590 LINE",
"556 671 LINE",
"151 563 LINE",
"173 481 LINE"
);
}
);
};
guideLines = (
{
angle = 90;
position = "{293, 674}";
},
{
angle = 90;
position = "{722, 674}";
}
);
layerId = "E1B555A7-F4E1-459C-9C1A-AE952106EEF9";
paths = (
{
closed = 1;
nodes = (
"465 -8 OFFCURVE",
"588 87 OFFCURVE",
"588 328 CURVE SMOOTH",
"588 521 OFFCURVE",
"469 707 OFFCURVE",
"225 740 CURVE",
"182 630 LINE",
"334 609 OFFCURVE",
"451 498 OFFCURVE",
"439 337 CURVE",
"480 332 LINE",
"453 438 OFFCURVE",
"380 470 OFFCURVE",
"291 470 CURVE SMOOTH",
"146 470 OFFCURVE",
"32 375 OFFCURVE",
"32 221 CURVE SMOOTH",
"32 82 OFFCURVE",
"135 -8 OFFCURVE",
"301 -8 CURVE SMOOTH"
);
},
{
closed = 1;
nodes = (
"227 114 OFFCURVE",
"192 161 OFFCURVE",
"192 223 CURVE SMOOTH",
"192 290 OFFCURVE",
"224 351 OFFCURVE",
"308 351 CURVE SMOOTH",
"379 351 OFFCURVE",
"414 308 OFFCURVE",
"414 245 CURVE SMOOTH",
"414 174 OFFCURVE",
"382 114 OFFCURVE",
"299 114 CURVE SMOOTH"
);
},
{
closed = 1;
nodes = (
"604 590 LINE",
"589 671 LINE",
"176 563 LINE",
"191 481 LINE"
);
}
);
width = 617;
},
{
layerId = "9E718F8A-2CEA-4931-B05D-987794BD97DA";
paths = (
{
closed = 1;
nodes = (
"415 -7 OFFCURVE",
"517 94 OFFCURVE",
"517 333 CURVE SMOOTH",
"517 538 OFFCURVE",
"414 674 OFFCURVE",
"220 734 CURVE",
"201 693 LINE",
"396 632 OFFCURVE",
"482 488 OFFCURVE",
"464 300 CURVE",
"478 319 LINE",
"471 404 OFFCURVE",
"398 470 OFFCURVE",
"286 470 CURVE SMOOTH",
"145 470 OFFCURVE",
"51 368 OFFCURVE",
"51 215 CURVE SMOOTH",
"51 80 OFFCURVE",
"137 -7 OFFCURVE",
"271 -7 CURVE SMOOTH"
);
},
{
closed = 1;
nodes = (
"167 42 OFFCURVE",
"107 101 OFFCURVE",
"107 212 CURVE SMOOTH",
"107 342 OFFCURVE",
"175 420 OFFCURVE",
"285 420 CURVE SMOOTH",
"388 420 OFFCURVE",
"451 358 OFFCURVE",
"451 254 CURVE SMOOTH",
"451 120 OFFCURVE",
"383 42 OFFCURVE",
"275 42 CURVE SMOOTH"
);
},
{
closed = 1;
nodes = (
"541 653 LINE",
"529 694 LINE",
"198 566 LINE",
"211 525 LINE"
);
}
);
width = 562;
}
);
leftKerningGroup = o;
leftMetricsKey = o;
rightKerningGroup = o;
unicode = 00F0;
userData = {
com.typemytype.robofont.layerData = {
b = {
anchors = (
);
components = (
);
contours = (
);
lib = {
};
name = eth;
unicodes = (
);
width = 1230;
};
};
};
},
{
color = 3;
glyphname = dcaron;
lastChange = "2016-09-21 12:33:23 +0000";
layers = (
{
background = {
components = (
{
name = d;
}
);
paths = (
{
closed = 1;
nodes = (
"684 728 LINE",
"602 728 LINE",
"602 528 LINE",
"657 528 LINE"
);
}
);
};
components = (
{
name = d;
}
);
layerId = "E1B555A7-F4E1-459C-9C1A-AE952106EEF9";
paths = (
{
closed = 1;
nodes = (
"721 728 LINE",
"639 728 LINE",
"624 528 LINE",
"679 528 LINE"
);
}
);
width = 634;
},
{
components = (
{
name = d;
}
);
layerId = "9E718F8A-2CEA-4931-B05D-987794BD97DA";
paths = (
{
closed = 1;
nodes = (
"637 728 LINE",
"577 728 LINE",
"563 533 LINE",
"596 533 LINE"
);
}
);
width = 588;
}
);
leftKerningGroup = o;
leftMetricsKey = d;
widthMetricsKey = d;
rightKerningGroup = lcaron;
unicode = 010F;
},
{
color = 3;
glyphname = dcroat;
lastChange = "2016-09-21 12:33:23 +0000";
layers = (
{
background = {
paths = (
{
closed = 1;
nodes = (
"664 549 LINE",
"664 660 LINE",
"224 660 LINE",
"224 549 LINE"
);
},
{
closed = 1;
nodes = (
"576 728 LINE",
"415 728 LINE",
"415 393 LINE",
"429 412 LINE",
"406 478 OFFCURVE",
"339 520 OFFCURVE",
"258 520 CURVE SMOOTH",
"126 520 OFFCURVE",
"34 417 OFFCURVE",
"34 258 CURVE SMOOTH",
"34 99 OFFCURVE",
"127 -8 OFFCURVE",
"258 -8 CURVE SMOOTH",
"339 -8 OFFCURVE",
"406 33 OFFCURVE",
"429 99 CURVE",
"417 122 LINE",
"417 0 LINE",
"576 0 LINE"
);
},
{
closed = 1;
nodes = (
"236 114 OFFCURVE",
"194 166 OFFCURVE",
"194 258 CURVE SMOOTH",
"194 348 OFFCURVE",
"234 398 OFFCURVE",
"306 398 CURVE SMOOTH",
"377 398 OFFCURVE",
"417 347 OFFCURVE",
"417 256 CURVE SMOOTH",
"417 164 OFFCURVE",
"377 114 OFFCURVE",
"306 114 CURVE SMOOTH"
);
}
);
};
layerId = "E1B555A7-F4E1-459C-9C1A-AE952106EEF9";
paths = (
{
closed = 1;
nodes = (
"326 -8 OFFCURVE",
"388 28 OFFCURVE",
"417 87 CURVE",
"407 122 LINE",
"398 0 LINE",
"557 0 LINE",
"614 728 LINE",
"452 728 LINE",
"426 393 LINE",
"440 430 LINE",
"408 487 OFFCURVE",
"353 520 OFFCURVE",
"277 520 CURVE SMOOTH",
"132 520 OFFCURVE",
"34 399 OFFCURVE",
"34 246 CURVE SMOOTH",
"34 86 OFFCURVE",
"122 -8 OFFCURVE",
"250 -8 CURVE SMOOTH"
);
},
{
closed = 1;
nodes = (
"238 113 OFFCURVE",
"194 155 OFFCURVE",
"194 246 CURVE SMOOTH",
"194 342 OFFCURVE",
"241 399 OFFCURVE",
"308 399 CURVE SMOOTH",
"381 399 OFFCURVE",
"418 356 OFFCURVE",
"418 274 CURVE SMOOTH",
"418 169 OFFCURVE",
"378 113 OFFCURVE",
"305 113 CURVE SMOOTH"
);
},
{
closed = 1;
nodes = (
"687 549 LINE",
"695 660 LINE",
"255 660 LINE",
"247 549 LINE"
);
}
);
width = 634;
},
{
layerId = "9E718F8A-2CEA-4931-B05D-987794BD97DA";
paths = (
{
closed = 1;
nodes = (
"350 -7 OFFCURVE",
"429 41 OFFCURVE",
"452 122 CURVE",
"442 139 LINE",
"431 0 LINE",
"484 0 LINE",
"541 728 LINE",
"488 728 LINE",
"460 367 LINE",
"474 374 LINE",
"454 462 OFFCURVE",
"383 513 OFFCURVE",
"287 513 CURVE SMOOTH",
"148 513 OFFCURVE",
"53 403 OFFCURVE",
"53 236 CURVE SMOOTH",
"53 88 OFFCURVE",
"139 -7 OFFCURVE",
"266 -7 CURVE SMOOTH"
);
},
{
closed = 1;
nodes = (
"171 42 OFFCURVE",
"110 112 OFFCURVE",
"110 232 CURVE SMOOTH",
"110 377 OFFCURVE",
"177 464 OFFCURVE",
"286 464 CURVE SMOOTH",
"393 464 OFFCURVE",
"452 398 OFFCURVE",
"452 275 CURVE SMOOTH",
"452 130 OFFCURVE",
"385 42 OFFCURVE",
"275 42 CURVE SMOOTH"
);
},
{
closed = 1;
nodes = (
"628 583 LINE",
"632 627 LINE",
"278 627 LINE",
"274 583 LINE"
);
}
);
width = 588;
}
);
leftKerningGroup = o;
leftMetricsKey = d;
widthMetricsKey = d;
rightKerningGroup = l;
unicode = 0111;
userData = {
com.typemytype.robofont.layerData = {
b = {
anchors = (
);
components = (
);
contours = (
);
lib = {
};
name = dcroat;
unicodes = (
);
width = 1181;
};
};
};
},
{
color = 3;
glyphname = e;
lastChange = "2016-09-21 12:33:15 +0000";
layers = (
{
anchors = (
{
name = bottom;
position = "{287, 0}";
},
{
name = ogonek;
position = "{393, 10}";
},
{
name = top;
position = "{306, 511}";
}
);
background = {
paths = (
{
closed = 1;
nodes = (
"467 161 LINE",
"425 129 OFFCURVE",
"371 112 OFFCURVE",
"319 112 CURVE SMOOTH",
"229 112 OFFCURVE",
"188 157 OFFCURVE",
"188 269 CURVE SMOOTH",
"188 361 OFFCURVE",
"224 409 OFFCURVE",
"289 409 CURVE SMOOTH",
"350 409 OFFCURVE",
"382 368 OFFCURVE",
"382 287 CURVE",
"421 318 LINE",
"178 318 LINE",
"177 239 LINE",
"518 239 LINE",
"518 262 LINE SMOOTH",
"518 421 OFFCURVE",
"428 520 OFFCURVE",
"285 520 CURVE SMOOTH",
"138 520 OFFCURVE",
"34 411 OFFCURVE",
"34 255 CURVE SMOOTH",
"34 93 OFFCURVE",
"139 -8 OFFCURVE",
"312 -8 CURVE SMOOTH",
"383 -8 OFFCURVE",
"460 15 OFFCURVE",
"509 54 CURVE"
);
}
);
};
guideLines = (
{
angle = 90;
position = "{633, 564}";
}
);
layerId = "E1B555A7-F4E1-459C-9C1A-AE952106EEF9";
paths = (
{
closed = 1;
nodes = (
"460 161 LINE",
"415 129 OFFCURVE",
"368 112 OFFCURVE",
"313 112 CURVE SMOOTH",
"231 112 OFFCURVE",
"188 155 OFFCURVE",
"188 245 CURVE SMOOTH",
"188 361 OFFCURVE",
"228 409 OFFCURVE",
"298 409 CURVE SMOOTH",
"354 409 OFFCURVE",
"389 372 OFFCURVE",
"385 303 CURVE",
"426 318 LINE",
"182 318 LINE",
"175 239 LINE",
"515 239 LINE",
"537 418 OFFCURVE",
"442 520 OFFCURVE",
"292 520 CURVE SMOOTH",
"145 520 OFFCURVE",
"34 406 OFFCURVE",
"34 241 CURVE SMOOTH",
"34 90 OFFCURVE",
"140 -8 OFFCURVE",
"302 -8 CURVE SMOOTH",
"376 -8 OFFCURVE",
"449 15 OFFCURVE",
"494 54 CURVE"
);
}
);
width = 551;
},
{
anchors = (
{
name = bottom;
position = "{277, 0}";
},
{
name = ogonek;
position = "{371, 10}";
},
{
name = top;
position = "{306, 506}";
}
);
layerId = "9E718F8A-2CEA-4931-B05D-987794BD97DA";
paths = (
{
closed = 1;
nodes = (
"452 103 LINE",
"402 61 OFFCURVE",
"340 42 OFFCURVE",
"281 42 CURVE SMOOTH",
"168 42 OFFCURVE",
"110 115 OFFCURVE",
"110 231 CURVE SMOOTH",
"110 377 OFFCURVE",
"176 467 OFFCURVE",
"300 467 CURVE SMOOTH",
"398 467 OFFCURVE",
"459 401 OFFCURVE",
"444 280 CURVE",
"467 304 LINE",
"103 304 LINE",
"101 259 LINE",
"495 259 LINE",
"513 427 OFFCURVE",
"431 513 OFFCURVE",
"296 513 CURVE SMOOTH",
"146 513 OFFCURVE",
"52 401 OFFCURVE",
"52 234 CURVE SMOOTH",
"52 88 OFFCURVE",
"138 -7 OFFCURVE",
"281 -7 CURVE SMOOTH",
"351 -7 OFFCURVE",
"431 19 OFFCURVE",
"472 60 CURVE"
);
}
);
width = 542;
}
);
leftKerningGroup = o;
leftMetricsKey = o;
rightKerningGroup = e;
unicode = 0065;
userData = {
anchors = (
);
b = {
};
com.typemytype.robofont.layerData = {
b = {
anchors = (
);
components = (
);
contours = (
);
lib = {
};
name = e;
unicodes = (
);
width = 1132;
};
};
components = (
);
contours = (
);
lib = {
};
name = e;
unicodes = (
);
width = 1132;
};
},
{
color = 3;
glyphname = eogonek;
lastChange = "2016-09-21 12:33:15 +0000";
layers = (
{
anchors = (
{
name = top;
position = "{306, 511}";
}
);
background = {
anchors = (
{
name = top;
position = "{325, 511}";
}
);
paths = (
{
closed = 1;
nodes = (
"441 -204 OFFCURVE",
"477 -196 OFFCURVE",
"508 -183 CURVE",
"491 -108 LINE",
"471 -117 OFFCURVE",
"452 -121 OFFCURVE",
"435 -121 CURVE SMOOTH",
"396 -121 OFFCURVE",
"374 -102 OFFCURVE",
"374 -66 CURVE SMOOTH",
"374 -31 OFFCURVE",
"395 -7 OFFCURVE",
"450 21 CURVE SMOOTH",
"487 38 OFFCURVE",
"499 45 OFFCURVE",
"509 54 CURVE",
"467 161 LINE",
"425 129 OFFCURVE",
"371 112 OFFCURVE",
"319 112 CURVE SMOOTH",
"229 112 OFFCURVE",
"188 157 OFFCURVE",
"188 269 CURVE SMOOTH",
"188 357 OFFCURVE",
"224 409 OFFCURVE",
"289 409 CURVE SMOOTH",
"350 409 OFFCURVE",
"382 368 OFFCURVE",
"382 287 CURVE",
"421 318 LINE",
"178 318 LINE",
"177 239 LINE",
"518 239 LINE",
"518 262 LINE SMOOTH",
"518 421 OFFCURVE",
"428 520 OFFCURVE",
"285 520 CURVE SMOOTH",
"138 520 OFFCURVE",
"34 411 OFFCURVE",
"34 255 CURVE SMOOTH",
"34 93 OFFCURVE",
"139 -8 OFFCURVE",
"312 -8 CURVE SMOOTH",
"327 -8 OFFCURVE",
"343 -6 OFFCURVE",
"364 -3 CURVE",
"334 13 LINE",
"293 -10 OFFCURVE",
"272 -48 OFFCURVE",
"272 -90 CURVE SMOOTH",
"272 -156 OFFCURVE",
"326 -204 OFFCURVE",
"404 -204 CURVE SMOOTH"
);
}
);
};
guideLines = (
{
angle = 90;
position = "{623, 532}";
}
);
layerId = "E1B555A7-F4E1-459C-9C1A-AE952106EEF9";
paths = (
{
closed = 1;
nodes = (
"409 -204 OFFCURVE",
"442 -196 OFFCURVE",
"474 -183 CURVE",
"463 -108 LINE",
"440 -117 OFFCURVE",
"421 -121 OFFCURVE",
"404 -121 CURVE SMOOTH",
"371 -121 OFFCURVE",
"349 -102 OFFCURVE",
"349 -69 CURVE SMOOTH",
"349 -34 OFFCURVE",
"370 -9 OFFCURVE",
"432 17 CURVE SMOOTH",
"460 28 OFFCURVE",
"482 41 OFFCURVE",
"494 54 CURVE",
"460 161 LINE",
"415 129 OFFCURVE",
"368 112 OFFCURVE",
"313 112 CURVE SMOOTH",
"231 112 OFFCURVE",
"188 155 OFFCURVE",
"188 245 CURVE SMOOTH",
"188 361 OFFCURVE",
"228 409 OFFCURVE",
"298 409 CURVE SMOOTH",
"354 409 OFFCURVE",
"389 372 OFFCURVE",
"385 303 CURVE",
"426 318 LINE",
"182 318 LINE",
"175 239 LINE",
"515 239 LINE",
"537 418 OFFCURVE",
"442 520 OFFCURVE",
"292 520 CURVE SMOOTH",
"145 520 OFFCURVE",
"34 406 OFFCURVE",
"34 241 CURVE SMOOTH",
"34 90 OFFCURVE",
"140 -8 OFFCURVE",
"302 -8 CURVE SMOOTH",
"309 -8 OFFCURVE",
"323 -6 OFFCURVE",
"344 -3 CURVE",
"315 13 LINE",
"271 -5 OFFCURVE",
"245 -46 OFFCURVE",
"245 -94 CURVE SMOOTH",
"245 -158 OFFCURVE",
"295 -204 OFFCURVE",
"376 -204 CURVE SMOOTH"
);
}
);
width = 551;
},
{
anchors = (
{
name = top;
position = "{306, 506}";
}
);
layerId = "9E718F8A-2CEA-4931-B05D-987794BD97DA";
paths = (
{
closed = 1;
nodes = (
"402 -197 OFFCURVE",
"434 -186 OFFCURVE",
"452 -174 CURVE",
"439 -133 LINE",
"416 -148 OFFCURVE",
"392 -154 OFFCURVE",
"375 -154 CURVE SMOOTH",
"335 -154 OFFCURVE",
"311 -132 OFFCURVE",
"311 -89 CURVE SMOOTH",
"311 -54 OFFCURVE",
"327 -14 OFFCURVE",
"414 22 CURVE SMOOTH",
"441 33 OFFCURVE",
"462 49 OFFCURVE",
"472 60 CURVE",
"452 103 LINE",
"402 61 OFFCURVE",
"343 42 OFFCURVE",
"281 42 CURVE SMOOTH",
"168 42 OFFCURVE",
"110 115 OFFCURVE",
"110 231 CURVE SMOOTH",
"110 400 OFFCURVE",
"193 467 OFFCURVE",
"300 467 CURVE SMOOTH",
"398 467 OFFCURVE",
"459 401 OFFCURVE",
"444 280 CURVE",
"467 304 LINE",
"103 304 LINE",
"101 259 LINE",
"495 259 LINE",
"513 427 OFFCURVE",
"429 513 OFFCURVE",
"296 513 CURVE SMOOTH",
"146 513 OFFCURVE",
"52 401 OFFCURVE",
"52 234 CURVE SMOOTH",
"52 88 OFFCURVE",
"138 -7 OFFCURVE",
"281 -7 CURVE SMOOTH",
"302 -7 OFFCURVE",
"317 -4 OFFCURVE",
"344 5 CURVE",
"332 13 LINE",
"289 -6 OFFCURVE",
"259 -44 OFFCURVE",
"259 -98 CURVE SMOOTH",
"259 -157 OFFCURVE",
"302 -197 OFFCURVE",
"370 -197 CURVE SMOOTH"
);
}
);
width = 542;
}
);
leftKerningGroup = o;
leftMetricsKey = e;
widthMetricsKey = e;
rightKerningGroup = e;
unicode = 0119;
},
{
color = 3;
glyphname = schwa;
lastChange = "2016-09-21 12:33:23 +0000";
layers = (
{
background = {
paths = (
{
closed = 1;
nodes = (
"86 350 LINE",
"142 383 OFFCURVE",
"193 400 OFFCURVE",
"242 400 CURVE SMOOTH",
"327 400 OFFCURVE",
"365 356 OFFCURVE",
"368 250 CURVE SMOOTH",
"371 153 OFFCURVE",
"336 102 OFFCURVE",
"269 102 CURVE SMOOTH",
"207 102 OFFCURVE",
"175 145 OFFCURVE",
"175 224 CURVE",
"131 193 LINE",
"375 193 LINE",
"376 273 LINE",
"35 273 LINE",
"35 248 LINE SMOOTH",
"35 88 OFFCURVE",
"128 -8 OFFCURVE",
"276 -8 CURVE SMOOTH",
"420 -8 OFFCURVE",
"519 98 OFFCURVE",
"519 256 CURVE SMOOTH",
"519 417 OFFCURVE",
"414 520 OFFCURVE",
"253 520 CURVE SMOOTH",
"175 520 OFFCURVE",
"96 497 OFFCURVE",
"43 458 CURVE"
);
}
);
};
layerId = "E1B555A7-F4E1-459C-9C1A-AE952106EEF9";
paths = (
{
closed = 1;
nodes = (
"94 350 LINE",
"141 382 OFFCURVE",
"189 400 OFFCURVE",
"247 400 CURVE SMOOTH",
"324 400 OFFCURVE",
"367 356 OFFCURVE",
"367 269 CURVE SMOOTH",
"367 151 OFFCURVE",
"328 102 OFFCURVE",
"257 102 CURVE SMOOTH",
"199 102 OFFCURVE",
"164 139 OFFCURVE",
"171 209 CURVE",
"128 193 LINE",
"372 193 LINE",
"379 273 LINE",
"37 273 LINE",
"15 93 OFFCURVE",
"111 -8 OFFCURVE",
"261 -8 CURVE SMOOTH",
"409 -8 OFFCURVE",
"520 105 OFFCURVE",
"520 271 CURVE SMOOTH",
"520 421 OFFCURVE",
"423 520 OFFCURVE",
"262 520 CURVE SMOOTH",
"188 520 OFFCURVE",
"108 496 OFFCURVE",
"60 458 CURVE"
);
}
);
width = 552;
},
{
layerId = "9E718F8A-2CEA-4931-B05D-987794BD97DA";
paths = (
{
closed = 1;
nodes = (
"91 403 LINE",
"142 445 OFFCURVE",
"202 464 OFFCURVE",
"261 464 CURVE SMOOTH",
"372 464 OFFCURVE",
"434 395 OFFCURVE",
"434 275 CURVE SMOOTH",
"434 129 OFFCURVE",
"368 39 OFFCURVE",
"254 39 CURVE SMOOTH",
"146 39 OFFCURVE",
"84 105 OFFCURVE",
"98 226 CURVE",
"74 202 LINE",
"441 202 LINE",
"443 247 LINE",
"48 247 LINE",
"29 80 OFFCURVE",
"113 -7 OFFCURVE",
"257 -7 CURVE SMOOTH",
"401 -7 OFFCURVE",
"491 105 OFFCURVE",
"491 272 CURVE SMOOTH",
"491 418 OFFCURVE",
"405 513 OFFCURVE",
"262 513 CURVE SMOOTH",
"192 513 OFFCURVE",
"113 488 OFFCURVE",
"71 446 CURVE"
);
}
);
width = 542;
}
);
leftKerningGroup = o;
leftMetricsKey = "=|e";
rightKerningGroup = o;
rightMetricsKey = o;
unicode = 0259;
},
{
color = 3;
glyphname = f;
lastChange = "2016-09-21 12:33:15 +0000";
layers = (
{
anchors = (
{
name = bottom;
position = "{161, 0}";
},
{
name = top;
position = "{201, 511}";
}
);
background = {
paths = (
{
closed = 1;
nodes = (
"242 0 LINE",
"283 524 LINE SMOOTH",
"289 603 OFFCURVE",
"304 615 OFFCURVE",
"387 615 CURVE SMOOTH",
"411 615 LINE",
"420 731 LINE",
"378 731 LINE SMOOTH",
"200 731 OFFCURVE",
"134 681 OFFCURVE",
"123 537 CURVE SMOOTH",
"81 0 LINE"
);
},
{
closed = 1;
nodes = (
"374 387 LINE",
"383 507 LINE",
"25 507 LINE",
"15 387 LINE"
);
}
);
};
layerId = "E1B555A7-F4E1-459C-9C1A-AE952106EEF9";
paths = (
{
closed = 1;
nodes = (
"399 387 LINE",
"408 507 LINE",
"25 507 LINE",
"15 387 LINE"
);
},
{
closed = 1;
nodes = (
"242 0 LINE",
"283 524 LINE SMOOTH",
"289 603 OFFCURVE",
"304 615 OFFCURVE",
"387 615 CURVE SMOOTH",
"411 615 LINE",
"420 731 LINE",
"378 731 LINE SMOOTH",
"197 731 OFFCURVE",
"134 685 OFFCURVE",
"123 537 CURVE SMOOTH",
"81 0 LINE"
);
}
);
width = 392;
},
{
anchors = (
{
name = bottom;
position = "{115, 0}";
},
{
name = top;
position = "{155, 506}";
}
);
layerId = "9E718F8A-2CEA-4931-B05D-987794BD97DA";
paths = (
{
closed = 1;
nodes = (
"327 456 LINE",
"332 501 LINE",
"29 501 LINE",
"25 456 LINE"
);
},
{
closed = 1;
nodes = (
"141 0 LINE",
"185 554 LINE SMOOTH",
"194 667 OFFCURVE",
"215 686 OFFCURVE",
"321 686 CURVE SMOOTH",
"346 686 LINE",
"350 731 LINE",
"322 731 LINE SMOOTH",
"186 731 OFFCURVE",
"142 686 OFFCURVE",
"132 570 CURVE SMOOTH",
"87 0 LINE"
);
}
);
width = 319;
}
);
leftKerningGroup = f;
rightKerningGroup = f;
unicode = 0066;
userData = {
anchors = (
);
b = {
};
com.typemytype.robofont.layerData = {
b = {
anchors = (
);
components = (
);
contours = (
);
lib = {
};
name = f;
unicodes = (
);
width = 696;
};
};
components = (
);
contours = (
);
lib = {
};
name = f;
unicodes = (
);
width = 723;
};
},
{
color = 3;
glyphname = g;
lastChange = "2016-09-21 12:33:23 +0000";
layers = (
{
anchors = (
{
name = bottom;
position = "{300, 0}";
},
{
name = top;
position = "{340, 511}";
}
);
background = {
paths = (
{
closed = 1;
nodes = (
"448 -194 OFFCURVE",
"552 -108 OFFCURVE",
"564 56 CURVE SMOOTH",
"600 507 LINE",
"441 507 LINE",
"432 400 LINE",
"444 412 LINE",
"427 478 OFFCURVE",
"363 520 OFFCURVE",
"281 520 CURVE SMOOTH",
"149 520 OFFCURVE",
"47 419 OFFCURVE",
"34 267 CURVE SMOOTH",
"23 114 OFFCURVE",
"108 14 OFFCURVE",
"241 14 CURVE SMOOTH",
"322 14 OFFCURVE",
"395 66 OFFCURVE",
"421 120 CURVE",
"411 129 LINE",
"404 44 LINE SMOOTH",
"398 -36 OFFCURVE",
"353 -74 OFFCURVE",
"269 -74 CURVE SMOOTH",
"209 -74 OFFCURVE",
"148 -58 OFFCURVE",
"90 -30 CURVE",
"56 -148 LINE",
"113 -178 OFFCURVE",
"186 -194 OFFCURVE",
"263 -194 CURVE SMOOTH"
);
},
{
closed = 1;
nodes = (
"227 136 OFFCURVE",
"188 186 OFFCURVE",
"194 267 CURVE SMOOTH",
"201 349 OFFCURVE",
"247 398 OFFCURVE",
"318 398 CURVE SMOOTH",
"391 398 OFFCURVE",
"429 348 OFFCURVE",
"421 267 CURVE SMOOTH",
"415 185 OFFCURVE",
"369 136 OFFCURVE",
"298 136 CURVE SMOOTH"
);
}
);
};
layerId = "E1B555A7-F4E1-459C-9C1A-AE952106EEF9";
paths = (
{
closed = 1;
nodes = (
"56 -148 LINE",
"117 -178 OFFCURVE",
"191 -194 OFFCURVE",
"274 -194 CURVE SMOOTH",
"448 -194 OFFCURVE",
"550 -119 OFFCURVE",
"564 62 CURVE SMOOTH",
"599 507 LINE",
"440 507 LINE",
"432 400 LINE",
"444 430 LINE",
"412 487 OFFCURVE",
"357 520 OFFCURVE",
"279 520 CURVE SMOOTH",
"132 520 OFFCURVE",
"34 403 OFFCURVE",
"34 248 CURVE SMOOTH",
"34 106 OFFCURVE",
"122 14 OFFCURVE",
"252 14 CURVE SMOOTH",
"335 14 OFFCURVE",
"397 51 OFFCURVE",
"426 109 CURVE",
"410 125 LINE",
"404 44 LINE SMOOTH",
"398 -40 OFFCURVE",
"353 -74 OFFCURVE",
"279 -74 CURVE SMOOTH",
"214 -74 OFFCURVE",
"153 -61 OFFCURVE",
"91 -29 CURVE"
);
},
{
closed = 1;
nodes = (
"236 136 OFFCURVE",
"194 180 OFFCURVE",
"194 255 CURVE SMOOTH",
"194 345 OFFCURVE",
"239 399 OFFCURVE",
"311 399 CURVE SMOOTH",
"382 399 OFFCURVE",
"423 357 OFFCURVE",
"423 275 CURVE SMOOTH",
"423 191 OFFCURVE",
"378 136 OFFCURVE",
"306 136 CURVE SMOOTH"
);
}
);
width = 638;
},
{
anchors = (
{
name = bottom;
position = "{279, 0}";
},
{
name = top;
position = "{319, 506}";
}
);
layerId = "9E718F8A-2CEA-4931-B05D-987794BD97DA";
paths = (
{
closed = 1;
nodes = (
"74 -137 LINE",
"131 -175 OFFCURVE",
"194 -193 OFFCURVE",
"269 -193 CURVE SMOOTH",
"404 -193 OFFCURVE",
"478 -120 OFFCURVE",
"490 26 CURVE SMOOTH",
"527 501 LINE",
"473 501 LINE",
"465 393 LINE",
"477 374 LINE",
"458 462 OFFCURVE",
"386 513 OFFCURVE",
"288 513 CURVE SMOOTH",
"146 513 OFFCURVE",
"53 407 OFFCURVE",
"53 247 CURVE SMOOTH",
"53 106 OFFCURVE",
"138 15 OFFCURVE",
"271 15 CURVE SMOOTH",
"356 15 OFFCURVE",
"435 64 OFFCURVE",
"458 149 CURVE",
"446 139 LINE",
"437 25 LINE SMOOTH",
"429 -85 OFFCURVE",
"374 -144 OFFCURVE",
"269 -144 CURVE SMOOTH",
"199 -144 OFFCURVE",
"153 -130 OFFCURVE",
"90 -88 CURVE"
);
},
{
closed = 1;
nodes = (
"169 65 OFFCURVE",
"110 128 OFFCURVE",
"110 244 CURVE SMOOTH",
"110 381 OFFCURVE",
"177 464 OFFCURVE",
"288 464 CURVE SMOOTH",
"394 464 OFFCURVE",
"456 399 OFFCURVE",
"456 284 CURVE SMOOTH",
"456 147 OFFCURVE",
"388 65 OFFCURVE",
"277 65 CURVE SMOOTH"
);
}
);
width = 592;
}
);
leftKerningGroup = o;
leftMetricsKey = o;
rightKerningGroup = u;
unicode = 0067;
userData = {
anchors = (
);
b = {
};
com.typemytype.robofont.layerData = {
b = {
anchors = (
);
components = (
);
contours = (
);
lib = {
};
name = g;
unicodes = (
);
width = 1167;
};
};
components = (
);
contours = (
);
lib = {
};
name = g;
unicodes = (
);
width = 1207;
};
},
{
color = 3;
glyphname = h;
lastChange = "2016-09-21 12:33:15 +0000";
layers = (
{
anchors = (
{
name = bottom;
position = "{290, 0}";
},
{
name = center;
position = "{311, 256}";
},
{
name = top;
position = "{179, 728}";
}
);
background = {
paths = (
{
closed = 1;
nodes = (
"220 0 LINE",
"220 284 LINE SMOOTH",
"220 351 OFFCURVE",
"261 395 OFFCURVE",
"324 395 CURVE SMOOTH",
"375 395 OFFCURVE",
"400 367 OFFCURVE",
"400 298 CURVE SMOOTH",
"400 0 LINE",
"561 0 LINE",
"561 305 LINE SMOOTH",
"561 449 OFFCURVE",
"502 520 OFFCURVE",
"381 520 CURVE SMOOTH",
"301 520 OFFCURVE",
"237 481 OFFCURVE",
"202 412 CURVE",
"220 404 LINE",
"220 728 LINE",
"59 728 LINE",
"59 0 LINE"
);
}
);
};
layerId = "E1B555A7-F4E1-459C-9C1A-AE952106EEF9";
paths = (
{
closed = 1;
nodes = (
"200 0 LINE",
"223 284 LINE SMOOTH",
"228 351 OFFCURVE",
"263 395 OFFCURVE",
"327 395 CURVE SMOOTH",
"383 395 OFFCURVE",
"409 359 OFFCURVE",
"404 294 CURVE SMOOTH",
"380 0 LINE",
"541 0 LINE",
"565 301 LINE SMOOTH",
"576 444 OFFCURVE",
"518 520 OFFCURVE",
"395 520 CURVE SMOOTH",
"313 520 OFFCURVE",
"247 483 OFFCURVE",
"216 425 CURVE",
"230 393 LINE",
"257 728 LINE",
"96 728 LINE",
"39 0 LINE"
);
}
);
width = 617;
},
{
anchors = (
{
name = bottom;
position = "{269, 0}";
},
{
name = center;
position = "{288, 253}";
},
{
name = top;
position = "{149, 728}";
}
);
layerId = "9E718F8A-2CEA-4931-B05D-987794BD97DA";
paths = (
{
closed = 1;
nodes = (
"120 0 LINE",
"143 290 LINE SMOOTH",
"151 399 OFFCURVE",
"215 464 OFFCURVE",
"321 464 CURVE SMOOTH",
"411 464 OFFCURVE",
"452 416 OFFCURVE",
"444 314 CURVE SMOOTH",
"419 0 LINE",
"473 0 LINE",
"498 318 LINE SMOOTH",
"508 447 OFFCURVE",
"446 513 OFFCURVE",
"325 513 CURVE SMOOTH",
"237 513 OFFCURVE",
"164 467 OFFCURVE",
"137 384 CURVE",
"151 400 LINE",
"178 728 LINE",
"124 728 LINE",
"65 0 LINE"
);
}
);
width = 575;
}
);
leftKerningGroup = h;
rightKerningGroup = n;
rightMetricsKey = n;
unicode = 0068;
userData = {
anchors = (
);
b = {
};
com.typemytype.robofont.layerData = {
b = {
anchors = (
);
components = (
);
contours = (
);
lib = {
};
name = h;
unicodes = (
);
width = 1148;
};
};
components = (
);
contours = {
};
lib = {
};
name = h;
points = {
};
segmentType = curve;
unicodes = (
);
width = 1195;
x = 137;
y = 113;
};
},
{
color = 3;
glyphname = hbar;
lastChange = "2016-09-21 12:33:15 +0000";
layers = (
{
background = {
paths = (
{
closed = 1;
nodes = (
"220 0 LINE",
"220 284 LINE SMOOTH",
"220 351 OFFCURVE",
"261 395 OFFCURVE",
"324 395 CURVE SMOOTH",
"375 395 OFFCURVE",
"400 367 OFFCURVE",
"400 298 CURVE SMOOTH",
"400 0 LINE",
"561 0 LINE",
"561 305 LINE SMOOTH",
"561 449 OFFCURVE",
"502 520 OFFCURVE",
"381 520 CURVE SMOOTH",
"301 520 OFFCURVE",
"237 481 OFFCURVE",
"202 412 CURVE",
"220 404 LINE",
"220 728 LINE",
"59 728 LINE",
"59 0 LINE"
);
},
{
closed = 1;
nodes = (
"411 549 LINE",
"411 660 LINE",
"-29 660 LINE",
"-29 549 LINE"
);
}
);
};
layerId = "E1B555A7-F4E1-459C-9C1A-AE952106EEF9";
paths = (
{
closed = 1;
nodes = (
"200 0 LINE",
"223 284 LINE SMOOTH",
"228 351 OFFCURVE",
"263 395 OFFCURVE",
"327 395 CURVE SMOOTH",
"383 395 OFFCURVE",
"409 359 OFFCURVE",
"404 294 CURVE SMOOTH",
"380 0 LINE",
"541 0 LINE",
"565 301 LINE SMOOTH",
"576 444 OFFCURVE",
"518 520 OFFCURVE",
"395 520 CURVE SMOOTH",
"313 520 OFFCURVE",
"247 483 OFFCURVE",
"216 425 CURVE",
"230 393 LINE",
"257 728 LINE",
"96 728 LINE",
"39 0 LINE"
);
},
{
closed = 1;
nodes = (
"435 549 LINE",
"443 660 LINE",
"3 660 LINE",
"-5 549 LINE"
);
}
);
width = 617;
},
{
layerId = "9E718F8A-2CEA-4931-B05D-987794BD97DA";
paths = (
{
closed = 1;
nodes = (
"120 0 LINE",
"143 290 LINE SMOOTH",
"151 399 OFFCURVE",
"215 464 OFFCURVE",
"321 464 CURVE SMOOTH",
"411 464 OFFCURVE",
"452 416 OFFCURVE",
"444 314 CURVE SMOOTH",
"419 0 LINE",
"473 0 LINE",
"498 318 LINE SMOOTH",
"508 447 OFFCURVE",
"446 513 OFFCURVE",
"325 513 CURVE SMOOTH",
"237 513 OFFCURVE",
"164 467 OFFCURVE",
"137 384 CURVE",
"151 400 LINE",
"177 728 LINE",
"122 728 LINE",
"65 0 LINE"
);
},
{
closed = 1;
nodes = (
"367 583 LINE",
"371 627 LINE",
"17 627 LINE",
"12 583 LINE"
);
}
);
width = 575;
}
);
leftKerningGroup = h;
widthMetricsKey = n;
rightKerningGroup = n;
rightMetricsKey = n;
unicode = 0127;
},
